<?xml version="1.0" encoding="UTF-8"?>
<!DOCTYPE svg PUBLIC "-//W3C//DTD SVG 1.1//EN" "http://www.w3.org/Graphics/SVG/1.1/DTD/svg11.dtd">
<svg xmlns="http://www.w3.org/2000/svg" version="1.1" width="512px" height="512px" style="shape-rendering:geometricPrecision; text-rendering:geometricPrecision; image-rendering:optimizeQuality; fill-rule:evenodd; clip-rule:evenodd" xmlns:xlink="http://www.w3.org/1999/xlink">
<g><path style="opacity:0.991" fill="#9fd4fd" d="M 511.5,150.5 C 511.5,154.833 511.5,159.167 511.5,163.5C 503.549,177.66 492.215,180.994 477.5,173.5C 477.063,171.926 476.063,170.759 474.5,170C 401.789,127.645 328.789,85.8115 255.5,44.5C 182.211,85.8115 109.211,127.645 36.5,170C 34.9371,170.759 33.9371,171.926 33.5,173.5C 18.7848,180.994 7.45146,177.66 -0.5,163.5C -0.5,159.167 -0.5,154.833 -0.5,150.5C 0.837327,147.009 2.83733,143.843 5.5,141C 86.5393,93.8139 167.873,47.1472 249.5,1C 257.881,-0.651594 265.547,1.01507 272.5,6C 350.167,51 427.833,96 505.5,141C 508.163,143.843 510.163,147.009 511.5,150.5 Z"/></g>
<g><path style="opacity:1" fill="#d9d8db" d="M 477.5,173.5 C 477.5,182.5 477.5,191.5 477.5,200.5C 403.276,158.288 329.276,115.622 255.5,72.5C 181.724,115.622 107.724,158.288 33.5,200.5C 33.5,191.5 33.5,182.5 33.5,173.5C 33.9371,171.926 34.9371,170.759 36.5,170C 109.211,127.645 182.211,85.8115 255.5,44.5C 328.789,85.8115 401.789,127.645 474.5,170C 476.063,170.759 477.063,171.926 477.5,173.5 Z"/></g>
<g><path style="opacity:0.998" fill="#ebe9eb" d="M 477.5,200.5 C 477.5,225.833 477.5,251.167 477.5,276.5C 329.5,276.5 181.5,276.5 33.5,276.5C 33.5,251.167 33.5,225.833 33.5,200.5C 107.724,158.288 181.724,115.622 255.5,72.5C 329.276,115.622 403.276,158.288 477.5,200.5 Z"/></g>
<g><path style="opacity:1" fill="#fec36b" d="M 279.5,122.5 C 270.776,107.538 258.443,103.705 242.5,111C 239.277,114.392 235.944,117.559 232.5,120.5C 230.204,106.961 235.204,97.1279 247.5,91C 270.036,87.2058 281.203,96.7058 281,119.5C 280.768,120.737 280.268,121.737 279.5,122.5 Z"/></g>
<g><path style="opacity:1" fill="#fedf7d" d="M 279.5,122.5 C 273.488,136.173 263.155,141.339 248.5,138C 240.526,134.528 235.192,128.695 232.5,120.5C 235.944,117.559 239.277,114.392 242.5,111C 258.443,103.705 270.776,107.538 279.5,122.5 Z"/></g>
<g><path style="opacity:1" fill="#706672" d="M 348.5,169.5 C 352.426,169.047 355.592,170.38 358,173.5C 358.333,179.167 358.667,184.833 359,190.5C 366.167,184 373.333,177.5 380.5,171C 389.566,170.061 392.732,173.894 390,182.5C 381.5,190.333 373,198.167 364.5,206C 373.03,214.864 381.863,223.364 391,231.5C 395.96,240.876 393.127,245.376 382.5,245C 374.364,237.865 366.53,230.365 359,222.5C 358.667,228.833 358.333,235.167 358,241.5C 353.965,246.364 349.632,246.698 345,242.5C 343.355,219.922 343.022,197.255 344,174.5C 345.025,172.313 346.525,170.646 348.5,169.5 Z"/></g>
<g><path style="opacity:1" fill="#706671" d="M 123.5,170.5 C 132.506,170.334 141.506,170.5 150.5,171C 164.755,177.666 168.755,188.166 162.5,202.5C 171.779,212.948 172.946,224.281 166,236.5C 163.292,240.104 159.792,242.604 155.5,244C 144.907,245.595 134.24,245.928 123.5,245C 122,244.167 120.833,243 120,241.5C 119.333,219.167 119.333,196.833 120,174.5C 120.69,172.65 121.856,171.316 123.5,170.5 Z"/></g>
<g><path style="opacity:1" fill="#706672" d="M 212.5,170.5 C 218.204,169.436 222.371,171.436 225,176.5C 232.333,195.833 239.667,215.167 247,234.5C 247.615,244.27 243.448,247.27 234.5,243.5C 232.372,239.41 230.372,235.243 228.5,231C 220.167,230.333 211.833,230.333 203.5,231C 201.671,235.15 199.837,239.316 198,243.5C 192.631,246.774 188.298,245.774 185,240.5C 184.416,237.743 184.75,235.077 186,232.5C 193.389,212.722 201.056,193.055 209,173.5C 210.145,172.364 211.312,171.364 212.5,170.5 Z"/></g>
<g><path style="opacity:1" fill="#6f6671" d="M 303.5,210.5 C 303.987,211.473 304.487,212.473 305,213.5C 305.5,201.171 305.667,188.838 305.5,176.5C 307.138,171.013 310.805,169.18 316.5,171C 317.667,172.167 318.833,173.333 320,174.5C 320.667,196.5 320.667,218.5 320,240.5C 317.045,244.277 313.212,245.443 308.5,244C 298.559,231.232 289.225,218.065 280.5,204.5C 280.44,203.957 280.107,203.624 279.5,203.5C 278.501,215.482 278.168,227.482 278.5,239.5C 276.337,245.489 272.337,246.989 266.5,244C 265.299,243.097 264.465,241.931 264,240.5C 263.022,218.078 263.355,195.745 265,173.5C 268.373,170.114 272.206,169.614 276.5,172C 285.363,185.013 294.363,197.846 303.5,210.5 Z"/></g>
<g><path style="opacity:1" fill="#e8e6e8" d="M 134.5,185.5 C 138.514,185.334 142.514,185.501 146.5,186C 151.403,189.272 151.737,192.939 147.5,197C 143.179,197.499 138.846,197.666 134.5,197.5C 134.5,193.5 134.5,189.5 134.5,185.5 Z"/></g>
<g><path style="opacity:1" fill="#e5e3e6" d="M 215.5,197.5 C 218.6,203.121 220.933,209.121 222.5,215.5C 218.116,215.826 213.783,215.492 209.5,214.5C 211.793,208.919 213.793,203.253 215.5,197.5 Z"/></g>
<g><path style="opacity:1" fill="#aaa5ac" d="M 280.5,204.5 C 279.833,216.167 279.167,227.833 278.5,239.5C 278.168,227.482 278.501,215.482 279.5,203.5C 280.107,203.624 280.44,203.957 280.5,204.5 Z"/></g>
<g><path style="opacity:1" fill="#cecace" d="M 305.5,176.5 C 305.667,188.838 305.5,201.171 305,213.5C 304.487,212.473 303.987,211.473 303.5,210.5C 304.167,199.167 304.833,187.833 305.5,176.5 Z"/></g>
<g><path style="opacity:1" fill="#e8e6e8" d="M 134.5,213.5 C 139.844,213.334 145.177,213.501 150.5,214C 155.535,217.013 156.702,221.18 154,226.5C 152.786,228.049 151.286,229.215 149.5,230C 144.511,230.499 139.511,230.666 134.5,230.5C 134.5,224.833 134.5,219.167 134.5,213.5 Z"/></g>
<g><path style="opacity:0.999" fill="#9fd4fd" d="M 33.5,276.5 C 181.5,276.5 329.5,276.5 477.5,276.5C 488.914,276.189 500.248,276.523 511.5,277.5C 511.5,289.167 511.5,300.833 511.5,312.5C 510.711,312.783 510.044,313.283 509.5,314C 500.84,314.5 492.173,314.666 483.5,314.5C 446.167,314.5 408.833,314.5 371.5,314.5C 351.5,314.5 331.5,314.5 311.5,314.5C 274.167,314.5 236.833,314.5 199.5,314.5C 179.5,314.5 159.5,314.5 139.5,314.5C 102.167,314.5 64.8333,314.5 27.5,314.5C 18.8269,314.666 10.1603,314.5 1.5,314C 0.955796,313.283 0.28913,312.783 -0.5,312.5C -0.5,300.833 -0.5,289.167 -0.5,277.5C 10.7524,276.523 22.0857,276.189 33.5,276.5 Z"/></g>
<g><path style="opacity:1" fill="#dad8db" d="M 27.5,314.5 C 64.8333,314.5 102.167,314.5 139.5,314.5C 139.828,325.014 139.494,335.347 138.5,345.5C 138.5,341.167 138.5,336.833 138.5,332.5C 101.5,332.5 64.5,332.5 27.5,332.5C 27.5,326.5 27.5,320.5 27.5,314.5 Z"/></g>
<g><path style="opacity:1" fill="#b6b1b7" d="M 139.5,314.5 C 159.5,314.5 179.5,314.5 199.5,314.5C 199.173,324.681 199.506,334.681 200.5,344.5C 200.414,345.496 200.748,346.329 201.5,347C 208.158,347.5 214.825,347.666 221.5,347.5C 221.5,355.833 221.5,364.167 221.5,372.5C 221.5,394.5 221.5,416.5 221.5,438.5C 215.158,438.334 208.825,438.5 202.5,439C 201.667,439.833 200.833,440.667 200,441.5C 199.5,451.828 199.334,462.161 199.5,472.5C 179.5,472.5 159.5,472.5 139.5,472.5C 139.666,462.161 139.5,451.828 139,441.5C 138.167,440.667 137.333,439.833 136.5,439C 130.509,438.501 124.509,438.334 118.5,438.5C 118.5,408.167 118.5,377.833 118.5,347.5C 124.842,347.666 131.175,347.5 137.5,347C 138.056,346.617 138.389,346.117 138.5,345.5C 139.494,335.347 139.828,325.014 139.5,314.5 Z"/></g>
<g><path style="opacity:1" fill="#dad8db" d="M 199.5,314.5 C 236.833,314.5 274.167,314.5 311.5,314.5C 311.827,324.681 311.494,334.681 310.5,344.5C 310.5,340.5 310.5,336.5 310.5,332.5C 273.833,332.5 237.167,332.5 200.5,332.5C 200.5,336.5 200.5,340.5 200.5,344.5C 199.506,334.681 199.173,324.681 199.5,314.5 Z"/></g>
<g><path style="opacity:1" fill="#b6b1b7" d="M 311.5,314.5 C 331.5,314.5 351.5,314.5 371.5,314.5C 371.172,325.014 371.506,335.347 372.5,345.5C 372.611,346.117 372.944,346.617 373.5,347C 379.825,347.5 386.158,347.666 392.5,347.5C 392.5,377.833 392.5,408.167 392.5,438.5C 386.491,438.334 380.491,438.501 374.5,439C 373.667,439.833 372.833,440.667 372,441.5C 371.5,451.828 371.334,462.161 371.5,472.5C 351.5,472.5 331.5,472.5 311.5,472.5C 311.666,462.161 311.5,451.828 311,441.5C 310.167,440.667 309.333,439.833 308.5,439C 302.175,438.5 295.842,438.334 289.5,438.5C 289.5,416.5 289.5,394.5 289.5,372.5C 289.5,364.167 289.5,355.833 289.5,347.5C 296.175,347.666 302.842,347.5 309.5,347C 310.252,346.329 310.586,345.496 310.5,344.5C 311.494,334.681 311.827,324.681 311.5,314.5 Z"/></g>
<g><path style="opacity:1" fill="#dad8db" d="M 371.5,314.5 C 408.833,314.5 446.167,314.5 483.5,314.5C 483.5,320.5 483.5,326.5 483.5,332.5C 446.5,332.5 409.5,332.5 372.5,332.5C 372.5,336.833 372.5,341.167 372.5,345.5C 371.506,335.347 371.172,325.014 371.5,314.5 Z"/></g>
<g><path style="opacity:0.988" fill="#ebeaeb" d="M 27.5,332.5 C 64.5,332.5 101.5,332.5 138.5,332.5C 138.5,336.833 138.5,341.167 138.5,345.5C 138.389,346.117 138.056,346.617 137.5,347C 131.175,347.5 124.842,347.666 118.5,347.5C 95.3273,347.169 72.3273,347.502 49.5,348.5C 43.1579,348.666 36.8246,348.5 30.5,348C 29.6667,347.167 28.8333,346.333 28,345.5C 27.501,341.179 27.3343,336.846 27.5,332.5 Z"/></g>
<g><path style="opacity:1" fill="#ebe9eb" d="M 310.5,344.5 C 310.586,345.496 310.252,346.329 309.5,347C 302.842,347.5 296.175,347.666 289.5,347.5C 266.833,347.5 244.167,347.5 221.5,347.5C 214.825,347.666 208.158,347.5 201.5,347C 200.748,346.329 200.414,345.496 200.5,344.5C 200.5,340.5 200.5,336.5 200.5,332.5C 237.167,332.5 273.833,332.5 310.5,332.5C 310.5,336.5 310.5,340.5 310.5,344.5 Z"/></g>
<g><path style="opacity:0.988" fill="#ebeaeb" d="M 483.5,332.5 C 483.666,336.846 483.499,341.179 483,345.5C 482.167,346.333 481.333,347.167 480.5,348C 474.175,348.5 467.842,348.666 461.5,348.5C 438.673,347.502 415.673,347.169 392.5,347.5C 386.158,347.666 379.825,347.5 373.5,347C 372.944,346.617 372.611,346.117 372.5,345.5C 372.5,341.167 372.5,336.833 372.5,332.5C 409.5,332.5 446.5,332.5 483.5,332.5 Z"/></g>
<g><path style="opacity:1" fill="#ffc269" d="M 49.5,348.5 C 72.1667,348.5 94.8333,348.5 117.5,348.5C 117.5,356.5 117.5,364.5 117.5,372.5C 94.8333,372.5 72.1667,372.5 49.5,372.5C 49.5,364.5 49.5,356.5 49.5,348.5 Z"/></g>
<g><path style="opacity:1" fill="#fec26b" d="M 221.5,347.5 C 244.167,347.5 266.833,347.5 289.5,347.5C 289.5,355.833 289.5,364.167 289.5,372.5C 266.833,372.5 244.167,372.5 221.5,372.5C 221.5,364.167 221.5,355.833 221.5,347.5 Z"/></g>
<g><path style="opacity:1" fill="#ffc269" d="M 461.5,348.5 C 461.5,356.5 461.5,364.5 461.5,372.5C 438.833,372.5 416.167,372.5 393.5,372.5C 393.5,364.5 393.5,356.5 393.5,348.5C 416.167,348.5 438.833,348.5 461.5,348.5 Z"/></g>
<g><path style="opacity:1" fill="#d9c6a3" d="M 49.5,348.5 C 72.3273,347.502 95.3273,347.169 118.5,347.5C 118.5,377.833 118.5,408.167 118.5,438.5C 118.167,438.5 117.833,438.5 117.5,438.5C 117.5,416.5 117.5,394.5 117.5,372.5C 117.5,364.5 117.5,356.5 117.5,348.5C 94.8333,348.5 72.1667,348.5 49.5,348.5 Z"/></g>
<g><path style="opacity:1" fill="#d9c6a3" d="M 392.5,347.5 C 415.673,347.169 438.673,347.502 461.5,348.5C 438.833,348.5 416.167,348.5 393.5,348.5C 393.5,356.5 393.5,364.5 393.5,372.5C 393.5,394.5 393.5,416.5 393.5,438.5C 393.167,438.5 392.833,438.5 392.5,438.5C 392.5,408.167 392.5,377.833 392.5,347.5 Z"/></g>
<g><path style="opacity:0.996" fill="#ffdf7c" d="M 49.5,372.5 C 72.1667,372.5 94.8333,372.5 117.5,372.5C 117.5,394.5 117.5,416.5 117.5,438.5C 94.8333,438.5 72.1667,438.5 49.5,438.5C 49.5,416.5 49.5,394.5 49.5,372.5 Z"/></g>
<g><path style="opacity:1" fill="#fedf7c" d="M 221.5,372.5 C 244.167,372.5 266.833,372.5 289.5,372.5C 289.5,394.5 289.5,416.5 289.5,438.5C 266.833,438.5 244.167,438.5 221.5,438.5C 221.5,416.5 221.5,394.5 221.5,372.5 Z"/></g>
<g><path style="opacity:0.996" fill="#ffdf7c" d="M 393.5,372.5 C 416.167,372.5 438.833,372.5 461.5,372.5C 461.5,394.5 461.5,416.5 461.5,438.5C 438.833,438.5 416.167,438.5 393.5,438.5C 393.5,416.5 393.5,394.5 393.5,372.5 Z"/></g>
<g><path style="opacity:0.993" fill="#ebe9eb" d="M 49.5,438.5 C 72.1667,438.5 94.8333,438.5 117.5,438.5C 117.833,438.5 118.167,438.5 118.5,438.5C 124.509,438.334 130.509,438.501 136.5,439C 137.333,439.833 138.167,440.667 139,441.5C 139.5,451.828 139.666,462.161 139.5,472.5C 101.996,472.832 64.6629,472.498 27.5,471.5C 27.0471,460.73 27.5471,450.063 29,439.5C 35.7445,438.521 42.5778,438.188 49.5,438.5 Z"/></g>
<g><path style="opacity:0.993" fill="#ebe9eb" d="M 392.5,438.5 C 392.833,438.5 393.167,438.5 393.5,438.5C 416.167,438.5 438.833,438.5 461.5,438.5C 468.422,438.188 475.256,438.521 482,439.5C 483.453,450.063 483.953,460.73 483.5,471.5C 446.337,472.498 409.004,472.832 371.5,472.5C 371.334,462.161 371.5,451.828 372,441.5C 372.833,440.667 373.667,439.833 374.5,439C 380.491,438.501 386.491,438.334 392.5,438.5 Z"/></g>
<g><path style="opacity:1" fill="#ebe9eb" d="M 221.5,438.5 C 244.167,438.5 266.833,438.5 289.5,438.5C 295.842,438.334 302.175,438.5 308.5,439C 309.333,439.833 310.167,440.667 311,441.5C 311.5,451.828 311.666,462.161 311.5,472.5C 274.167,472.5 236.833,472.5 199.5,472.5C 199.334,462.161 199.5,451.828 200,441.5C 200.833,440.667 201.667,439.833 202.5,439C 208.825,438.5 215.158,438.334 221.5,438.5 Z"/></g>
<g><path style="opacity:0.991" fill="#9fd3fe" d="M 27.5,471.5 C 64.6629,472.498 101.996,472.832 139.5,472.5C 159.5,472.5 179.5,472.5 199.5,472.5C 236.833,472.5 274.167,472.5 311.5,472.5C 331.5,472.5 351.5,472.5 371.5,472.5C 409.004,472.832 446.337,472.498 483.5,471.5C 491.507,471.334 499.507,471.5 507.5,472C 508.901,472.41 510.234,472.91 511.5,473.5C 511.5,485.167 511.5,496.833 511.5,508.5C 510.711,508.783 510.044,509.283 509.5,510C 340.167,510.667 170.833,510.667 1.5,510C 0.955796,509.283 0.28913,508.783 -0.5,508.5C -0.5,496.833 -0.5,485.167 -0.5,473.5C 0.765972,472.91 2.0993,472.41 3.5,472C 11.4931,471.5 19.4931,471.334 27.5,471.5 Z"/></g>
</svg>
