<?xml version="1.0" encoding="UTF-8"?>
<!DOCTYPE svg PUBLIC "-//W3C//DTD SVG 1.1//EN" "http://www.w3.org/Graphics/SVG/1.1/DTD/svg11.dtd">
<svg xmlns="http://www.w3.org/2000/svg" version="1.1" width="512px" height="512px" style="shape-rendering:geometricPrecision; text-rendering:geometricPrecision; image-rendering:optimizeQuality; fill-rule:evenodd; clip-rule:evenodd" xmlns:xlink="http://www.w3.org/1999/xlink">
<g><path style="opacity:0.999" fill="#039ee1" d="M 417.5,-0.5 C 421.833,-0.5 426.167,-0.5 430.5,-0.5C 445.754,7.44101 449.254,19.1077 441,34.5C 432.656,42.7948 423.156,44.4614 412.5,39.5C 408.37,35.7126 405.036,31.3793 402.5,26.5C 401.057,13.7036 406.057,4.70362 417.5,-0.5 Z"/></g>
<g><path style="opacity:0.921" fill="#e3e9f7" d="M 402.5,26.5 C 405.036,31.3793 408.37,35.7126 412.5,39.5C 385.872,60.489 359.206,81.489 332.5,102.5C 330.916,98.2546 328.249,94.9212 324.5,92.5C 323.833,91.5 323.167,90.5 322.5,89.5C 349.206,68.489 375.872,47.489 402.5,26.5 Z"/></g>
<g><path style="opacity:1" fill="#5fbf32" d="M 322.5,89.5 C 323.167,90.5 323.833,91.5 324.5,92.5C 316.559,98.7705 314.392,106.771 318,116.5C 319.611,119.938 321.777,122.938 324.5,125.5C 317.728,130.183 310.394,131.183 302.5,128.5C 298.5,125.167 294.833,121.5 291.5,117.5C 287.354,99.7731 294.187,89.4398 312,86.5C 315.708,86.9378 319.208,87.9378 322.5,89.5 Z"/></g>
<g><path style="opacity:0.962" fill="#6fd744" d="M 324.5,92.5 C 328.249,94.9212 330.916,98.2546 332.5,102.5C 334.573,111.899 331.906,119.566 324.5,125.5C 321.777,122.938 319.611,119.938 318,116.5C 314.392,106.771 316.559,98.7705 324.5,92.5 Z"/></g>
<g><path style="opacity:0.916" fill="#e3e9f7" d="M 291.5,117.5 C 294.833,121.5 298.5,125.167 302.5,128.5C 275.14,156.527 247.473,184.194 219.5,211.5C 217.576,207.906 214.91,204.906 211.5,202.5C 210.306,201.728 209.306,200.728 208.5,199.5C 235.529,171.471 263.196,144.137 291.5,117.5 Z"/></g>
<g><path style="opacity:1" fill="#e54a4a" d="M 100.5,145.5 C 91.901,152.478 89.7344,161.145 94,171.5C 95.7218,174.363 97.5552,177.03 99.5,179.5C 88.0911,186.048 77.9244,184.382 69,174.5C 62.4663,160.772 65.6329,149.939 78.5,142C 83.0947,140.607 87.7613,140.274 92.5,141C 95.6844,141.754 98.3511,143.254 100.5,145.5 Z"/></g>
<g><path style="opacity:0.975" fill="#f15c5c" d="M 100.5,145.5 C 106.864,150.573 109.53,157.24 108.5,165.5C 106.876,170.746 104.21,175.412 100.5,179.5C 100.167,179.5 99.8333,179.5 99.5,179.5C 97.5552,177.03 95.7218,174.363 94,171.5C 89.7344,161.145 91.901,152.478 100.5,145.5 Z"/></g>
<g><path style="opacity:0.992" fill="#00aaf0" d="M 403.5,151.5 C 427.169,151.333 450.836,151.5 474.5,152C 477.232,152.398 479.065,153.898 480,156.5C 480.5,269.5 480.667,382.5 480.5,495.5C 454.833,495.5 429.167,495.5 403.5,495.5C 403.5,380.833 403.5,266.167 403.5,151.5 Z"/></g>
<g><path style="opacity:1" fill="#039adc" d="M 403.5,151.5 C 403.5,266.167 403.5,380.833 403.5,495.5C 429.167,495.5 454.833,495.5 480.5,495.5C 443.004,496.498 405.337,496.832 367.5,496.5C 367.5,496.167 367.5,495.833 367.5,495.5C 367.5,410.167 367.5,324.833 367.5,239.5C 367.333,211.498 367.5,183.498 368,155.5C 369.319,153.513 371.152,152.346 373.5,152C 383.494,151.5 393.494,151.334 403.5,151.5 Z"/></g>
<g><path style="opacity:0.922" fill="#e4e9f7" d="M 108.5,165.5 C 134.146,177.657 159.48,190.323 184.5,203.5C 181.234,207.747 178.901,212.414 177.5,217.5C 151.706,205.103 126.039,192.436 100.5,179.5C 104.21,175.412 106.876,170.746 108.5,165.5 Z"/></g>
<g><path style="opacity:1" fill="#feb644" d="M 208.5,199.5 C 209.306,200.728 210.306,201.728 211.5,202.5C 204.531,209.911 202.698,218.577 206,228.5C 207.274,231.936 209.441,234.603 212.5,236.5C 204.646,242.516 196.312,243.016 187.5,238C 180.643,232.952 177.31,226.119 177.5,217.5C 178.901,212.414 181.234,207.747 184.5,203.5C 191.81,198.551 199.81,197.218 208.5,199.5 Z"/></g>
<g><path style="opacity:0.983" fill="#fec850" d="M 211.5,202.5 C 214.91,204.906 217.576,207.906 219.5,211.5C 222.79,221.448 220.457,229.782 212.5,236.5C 209.441,234.603 207.274,231.936 206,228.5C 202.698,218.577 204.531,209.911 211.5,202.5 Z"/></g>
<g><path style="opacity:0.998" fill="#6ed743" d="M 259.5,240.5 C 295.329,239.502 331.329,239.168 367.5,239.5C 367.5,324.833 367.5,410.167 367.5,495.5C 341.833,495.5 316.167,495.5 290.5,495.5C 290.5,410.5 290.5,325.5 290.5,240.5C 280.167,240.5 269.833,240.5 259.5,240.5 Z"/></g>
<g><path style="opacity:1" fill="#5fbf32" d="M 259.5,240.5 C 269.833,240.5 280.167,240.5 290.5,240.5C 290.5,325.5 290.5,410.5 290.5,495.5C 316.167,495.5 341.833,495.5 367.5,495.5C 367.5,495.833 367.5,496.167 367.5,496.5C 330.167,496.5 292.833,496.5 255.5,496.5C 255.5,447.833 255.5,399.167 255.5,350.5C 255.333,314.832 255.5,279.165 256,243.5C 256.72,241.944 257.887,240.944 259.5,240.5 Z"/></g>
<g><path style="opacity:0.998" fill="#f15c5b" d="M 66.5,293.5 C 91.5896,293.019 116.59,293.519 141.5,295C 142.126,295.75 142.626,296.584 143,297.5C 143.5,315.164 143.667,332.83 143.5,350.5C 143.5,350.833 143.5,351.167 143.5,351.5C 143.5,399.5 143.5,447.5 143.5,495.5C 143.5,495.833 143.5,496.167 143.5,496.5C 105.663,496.832 67.9963,496.498 30.5,495.5C 42.5,495.5 54.5,495.5 66.5,495.5C 66.5,428.167 66.5,360.833 66.5,293.5 Z"/></g>
<g><path style="opacity:1" fill="#e54a4a" d="M 66.5,293.5 C 66.5,360.833 66.5,428.167 66.5,495.5C 54.5,495.5 42.5,495.5 30.5,495.5C 30.3333,429.832 30.5,364.166 31,298.5C 31.7845,296.714 32.9512,295.214 34.5,294C 45.1615,293.5 55.8281,293.333 66.5,293.5 Z"/></g>
<g><path style="opacity:0.995" fill="#fec750" d="M 143.5,351.5 C 143.5,351.167 143.5,350.833 143.5,350.5C 180.833,350.5 218.167,350.5 255.5,350.5C 255.5,399.167 255.5,447.833 255.5,496.5C 218.167,496.5 180.833,496.5 143.5,496.5C 143.5,496.167 143.5,495.833 143.5,495.5C 155.167,495.5 166.833,495.5 178.5,495.5C 178.5,447.5 178.5,399.5 178.5,351.5C 166.833,351.5 155.167,351.5 143.5,351.5 Z"/></g>
<g><path style="opacity:1" fill="#fdb643" d="M 143.5,351.5 C 155.167,351.5 166.833,351.5 178.5,351.5C 178.5,399.5 178.5,447.5 178.5,495.5C 166.833,495.5 155.167,495.5 143.5,495.5C 143.5,447.5 143.5,399.5 143.5,351.5 Z"/></g>
<g><path style="opacity:0.994" fill="#6f7486" d="M 30.5,495.5 C 67.9963,496.498 105.663,496.832 143.5,496.5C 180.833,496.5 218.167,496.5 255.5,496.5C 292.833,496.5 330.167,496.5 367.5,496.5C 405.337,496.832 443.004,496.498 480.5,495.5C 486.262,495.149 491.928,495.649 497.5,497C 502.605,502.115 502.272,506.948 496.5,511.5C 335.833,511.5 175.167,511.5 14.5,511.5C 10.7593,508.444 9.59267,504.444 11,499.5C 12.3189,497.513 14.1523,496.346 16.5,496C 21.1548,495.501 25.8215,495.334 30.5,495.5 Z"/></g>
</svg>
