<?xml version="1.0" encoding="UTF-8"?>
<!DOCTYPE svg PUBLIC "-//W3C//DTD SVG 1.1//EN" "http://www.w3.org/Graphics/SVG/1.1/DTD/svg11.dtd">
<svg xmlns="http://www.w3.org/2000/svg" version="1.1" width="512px" height="512px" style="shape-rendering:geometricPrecision; text-rendering:geometricPrecision; image-rendering:optimizeQuality; fill-rule:evenodd; clip-rule:evenodd" xmlns:xlink="http://www.w3.org/1999/xlink">
<g><path style="opacity:1" fill="#fdbc21" d="M 372.5,24.5 C 373.598,25.397 373.598,26.2303 372.5,27C 322.962,58.4471 276.296,93.7805 232.5,133C 225.297,140.035 218.297,147.202 211.5,154.5C 180.39,172.226 149.057,189.726 117.5,207C 99.3287,207.168 81.3287,207.668 63.5,208.5C 53.8907,209.469 46.224,213.803 40.5,221.5C 36.6935,226.118 34.1935,231.451 33,237.5C 32.5002,248.495 32.3335,259.495 32.5,270.5C 25.3845,259.938 19.5512,248.605 15,236.5C 12.24,221.874 16.4066,209.708 27.5,200C 130.167,143.333 232.833,86.6667 335.5,30C 347.034,22.356 359.368,20.5227 372.5,24.5 Z"/></g>
<g><path style="opacity:1" fill="#fed374" d="M 372.5,24.5 C 380.27,27.4286 386.437,32.4286 391,39.5C 423.424,98.4075 455.591,157.407 487.5,216.5C 492.291,232.293 488.625,245.793 476.5,257C 470.434,261.032 464.101,264.532 457.5,267.5C 457.666,257.161 457.5,246.828 457,236.5C 452.711,220.709 442.545,211.376 426.5,208.5C 361.002,207.501 295.335,207.168 229.5,207.5C 286.61,175.441 343.943,143.608 401.5,112C 407.266,106.611 407.932,100.777 403.5,94.5C 399.281,85.7297 394.781,77.063 390,68.5C 386.605,64.813 382.438,63.313 377.5,64C 322.273,94.4454 266.939,124.612 211.5,154.5C 218.297,147.202 225.297,140.035 232.5,133C 276.296,93.7805 322.962,58.4471 372.5,27C 373.598,26.2303 373.598,25.397 372.5,24.5 Z"/></g>
<g><path style="opacity:1" fill="#4d5e77" d="M 403.5,94.5 C 403.57,101.609 400.236,106.443 393.5,109C 333.673,141.413 274.006,174.079 214.5,207C 219.489,207.499 224.489,207.666 229.5,207.5C 295.335,207.168 361.002,207.501 426.5,208.5C 305.5,208.5 184.5,208.5 63.5,208.5C 81.3287,207.668 99.3287,207.168 117.5,207C 149.057,189.726 180.39,172.226 211.5,154.5C 266.939,124.612 322.273,94.4454 377.5,64C 382.438,63.313 386.605,64.813 390,68.5C 394.781,77.063 399.281,85.7297 403.5,94.5 Z"/></g>
<g><path style="opacity:1" fill="#212c44" d="M 403.5,94.5 C 407.932,100.777 407.266,106.611 401.5,112C 343.943,143.608 286.61,175.441 229.5,207.5C 224.489,207.666 219.489,207.499 214.5,207C 274.006,174.079 333.673,141.413 393.5,109C 400.236,106.443 403.57,101.609 403.5,94.5 Z"/></g>
<g><path style="opacity:1" fill="#fffcf5" d="M 413.5,124.5 C 429.678,144.52 442.512,166.52 452,190.5C 436.368,170.25 423.534,148.25 413.5,124.5 Z"/></g>
<g><path style="opacity:1" fill="#fffaf1" d="M 174.5,147.5 C 176.379,147.393 176.712,147.893 175.5,149C 154.325,164.095 131.991,177.429 108.5,189C 107.5,189.667 106.5,189.667 105.5,189C 127.117,172.886 150.117,159.052 174.5,147.5 Z"/></g>
<g><path style="opacity:1" fill="#5094fe" d="M 63.5,208.5 C 184.5,208.5 305.5,208.5 426.5,208.5C 442.545,211.376 452.711,220.709 457,236.5C 457.5,246.828 457.666,257.161 457.5,267.5C 457.5,273.167 457.5,278.833 457.5,284.5C 457.5,335.167 457.5,385.833 457.5,436.5C 452.115,408.19 440.282,382.857 422,360.5C 399.316,334.135 372.816,312.635 342.5,296C 291.549,269.572 237.882,250.905 181.5,240C 134.695,231.194 87.6953,225.027 40.5,221.5C 46.224,213.803 53.8907,209.469 63.5,208.5 Z"/></g>
<g><path style="opacity:0.978" fill="#febc1f" d="M 487.5,216.5 C 496.847,228.524 499.014,241.858 494,256.5C 491.646,261.858 488.146,266.358 483.5,270C 474.967,275.099 466.301,279.932 457.5,284.5C 457.5,278.833 457.5,273.167 457.5,267.5C 464.101,264.532 470.434,261.032 476.5,257C 488.625,245.793 492.291,232.293 487.5,216.5 Z"/></g>
<g><path style="opacity:1" fill="#57b2fd" d="M 40.5,221.5 C 87.6953,225.027 134.695,231.194 181.5,240C 237.882,250.905 291.549,269.572 342.5,296C 372.816,312.635 399.316,334.135 422,360.5C 440.282,382.857 452.115,408.19 457.5,436.5C 457.5,439.167 457.5,441.833 457.5,444.5C 453.891,461.273 443.558,471.107 426.5,474C 305.167,474.667 183.833,474.667 62.5,474C 46.2468,469.914 36.2468,459.747 32.5,443.5C 32.5,385.833 32.5,328.167 32.5,270.5C 32.3335,259.495 32.5002,248.495 33,237.5C 34.1935,231.451 36.6935,226.118 40.5,221.5 Z"/></g>
<g><path style="opacity:1" fill="#fdd376" d="M 97.5,249.5 C 97.5,258.833 97.5,268.167 97.5,277.5C 85.1667,277.5 72.8333,277.5 60.5,277.5C 60.3339,271.824 60.5006,266.157 61,260.5C 63.2563,255.243 67.0896,251.743 72.5,250C 80.8267,249.5 89.16,249.334 97.5,249.5 Z"/></g>
<g><path style="opacity:1" fill="#fdbc23" d="M 97.5,249.5 C 99.8333,249.5 102.167,249.5 104.5,249.5C 104.5,258.833 104.5,268.167 104.5,277.5C 120.167,277.5 135.833,277.5 151.5,277.5C 151.5,280.167 151.5,282.833 151.5,285.5C 143.5,285.5 135.5,285.5 127.5,285.5C 127.5,294.5 127.5,303.5 127.5,312.5C 132.93,312.839 138.264,312.339 143.5,311C 147.505,308.839 150.171,305.672 151.5,301.5C 151.5,302.5 151.5,303.5 151.5,304.5C 150.496,311.004 146.829,315.171 140.5,317C 117.167,317.667 93.8333,317.667 70.5,317C 63.2163,313.938 59.883,308.438 60.5,300.5C 63.7893,309.738 70.456,313.738 80.5,312.5C 80.5,303.167 80.5,293.833 80.5,284.5C 73.8333,284.5 67.1667,284.5 60.5,284.5C 60.5,282.167 60.5,279.833 60.5,277.5C 72.8333,277.5 85.1667,277.5 97.5,277.5C 97.5,268.167 97.5,258.833 97.5,249.5 Z"/></g>
<g><path style="opacity:1" fill="#fbd378" d="M 104.5,249.5 C 115.838,249.333 127.172,249.5 138.5,250C 147.531,252.362 152.031,258.195 152,267.5C 152.827,280.007 152.66,292.34 151.5,304.5C 151.5,303.5 151.5,302.5 151.5,301.5C 151.5,296.167 151.5,290.833 151.5,285.5C 151.5,282.833 151.5,280.167 151.5,277.5C 135.833,277.5 120.167,277.5 104.5,277.5C 104.5,268.167 104.5,258.833 104.5,249.5 Z"/></g>
<g><path style="opacity:1" fill="#fcfdff" d="M 349.5,261.5 C 374.836,261.333 400.169,261.5 425.5,262C 429.79,264.531 430.623,268.031 428,272.5C 427.25,273.126 426.416,273.626 425.5,274C 400.5,274.667 375.5,274.667 350.5,274C 346.708,271.947 345.542,268.781 347,264.5C 348.045,263.627 348.878,262.627 349.5,261.5 Z"/></g>
<g><path style="opacity:1" fill="#ffd373" d="M 60.5,284.5 C 67.1667,284.5 73.8333,284.5 80.5,284.5C 80.5,293.833 80.5,303.167 80.5,312.5C 70.456,313.738 63.7893,309.738 60.5,300.5C 60.5,295.167 60.5,289.833 60.5,284.5 Z"/></g>
<g><path style="opacity:1" fill="#ffd373" d="M 87.5,284.5 C 98.1667,284.5 108.833,284.5 119.5,284.5C 119.5,293.833 119.5,303.167 119.5,312.5C 108.833,312.5 98.1667,312.5 87.5,312.5C 87.5,303.167 87.5,293.833 87.5,284.5 Z"/></g>
<g><path style="opacity:1" fill="#ffd374" d="M 151.5,285.5 C 151.5,290.833 151.5,296.167 151.5,301.5C 150.171,305.672 147.505,308.839 143.5,311C 138.264,312.339 132.93,312.839 127.5,312.5C 127.5,303.5 127.5,294.5 127.5,285.5C 135.5,285.5 143.5,285.5 151.5,285.5 Z"/></g>
<g><path style="opacity:1" fill="#fbfcff" d="M 379.5,289.5 C 394.837,289.333 410.17,289.5 425.5,290C 429.79,292.531 430.623,296.031 428,300.5C 427.25,301.126 426.416,301.626 425.5,302C 410.5,302.667 395.5,302.667 380.5,302C 375.624,298.231 375.29,294.064 379.5,289.5 Z"/></g>
<g><path style="opacity:1" fill="#fcfdfe" d="M 122.5,408.5 C 123.481,416.673 120.148,422.173 112.5,425C 99.1667,425.667 85.8333,425.667 72.5,425C 67.2041,423.853 63.2041,421.02 60.5,416.5C 59.2362,407.862 62.5695,401.695 70.5,398C 84.1667,397.333 97.8333,397.333 111.5,398C 116.984,399.651 120.65,403.151 122.5,408.5 Z"/></g>
<g><path style="opacity:1" fill="#fcfdfe" d="M 225.5,414.5 C 223.682,419.816 220.016,423.316 214.5,425C 207.833,425.167 201.167,425.333 194.5,425.5C 186.759,425.616 179.093,425.116 171.5,424C 167.006,422.129 164.006,418.962 162.5,414.5C 161.873,406.585 165.206,401.085 172.5,398C 186.167,397.333 199.833,397.333 213.5,398C 221.793,400.43 225.793,405.93 225.5,414.5 Z"/></g>
<g><path style="opacity:1" fill="#fcfdfe" d="M 327.5,416.5 C 324.796,421.02 320.796,423.853 315.5,425C 302.5,425.667 289.5,425.667 276.5,425C 268.214,422.552 264.547,417.052 265.5,408.5C 266.572,402.927 269.905,399.427 275.5,398C 289.167,397.333 302.833,397.333 316.5,398C 325.157,401.141 328.824,407.307 327.5,416.5 Z"/></g>
<g><path style="opacity:1" fill="#fdfefe" d="M 429.5,416.5 C 427.277,419.886 424.277,422.386 420.5,424C 405.833,424.667 391.167,424.667 376.5,424C 372.7,422.358 369.7,419.858 367.5,416.5C 365.749,407.498 369.082,401.331 377.5,398C 391.167,397.333 404.833,397.333 418.5,398C 427.184,401.202 430.85,407.369 429.5,416.5 Z"/></g>
<g><path style="opacity:1" fill="#dee5f0" d="M 122.5,408.5 C 124.049,414.349 123.215,420.015 120,425.5C 118.269,427.617 116.102,429.117 113.5,430C 99.1667,430.667 84.8333,430.667 70.5,430C 64.268,427.607 60.9347,423.107 60.5,416.5C 63.2041,421.02 67.2041,423.853 72.5,425C 85.8333,425.667 99.1667,425.667 112.5,425C 120.148,422.173 123.481,416.673 122.5,408.5 Z"/></g>
<g><path style="opacity:1" fill="#dee5f0" d="M 265.5,408.5 C 264.547,417.052 268.214,422.552 276.5,425C 289.5,425.667 302.5,425.667 315.5,425C 320.796,423.853 324.796,421.02 327.5,416.5C 327.049,423.119 323.716,427.619 317.5,430C 303.167,430.667 288.833,430.667 274.5,430C 265.778,425.216 262.778,418.049 265.5,408.5 Z"/></g>
<g><path style="opacity:1" fill="#dee5f0" d="M 162.5,414.5 C 164.006,418.962 167.006,422.129 171.5,424C 179.093,425.116 186.759,425.616 194.5,425.5C 201.167,425.333 207.833,425.167 214.5,425C 220.016,423.316 223.682,419.816 225.5,414.5C 225.81,422.053 222.476,427.22 215.5,430C 201.167,430.667 186.833,430.667 172.5,430C 165.51,427.186 162.177,422.019 162.5,414.5 Z"/></g>
<g><path style="opacity:1" fill="#e1e6f1" d="M 367.5,416.5 C 369.7,419.858 372.7,422.358 376.5,424C 391.167,424.667 405.833,424.667 420.5,424C 424.277,422.386 427.277,419.886 429.5,416.5C 429.203,423.263 425.87,427.763 419.5,430C 405.167,430.667 390.833,430.667 376.5,430C 370.386,427.613 367.386,423.113 367.5,416.5 Z"/></g>
<g><path style="opacity:0.993" fill="#5094ff" d="M 32.5,443.5 C 36.2468,459.747 46.2468,469.914 62.5,474C 183.833,474.667 305.167,474.667 426.5,474C 443.558,471.107 453.891,461.273 457.5,444.5C 460.243,466.549 451.243,481.049 430.5,488C 306.833,488.667 183.167,488.667 59.5,488C 38.4163,480.689 29.4163,465.855 32.5,443.5 Z"/></g>
<g><path style="opacity:1" fill="#f2f9ff" d="M 317.5,454.5 C 335.836,454.333 354.17,454.5 372.5,455C 378.884,455.242 385.218,455.908 391.5,457C 362.164,460.333 332.83,460.333 303.5,457C 308.272,456.017 312.938,455.183 317.5,454.5 Z"/></g>
</svg>
