<?xml version="1.0" encoding="UTF-8"?>
<!DOCTYPE svg PUBLIC "-//W3C//DTD SVG 1.1//EN" "http://www.w3.org/Graphics/SVG/1.1/DTD/svg11.dtd">
<svg xmlns="http://www.w3.org/2000/svg" version="1.1" width="512px" height="512px" style="shape-rendering:geometricPrecision; text-rendering:geometricPrecision; image-rendering:optimizeQuality; fill-rule:evenodd; clip-rule:evenodd" xmlns:xlink="http://www.w3.org/1999/xlink">
<g><path style="opacity:0.986" fill="#8b9efe" d="M 404.5,67.5 C 419.506,72.8308 425.173,83.4975 421.5,99.5C 313.903,98.3357 206.236,98.1691 98.5,99C 98,99.5 97.5,100 97,100.5C 96.5,124.498 96.3334,148.498 96.5,172.5C 85.8333,172.5 75.1667,172.5 64.5,172.5C 64.3334,143.831 64.5,115.165 65,86.5C 66.1611,77.0035 71.3277,70.8369 80.5,68C 188.499,67.5 296.499,67.3333 404.5,67.5 Z"/></g>
<g><path style="opacity:1" fill="#7589ed" d="M 404.5,67.5 C 415.505,67.3335 426.505,67.5002 437.5,68C 444.181,70.0133 449.014,74.18 452,80.5C 453.481,129.787 453.981,179.12 453.5,228.5C 443.013,229.494 432.346,229.828 421.5,229.5C 421.5,186.167 421.5,142.833 421.5,99.5C 425.173,83.4975 419.506,72.8308 404.5,67.5 Z"/></g>
<g><path style="opacity:1" fill="#bcf8fe" d="M 421.5,99.5 C 421.5,142.833 421.5,186.167 421.5,229.5C 415.491,229.334 409.491,229.501 403.5,230C 400.921,231.076 399.254,232.909 398.5,235.5C 397.502,258.994 397.169,282.661 397.5,306.5C 320.5,306.5 243.5,306.5 166.5,306.5C 166.667,265.165 166.5,223.832 166,182.5C 164.147,177.473 160.647,174.473 155.5,173.5C 136.007,172.503 116.34,172.17 96.5,172.5C 96.3334,148.498 96.5,124.498 97,100.5C 97.5,100 98,99.5 98.5,99C 206.236,98.1691 313.903,98.3357 421.5,99.5 Z"/></g>
<g><path style="opacity:1" fill="#feca2a" d="M 227.5,130.5 C 246.17,130.333 264.836,130.5 283.5,131C 284.308,131.308 284.975,131.808 285.5,132.5C 286.654,151.79 286.821,171.123 286,190.5C 285.5,191 285,191.5 284.5,192C 265.167,192.667 245.833,192.667 226.5,192C 226,191.5 225.5,191 225,190.5C 224.333,171.5 224.333,152.5 225,133.5C 225.698,132.309 226.531,131.309 227.5,130.5 Z"/></g>
<g><path style="opacity:0.997" fill="#fec928" d="M 64.5,172.5 C 75.1667,172.5 85.8333,172.5 96.5,172.5C 116.34,172.17 136.007,172.503 155.5,173.5C 145.828,173.334 136.161,173.5 126.5,174C 130.667,175.5 133.5,178.333 135,182.5C 135.667,266.167 135.667,349.833 135,433.5C 132.683,439.333 128.516,442.666 122.5,443.5C 84.8319,443.667 47.1652,443.5 9.5,443C 5.13051,441.787 1.79717,439.287 -0.5,435.5C -0.5,350.5 -0.5,265.5 -0.5,180.5C 1.79717,176.713 5.13051,174.213 9.5,173C 27.8303,172.5 46.1636,172.333 64.5,172.5 Z"/></g>
<g><path style="opacity:1" fill="#feb300" d="M 155.5,173.5 C 160.647,174.473 164.147,177.473 166,182.5C 166.5,223.832 166.667,265.165 166.5,306.5C 166.5,306.833 166.5,307.167 166.5,307.5C 166.5,317.833 166.5,328.167 166.5,338.5C 166.667,370.502 166.5,402.502 166,434.5C 164.402,439.099 161.235,441.932 156.5,443C 145.172,443.5 133.838,443.667 122.5,443.5C 128.516,442.666 132.683,439.333 135,433.5C 135.667,349.833 135.667,266.167 135,182.5C 133.5,178.333 130.667,175.5 126.5,174C 136.161,173.5 145.828,173.334 155.5,173.5 Z"/></g>
<g><path style="opacity:1" fill="#fe3f7b" d="M 191.5,218.5 C 234.168,218.333 276.835,218.5 319.5,219C 325.759,223.167 326.092,227.833 320.5,233C 277.167,233.667 233.833,233.667 190.5,233C 184.954,227.676 185.288,222.843 191.5,218.5 Z"/></g>
<g><path style="opacity:0.993" fill="#fe3d7a" d="M 453.5,228.5 C 459.833,228.5 466.167,228.5 472.5,228.5C 473.842,229.793 475.509,230.626 477.5,231C 478.701,231.903 479.535,233.069 480,234.5C 480.667,295.5 480.667,356.5 480,417.5C 478.64,420.023 476.807,422.023 474.5,423.5C 450.831,423.667 427.164,423.5 403.5,423C 401.714,422.215 400.214,421.049 399,419.5C 397.518,392.589 397.018,365.589 397.5,338.5C 398.494,328.347 398.828,318.014 398.5,307.5C 398.5,283.5 398.5,259.5 398.5,235.5C 399.254,232.909 400.921,231.076 403.5,230C 409.491,229.501 415.491,229.334 421.5,229.5C 432.346,229.828 443.013,229.494 453.5,228.5 Z"/></g>
<g><path style="opacity:1" fill="#eb3870" d="M 472.5,228.5 C 483.172,228.333 493.839,228.5 504.5,229C 507.585,229.53 509.918,231.03 511.5,233.5C 511.5,295.5 511.5,357.5 511.5,419.5C 509.99,420.836 508.323,422.003 506.5,423C 495.839,423.5 485.172,423.667 474.5,423.5C 476.807,422.023 478.64,420.023 480,417.5C 480.667,356.5 480.667,295.5 480,234.5C 479.535,233.069 478.701,231.903 477.5,231C 475.509,230.626 473.842,229.793 472.5,228.5 Z"/></g>
<g><path style="opacity:1" fill="#ff3f78" d="M 74.5,233.5 C 79.7419,232.271 83.5752,233.937 86,238.5C 87.4335,256.302 89.7668,273.969 93,291.5C 95.0571,285.719 97.3904,280.053 100,274.5C 100.75,273.874 101.584,273.374 102.5,273C 111.5,272.333 120.5,272.333 129.5,273C 133.212,275.513 134.378,279.013 133,283.5C 131.992,285.259 130.492,286.426 128.5,287C 122.472,287.17 116.472,287.67 110.5,288.5C 105,302.167 99.5,315.833 94,329.5C 89.3562,332.615 85.3562,331.948 82,327.5C 79.632,309.111 76.9653,290.778 74,272.5C 72,277.167 70,281.833 68,286.5C 67.2496,287.126 66.4162,287.626 65.5,288C 55.8333,288.667 46.1667,288.667 36.5,288C 31.0028,282.967 31.3362,278.3 37.5,274C 44.1915,273.831 50.8581,273.331 57.5,272.5C 62.3907,259.063 68.0574,246.063 74.5,233.5 Z"/></g>
<g><path style="opacity:1" fill="#c0f2fa" d="M 441.5,245.5 C 449.84,245.334 458.173,245.5 466.5,246C 473.466,249.846 474.133,254.513 468.5,260C 459.167,260.667 449.833,260.667 440.5,260C 435.057,254.809 435.391,249.976 441.5,245.5 Z"/></g>
<g><path style="opacity:1" fill="#fe3f7b" d="M 190.5,251.5 C 233.501,251.333 276.501,251.5 319.5,252C 325.759,256.167 326.092,260.833 320.5,266C 277.167,266.667 233.833,266.667 190.5,266C 185.214,261.169 185.214,256.335 190.5,251.5 Z"/></g>
<g><path style="opacity:1" fill="#b0cbf6" d="M 398.5,235.5 C 398.5,259.5 398.5,283.5 398.5,307.5C 321.167,307.5 243.833,307.5 166.5,307.5C 166.5,307.167 166.5,306.833 166.5,306.5C 243.5,306.5 320.5,306.5 397.5,306.5C 397.169,282.661 397.502,258.994 398.5,235.5 Z"/></g>
<g><path style="opacity:0.988" fill="#8c9dfe" d="M 166.5,307.5 C 243.833,307.5 321.167,307.5 398.5,307.5C 398.828,318.014 398.494,328.347 397.5,338.5C 364.167,338.5 330.833,338.5 297.5,338.5C 297.167,338.5 296.833,338.5 296.5,338.5C 268.931,337.172 241.264,337.172 213.5,338.5C 197.833,338.5 182.167,338.5 166.5,338.5C 166.5,328.167 166.5,317.833 166.5,307.5 Z"/></g>
<g><path style="opacity:0.985" fill="#7488ed" d="M 296.5,338.5 C 286.167,338.5 275.833,338.5 265.5,338.5C 265.5,350.833 265.5,363.167 265.5,375.5C 248.167,375.5 230.833,375.5 213.5,375.5C 213.5,363.167 213.5,350.833 213.5,338.5C 241.264,337.172 268.931,337.172 296.5,338.5 Z"/></g>
<g><path style="opacity:1" fill="#6073d1" d="M 296.5,338.5 C 296.833,338.5 297.167,338.5 297.5,338.5C 297.5,350.833 297.5,363.167 297.5,375.5C 286.833,375.5 276.167,375.5 265.5,375.5C 265.5,363.167 265.5,350.833 265.5,338.5C 275.833,338.5 286.167,338.5 296.5,338.5 Z"/></g>
<g><path style="opacity:0.942" fill="#fd3d7a" d="M 213.5,375.5 C 230.833,375.5 248.167,375.5 265.5,375.5C 276.167,375.5 286.833,375.5 297.5,375.5C 307.506,375.334 317.506,375.5 327.5,376C 332.343,380.38 332.677,385.046 328.5,390C 304.227,391.153 279.894,391.653 255.5,391.5C 231.106,391.653 206.773,391.153 182.5,390C 178.323,385.046 178.657,380.38 183.5,376C 193.494,375.5 203.494,375.334 213.5,375.5 Z"/></g>
<g><path style="opacity:1" fill="#8e9efb" d="M 53.5,403.5 C 72.8362,403.333 92.1695,403.5 111.5,404C 118.249,409.047 117.916,413.714 110.5,418C 91.8333,418.667 73.1667,418.667 54.5,418C 48.1923,413.615 47.859,408.782 53.5,403.5 Z"/></g>
</svg>
