<?xml version="1.0" encoding="UTF-8"?>
<!DOCTYPE svg PUBLIC "-//W3C//DTD SVG 1.1//EN" "http://www.w3.org/Graphics/SVG/1.1/DTD/svg11.dtd">
<svg xmlns="http://www.w3.org/2000/svg" version="1.1" width="512px" height="512px" style="shape-rendering:geometricPrecision; text-rendering:geometricPrecision; image-rendering:optimizeQuality; fill-rule:evenodd; clip-rule:evenodd" xmlns:xlink="http://www.w3.org/1999/xlink">
<g><path style="opacity:0.991" fill="#badefa" d="M 511.5,251.5 C 511.5,261.167 511.5,270.833 511.5,280.5C 503.485,328.657 476.485,361.157 430.5,378C 414.851,382.783 398.851,384.616 382.5,383.5C 384.698,331.405 365.031,289.905 323.5,259C 281.928,232.015 237.928,227.349 191.5,245C 133.518,272.848 105.518,319.014 107.5,383.5C 48.7023,384.994 12.7023,357.327 -0.5,300.5C -0.5,291.5 -0.5,282.5 -0.5,273.5C 6.08851,238.175 25.7552,213.009 58.5,198C 66.8553,194.578 75.522,192.411 84.5,191.5C 83.8888,116.34 117.555,63.1733 185.5,32C 241.228,12.2 293.228,19.2 341.5,53C 373.265,77.3474 393.265,109.181 401.5,148.5C 445.196,152.393 477.696,173.393 499,211.5C 505.321,224.289 509.488,237.622 511.5,251.5 Z"/></g>
<g><path style="opacity:0.989" fill="#4caf50" d="M 237.5,254.5 C 290.998,254.232 329.498,277.898 353,325.5C 369.765,369.392 364.098,410.059 336,447.5C 297.568,488.566 251.734,499.733 198.5,481C 145.085,454.351 121.919,411.184 129,351.5C 142.726,293.936 178.892,261.602 237.5,254.5 Z"/></g>
<g><path style="opacity:1" fill="#f8f9f8" d="M 240.5,298.5 C 247.918,296.792 252.751,299.459 255,306.5C 255.333,341.167 255.667,375.833 256,410.5C 264.863,401.303 274.03,392.469 283.5,384C 291.765,382.455 296.432,385.789 297.5,394C 297.74,396.891 296.907,399.391 295,401.5C 280.5,416 266,430.5 251.5,445C 247.129,448.184 242.795,448.184 238.5,445C 223.667,430.167 208.833,415.333 194,400.5C 190.172,394.632 191.006,389.465 196.5,385C 199.702,383.517 203.036,383.183 206.5,384C 215.97,392.469 225.137,401.303 234,410.5C 234.333,375.167 234.667,339.833 235,304.5C 236.36,301.977 238.193,299.977 240.5,298.5 Z"/></g>
</svg>
