<?xml version="1.0" encoding="UTF-8"?>
<!DOCTYPE svg PUBLIC "-//W3C//DTD SVG 1.1//EN" "http://www.w3.org/Graphics/SVG/1.1/DTD/svg11.dtd">
<svg xmlns="http://www.w3.org/2000/svg" version="1.1" width="512px" height="512px" style="shape-rendering:geometricPrecision; text-rendering:geometricPrecision; image-rendering:optimizeQuality; fill-rule:evenodd; clip-rule:evenodd" xmlns:xlink="http://www.w3.org/1999/xlink">
<g><path style="opacity:0.995" fill="#f3693c" d="M 300.5,-0.5 C 320.5,-0.5 340.5,-0.5 360.5,-0.5C 407.978,7.46899 440.811,33.8023 459,78.5C 463.765,91.7593 465.932,105.426 465.5,119.5C 480.833,119.5 496.167,119.5 511.5,119.5C 511.5,120.167 511.5,120.833 511.5,121.5C 486.175,154.137 460.842,186.803 435.5,219.5C 410.147,186.808 385.147,153.808 360.5,120.5C 375.152,119.501 389.818,119.167 404.5,119.5C 402.651,88.4772 386.651,68.9772 356.5,61C 337.862,59.6455 319.196,59.1455 300.5,59.5C 300.5,39.5 300.5,19.5 300.5,-0.5 Z"/></g>
<g><path style="opacity:1" fill="#fed898" d="M -0.5,30.5 C 29.5,30.5 59.5,30.5 89.5,30.5C 89.5,60.5 89.5,90.5 89.5,120.5C 94.5,120.5 99.5,120.5 104.5,120.5C 104.5,160.5 104.5,200.5 104.5,240.5C 69.5,240.5 34.5,240.5 -0.5,240.5C -0.5,170.5 -0.5,100.5 -0.5,30.5 Z"/></g>
<g><path style="opacity:1" fill="#e3a045" d="M 89.5,30.5 C 94.5,30.5 99.5,30.5 104.5,30.5C 104.5,60.5 104.5,90.5 104.5,120.5C 99.5,120.5 94.5,120.5 89.5,120.5C 89.5,90.5 89.5,60.5 89.5,30.5 Z"/></g>
<g><path style="opacity:1" fill="#d69147" d="M 104.5,30.5 C 109.5,30.5 114.5,30.5 119.5,30.5C 119.5,60.5 119.5,90.5 119.5,120.5C 114.5,120.5 109.5,120.5 104.5,120.5C 104.5,90.5 104.5,60.5 104.5,30.5 Z"/></g>
<g><path style="opacity:1" fill="#e5b972" d="M 119.5,30.5 C 149.5,30.5 179.5,30.5 209.5,30.5C 209.5,100.5 209.5,170.5 209.5,240.5C 174.5,240.5 139.5,240.5 104.5,240.5C 104.5,200.5 104.5,160.5 104.5,120.5C 109.5,120.5 114.5,120.5 119.5,120.5C 119.5,90.5 119.5,60.5 119.5,30.5 Z"/></g>
<g><path style="opacity:1" fill="#fed898" d="M 391.5,270.5 C 391.5,300.5 391.5,330.5 391.5,360.5C 396.5,360.5 401.5,360.5 406.5,360.5C 406.5,400.5 406.5,440.5 406.5,480.5C 371.5,480.5 336.5,480.5 301.5,480.5C 301.5,410.5 301.5,340.5 301.5,270.5C 331.5,270.5 361.5,270.5 391.5,270.5 Z"/></g>
<g><path style="opacity:1" fill="#e3a045" d="M 391.5,270.5 C 396.5,270.5 401.5,270.5 406.5,270.5C 406.5,300.5 406.5,330.5 406.5,360.5C 401.5,360.5 396.5,360.5 391.5,360.5C 391.5,330.5 391.5,300.5 391.5,270.5 Z"/></g>
<g><path style="opacity:1" fill="#d69147" d="M 406.5,270.5 C 411.5,270.5 416.5,270.5 421.5,270.5C 421.5,300.5 421.5,330.5 421.5,360.5C 416.5,360.5 411.5,360.5 406.5,360.5C 406.5,330.5 406.5,300.5 406.5,270.5 Z"/></g>
<g><path style="opacity:1" fill="#e5b972" d="M 421.5,270.5 C 451.5,270.5 481.5,270.5 511.5,270.5C 511.5,340.5 511.5,410.5 511.5,480.5C 476.5,480.5 441.5,480.5 406.5,480.5C 406.5,440.5 406.5,400.5 406.5,360.5C 411.5,360.5 416.5,360.5 421.5,360.5C 421.5,330.5 421.5,300.5 421.5,270.5 Z"/></g>
<g><path style="opacity:0.994" fill="#f3693c" d="M 210.5,511.5 C 190.5,511.5 170.5,511.5 150.5,511.5C 103.022,503.531 70.1889,477.198 52,432.5C 47.2345,419.241 45.0679,405.574 45.5,391.5C 30.1667,391.5 14.8333,391.5 -0.5,391.5C -0.5,390.833 -0.5,390.167 -0.5,389.5C 24.8246,356.863 50.158,324.197 75.5,291.5C 100.853,324.192 125.853,357.192 150.5,390.5C 135.848,391.499 121.182,391.833 106.5,391.5C 108.349,422.523 124.349,442.023 154.5,450C 173.138,451.354 191.804,451.854 210.5,451.5C 210.5,471.5 210.5,491.5 210.5,511.5 Z"/></g>
</svg>
