<?xml version="1.0" encoding="UTF-8"?>
<!DOCTYPE svg PUBLIC "-//W3C//DTD SVG 1.1//EN" "http://www.w3.org/Graphics/SVG/1.1/DTD/svg11.dtd">
<svg xmlns="http://www.w3.org/2000/svg" version="1.1" width="512px" height="512px" style="shape-rendering:geometricPrecision; text-rendering:geometricPrecision; image-rendering:optimizeQuality; fill-rule:evenodd; clip-rule:evenodd" xmlns:xlink="http://www.w3.org/1999/xlink">
<g><path style="opacity:0.996" fill="#f4dd8d" d="M 82.5,-0.5 C 91.8333,-0.5 101.167,-0.5 110.5,-0.5C 140.459,4.79955 163.792,20.1329 180.5,45.5C 187.385,58.8204 192.051,72.8204 194.5,87.5C 194.5,87.8333 194.5,88.1667 194.5,88.5C 183.753,142.41 150.919,171.41 96,175.5C 51.9344,172.974 21.601,151.308 5,110.5C 2.80194,103.108 0.968603,95.7745 -0.5,88.5C -0.5,86.5 -0.5,84.5 -0.5,82.5C 6.6055,45.4968 27.6055,19.6635 62.5,5C 69.2081,2.82607 75.8748,0.992739 82.5,-0.5 Z"/></g>
<g><path style="opacity:0.996" fill="#f4dd8d" d="M 400.5,-0.5 C 409.833,-0.5 419.167,-0.5 428.5,-0.5C 465.503,6.6055 491.337,27.6055 506,62.5C 508.174,69.2081 510.007,75.8748 511.5,82.5C 511.5,84.5 511.5,86.5 511.5,88.5C 503.253,136.915 474.919,165.748 426.5,175C 383.935,177.968 351.435,161.468 329,125.5C 323.121,113.608 318.954,101.275 316.5,88.5C 316.5,87.8333 316.5,87.1667 316.5,86.5C 319.097,71.7137 324.097,57.7137 331.5,44.5C 347.908,19.4313 370.908,4.43126 400.5,-0.5 Z"/></g>
<g><path style="opacity:1" fill="#e5a84c" d="M 92.5,31.5 C 101.487,31.1614 105.153,35.4948 103.5,44.5C 109.633,45.3158 115.133,47.6491 120,51.5C 124.229,60.959 121.062,65.1257 110.5,64C 108.691,61.7621 106.358,60.5954 103.5,60.5C 103.334,69.1731 103.5,77.8397 104,86.5C 121.717,91.6226 129.717,103.289 128,121.5C 124.837,134.662 116.837,143.329 104,147.5C 103.667,150.5 103.333,153.5 103,156.5C 99.4546,162.209 95.1213,162.875 90,158.5C 88.964,155.029 88.1307,151.529 87.5,148C 78.2232,147.446 70.7232,143.613 65,136.5C 64.3288,128.841 67.8288,125.674 75.5,127C 79.3896,129.947 83.7229,131.78 88.5,132.5C 88.5,120.5 88.5,108.5 88.5,96.5C 71.1011,91.0442 64.6011,79.3775 69,61.5C 72.2632,52.0672 78.7632,46.4006 88.5,44.5C 87.5347,39.3172 88.868,34.9839 92.5,31.5 Z"/></g>
<g><path style="opacity:0.984" fill="#d75950" d="M 331.5,44.5 C 324.097,57.7137 319.097,71.7137 316.5,86.5C 275.773,72.1674 235.106,72.5007 194.5,87.5C 192.051,72.8204 187.385,58.8204 180.5,45.5C 230.692,27.2567 281.025,26.9233 331.5,44.5 Z"/></g>
<g><path style="opacity:1" fill="#e5a94d" d="M 406.5,34.5 C 424.109,31.6449 438.609,36.9783 450,50.5C 452.065,53.9597 453.565,57.6264 454.5,61.5C 454.071,66.3848 451.404,69.0514 446.5,69.5C 443.729,69.2438 441.562,67.9104 440,65.5C 434.408,52.6177 424.575,47.451 410.5,50C 402.787,51.8766 398.453,56.7099 397.5,64.5C 398.593,72.1149 401.26,79.1149 405.5,85.5C 412.476,86.3311 419.476,86.8311 426.5,87C 434.393,91.9105 434.393,96.9105 426.5,102C 421.177,102.499 415.844,102.666 410.5,102.5C 411.235,114.228 408.235,124.894 401.5,134.5C 417.823,135.333 434.156,135.833 450.5,136C 458.408,141.142 458.408,146.142 450.5,151C 428.167,151.667 405.833,151.667 383.5,151C 377.456,148.068 375.956,143.568 379,137.5C 384.399,131.7 389.066,125.367 393,118.5C 394.339,113.264 394.839,107.93 394.5,102.5C 388.824,102.666 383.157,102.499 377.5,102C 372.776,99.5647 371.276,95.7314 373,90.5C 373.833,89.6667 374.667,88.8333 375.5,88C 379.363,86.6463 383.363,86.1463 387.5,86.5C 385.904,81.5436 384.404,76.5436 383,71.5C 380.737,52.6813 388.571,40.348 406.5,34.5 Z"/></g>
<g><path style="opacity:1" fill="#f3d786" d="M 86.5,61.5 C 87.8164,64.0866 88.483,67.0866 88.5,70.5C 88.1667,73.5 87.8333,76.5 87.5,79.5C 84.3116,77.7908 82.6449,75.1241 82.5,71.5C 82.8657,67.7277 84.199,64.3943 86.5,61.5 Z"/></g>
<g><path style="opacity:0.979" fill="#edd17a" d="M -0.5,88.5 C 0.968603,95.7745 2.80194,103.108 5,110.5C 21.601,151.308 51.9344,172.974 96,175.5C 150.919,171.41 183.753,142.41 194.5,88.5C 195.662,134.037 175.996,166.87 135.5,187C 122.011,192.398 108.011,194.898 93.5,194.5C 78.3667,193.795 64.0333,189.795 50.5,182.5C 31.4614,172.627 17.2948,157.96 8,138.5C 4.42063,129.602 1.58729,120.602 -0.5,111.5C -0.5,103.833 -0.5,96.1667 -0.5,88.5 Z"/></g>
<g><path style="opacity:0.979" fill="#edd17a" d="M 316.5,88.5 C 318.954,101.275 323.121,113.608 329,125.5C 351.435,161.468 383.935,177.968 426.5,175C 474.919,165.748 503.253,136.915 511.5,88.5C 511.5,95.8333 511.5,103.167 511.5,110.5C 506.209,141.419 490.209,165.085 463.5,181.5C 449.756,188.18 435.423,192.514 420.5,194.5C 375.759,195.06 343.592,175.394 324,135.5C 318.037,120.388 315.537,104.721 316.5,88.5 Z"/></g>
<g><path style="opacity:1" fill="#f4db8a" d="M 103.5,103.5 C 109.541,105.209 112.541,109.209 112.5,115.5C 112.719,122.063 110.052,127.063 104.5,130.5C 103.502,121.525 103.168,112.525 103.5,103.5 Z"/></g>
<g><path style="opacity:0.99" fill="#4a80aa" d="M 247.5,154.5 C 298.952,153.959 333.786,177.626 352,225.5C 363.725,274.678 348.892,313.511 307.5,342C 277.767,357.682 247.101,359.682 215.5,348C 169.175,324.187 149.675,286.354 157,234.5C 169.584,187.74 199.751,161.073 247.5,154.5 Z"/></g>
<g><path style="opacity:1" fill="#a9ddfc" d="M 252.5,170.5 C 256.41,170.263 260.077,171.096 263.5,173C 275.74,184.979 283.073,199.479 285.5,216.5C 265.5,216.5 245.5,216.5 225.5,216.5C 227.848,199.971 234.848,185.804 246.5,174C 248.432,172.541 250.432,171.375 252.5,170.5 Z"/></g>
<g><path style="opacity:1" fill="#a8dcfb" d="M 221.5,177.5 C 222.239,177.369 222.906,177.536 223.5,178C 216.355,189.935 211.688,202.768 209.5,216.5C 199.828,216.666 190.161,216.5 180.5,216C 190.181,198.816 203.848,185.983 221.5,177.5 Z"/></g>
<g><path style="opacity:1" fill="#a8dcfb" d="M 287.5,176.5 C 305.908,184.904 320.242,197.904 330.5,215.5C 320.856,216.498 311.19,216.832 301.5,216.5C 299.414,202.241 294.747,188.908 287.5,176.5 Z"/></g>
<g><path style="opacity:0.989" fill="#d75950" d="M 463.5,181.5 C 467.764,195.223 470.764,209.223 472.5,223.5C 472.46,258.337 465.127,291.671 450.5,323.5C 439.008,319.735 427.342,317.402 415.5,316.5C 431.997,276.407 433.663,235.74 420.5,194.5C 435.423,192.514 449.756,188.18 463.5,181.5 Z"/></g>
<g><path style="opacity:0.987" fill="#d6584f" d="M 50.5,182.5 C 64.0333,189.795 78.3667,193.795 93.5,194.5C 80.7306,235.737 82.3973,276.404 98.5,316.5C 90.7219,316.287 83.0552,317.12 75.5,319C 68.4403,321.076 61.4403,323.243 54.5,325.5C 37.4799,278.287 36.1466,230.621 50.5,182.5 Z"/></g>
<g><path style="opacity:1" fill="#a9ddfc" d="M 173.5,232.5 C 184.5,232.5 195.5,232.5 206.5,232.5C 205.388,247.821 205.388,263.154 206.5,278.5C 195.5,278.5 184.5,278.5 173.5,278.5C 170.906,263.151 170.906,247.818 173.5,232.5 Z"/></g>
<g><path style="opacity:1" fill="#a9ddfc" d="M 222.5,232.5 C 244.833,232.5 267.167,232.5 289.5,232.5C 290.807,247.832 290.807,263.166 289.5,278.5C 267.167,278.5 244.833,278.5 222.5,278.5C 221.196,263.124 221.196,247.791 222.5,232.5 Z"/></g>
<g><path style="opacity:1" fill="#a9ddfc" d="M 304.5,232.5 C 315.5,232.5 326.5,232.5 337.5,232.5C 341.336,247.813 341.336,263.146 337.5,278.5C 326.5,278.5 315.5,278.5 304.5,278.5C 305.816,263.163 305.816,247.829 304.5,232.5 Z"/></g>
<g><path style="opacity:0.927" fill="#ca4844" d="M 472.5,223.5 C 476.023,259.171 471.69,293.837 459.5,327.5C 456.314,326.403 453.314,325.07 450.5,323.5C 465.127,291.671 472.46,258.337 472.5,223.5 Z"/></g>
<g><path style="opacity:1" fill="#a6dafa" d="M 180.5,293.5 C 190.167,293.5 199.833,293.5 209.5,293.5C 211.79,307.372 216.457,320.372 223.5,332.5C 203.983,325.669 189.649,312.669 180.5,293.5 Z"/></g>
<g><path style="opacity:1" fill="#a8dcfb" d="M 225.5,293.5 C 245.844,293.167 266.178,293.5 286.5,294.5C 283.237,307.355 278.071,319.355 271,330.5C 258.854,343.253 247.854,342.253 238,327.5C 231.75,316.916 227.584,305.583 225.5,293.5 Z"/></g>
<g><path style="opacity:1" fill="#a6dafa" d="M 301.5,293.5 C 311.19,293.168 320.856,293.502 330.5,294.5C 320.931,312.915 306.598,325.748 287.5,333C 294.444,320.671 299.11,307.504 301.5,293.5 Z"/></g>
<g><path style="opacity:0.996" fill="#f4dd8d" d="M 98.5,316.5 C 147.069,319.911 178.236,344.911 192,391.5C 193.161,397.126 193.994,402.793 194.5,408.5C 194.5,408.833 194.5,409.167 194.5,409.5C 187.007,444.162 167.34,469.329 135.5,485C 89.5031,501.627 50.6697,491.46 19,454.5C 8.86316,439.904 2.36316,423.904 -0.5,406.5C -0.5,404.167 -0.5,401.833 -0.5,399.5C 5.68604,365.791 24.0194,341.124 54.5,325.5C 61.4403,323.243 68.4403,321.076 75.5,319C 83.0552,317.12 90.7219,316.287 98.5,316.5 Z"/></g>
<g><path style="opacity:0.996" fill="#f4dd8d" d="M 415.5,316.5 C 427.342,317.402 439.008,319.735 450.5,323.5C 453.314,325.07 456.314,326.403 459.5,327.5C 488.098,343.362 505.431,367.362 511.5,399.5C 511.5,401.5 511.5,403.5 511.5,405.5C 501.435,459.878 468.768,488.878 413.5,492.5C 371.468,490.626 341.635,470.626 324,432.5C 321.37,425.688 319.37,418.688 318,411.5C 317.617,410.944 317.117,410.611 316.5,410.5C 319.429,370.113 339.095,341.28 375.5,324C 388.348,318.864 401.681,316.364 415.5,316.5 Z"/></g>
<g><path style="opacity:1" fill="#e5a84d" d="M 108.5,355.5 C 112.967,355.133 117.3,355.633 121.5,357C 124.886,360.373 125.386,364.206 123,368.5C 122.097,369.701 120.931,370.535 119.5,371C 108.175,370.499 97.5086,372.832 87.5,378C 83.0528,381.257 80.0528,385.424 78.5,390.5C 88.1724,390.334 97.8391,390.5 107.5,391C 112.224,393.435 113.724,397.269 112,402.5C 110.786,404.049 109.286,405.215 107.5,406C 96.505,406.5 85.505,406.667 74.5,406.5C 74.5,410.833 74.5,415.167 74.5,419.5C 85.8382,419.333 97.1716,419.5 108.5,420C 113.812,424.572 113.812,429.239 108.5,434C 98.5056,434.5 88.5056,434.666 78.5,434.5C 79.7499,440.483 83.0832,444.983 88.5,448C 98.588,452.855 109.255,455.188 120.5,455C 125.833,459.667 125.833,464.333 120.5,469C 105.438,470.722 91.4383,467.722 78.5,460C 69.8643,453.742 64.1977,445.408 61.5,435C 57.5,434.667 53.5,434.333 49.5,434C 44.1667,429.333 44.1667,424.667 49.5,420C 52.4816,419.502 55.4816,419.335 58.5,419.5C 58.5,415.167 58.5,410.833 58.5,406.5C 51.5423,407.846 47.209,405.18 45.5,398.5C 46.0305,395.28 47.6972,392.78 50.5,391C 54.211,390.825 57.8776,390.325 61.5,389.5C 69.9144,368.079 85.5811,356.745 108.5,355.5 Z"/></g>
<g><path style="opacity:1" fill="#e5a84c" d="M 379.5,356.5 C 383.192,355.971 386.358,356.971 389,359.5C 397.419,372.672 406.085,385.672 415,398.5C 423.775,384.726 432.942,371.226 442.5,358C 447.456,355.393 451.289,356.56 454,361.5C 454.755,364.303 454.422,366.97 453,369.5C 444.043,382.58 435.209,395.747 426.5,409C 434.167,409.333 441.833,409.667 449.5,410C 455.729,414.171 456.062,418.837 450.5,424C 441.173,424.5 431.839,424.666 422.5,424.5C 422.5,428.167 422.5,431.833 422.5,435.5C 431.173,435.334 439.84,435.5 448.5,436C 456.393,440.91 456.393,445.91 448.5,451C 439.84,451.5 431.173,451.666 422.5,451.5C 422.666,456.844 422.499,462.177 422,467.5C 417.748,473.653 413.081,473.986 408,468.5C 407.501,462.843 407.334,457.176 407.5,451.5C 398.494,451.666 389.494,451.5 380.5,451C 375.931,448.459 374.431,444.625 376,439.5C 377.214,437.951 378.714,436.785 380.5,436C 389.494,435.5 398.494,435.334 407.5,435.5C 407.5,431.833 407.5,428.167 407.5,424.5C 398.161,424.666 388.827,424.5 379.5,424C 374.188,419.428 374.188,414.761 379.5,410C 387.5,409.667 395.5,409.333 403.5,409C 393.961,395.424 384.794,381.591 376,367.5C 374.662,362.96 375.829,359.293 379.5,356.5 Z"/></g>
<g><path style="opacity:0.986" fill="#d75950" d="M 194.5,408.5 C 234.884,423.741 275.55,424.408 316.5,410.5C 316.94,419.246 317.94,427.913 319.5,436.5C 276.791,448.469 234.125,448.469 191.5,436.5C 193.154,427.588 194.154,418.588 194.5,409.5C 194.5,409.167 194.5,408.833 194.5,408.5 Z"/></g>
<g><path style="opacity:0.98" fill="#edd07a" d="M -0.5,406.5 C 2.36316,423.904 8.86316,439.904 19,454.5C 50.6697,491.46 89.5031,501.627 135.5,485C 167.34,469.329 187.007,444.162 194.5,409.5C 194.154,418.588 193.154,427.588 191.5,436.5C 189.636,442.093 187.97,447.759 186.5,453.5C 171.076,485.872 145.743,505.206 110.5,511.5C 101.167,511.5 91.8333,511.5 82.5,511.5C 37.1667,501.5 9.5,473.833 -0.5,428.5C -0.5,421.167 -0.5,413.833 -0.5,406.5 Z"/></g>
<g><path style="opacity:0.978" fill="#edd179" d="M 511.5,405.5 C 511.5,413.167 511.5,420.833 511.5,428.5C 504.394,465.503 483.394,491.337 448.5,506C 441.792,508.174 435.125,510.007 428.5,511.5C 419.167,511.5 409.833,511.5 400.5,511.5C 365.701,505.102 340.367,486.102 324.5,454.5C 323.236,448.376 321.569,442.376 319.5,436.5C 317.94,427.913 316.94,419.246 316.5,410.5C 317.117,410.611 317.617,410.944 318,411.5C 319.37,418.688 321.37,425.688 324,432.5C 341.635,470.626 371.468,490.626 413.5,492.5C 468.768,488.878 501.435,459.878 511.5,405.5 Z"/></g>
<g><path style="opacity:0.983" fill="#ca4844" d="M 191.5,436.5 C 234.125,448.469 276.791,448.469 319.5,436.5C 321.569,442.376 323.236,448.376 324.5,454.5C 278.399,468.094 232.399,467.761 186.5,453.5C 187.97,447.759 189.636,442.093 191.5,436.5 Z"/></g>
</svg>
