<?xml version="1.0" encoding="UTF-8"?>
<!DOCTYPE svg PUBLIC "-//W3C//DTD SVG 1.1//EN" "http://www.w3.org/Graphics/SVG/1.1/DTD/svg11.dtd">
<svg xmlns="http://www.w3.org/2000/svg" version="1.1" width="512px" height="512px" style="shape-rendering:geometricPrecision; text-rendering:geometricPrecision; image-rendering:optimizeQuality; fill-rule:evenodd; clip-rule:evenodd" xmlns:xlink="http://www.w3.org/1999/xlink">
<g><path style="opacity:0.996" fill="#c2d0da" d="M 184.5,-0.5 C 205.833,-0.5 227.167,-0.5 248.5,-0.5C 251.98,1.17572 254.48,3.84239 256,7.5C 257.196,13.4187 257.862,19.4187 258,25.5C 258.5,26 259,26.5 259.5,27C 269.401,28.284 279.401,28.9506 289.5,29C 294.824,31.4764 297.824,35.643 298.5,41.5C 297.506,51.6532 297.172,61.9865 297.5,72.5C 243.5,72.5 189.5,72.5 135.5,72.5C 135.828,61.9865 135.494,51.6532 134.5,41.5C 135.193,35.5945 138.193,31.4278 143.5,29C 153.599,28.9506 163.599,28.284 173.5,27C 174,26.5 174.5,26 175,25.5C 175.195,19.4361 175.861,13.4361 177,7.5C 178.69,3.97911 181.19,1.31244 184.5,-0.5 Z"/></g>
<g><path style="opacity:0.998" fill="#fec250" d="M 134.5,41.5 C 135.494,51.6532 135.828,61.9865 135.5,72.5C 113.497,72.3334 91.4975,72.5 69.5,73C 68.3333,74.1667 67.1667,75.3333 66,76.5C 65.3333,209.833 65.3333,343.167 66,476.5C 66.5,478.333 67.6667,479.5 69.5,480C 125.832,480.5 182.166,480.667 238.5,480.5C 240.5,480.5 242.5,480.5 244.5,480.5C 263.167,480.5 281.833,480.5 300.5,480.5C 320.833,480.5 341.167,480.5 361.5,480.5C 353.016,481.493 344.349,481.826 335.5,481.5C 337.575,491.89 334.909,500.723 327.5,508C 325.075,509.213 322.741,510.379 320.5,511.5C 229.5,511.5 138.5,511.5 47.5,511.5C 41.5198,509.018 37.3531,504.685 35,498.5C 34.3333,350.5 34.3333,202.5 35,54.5C 37.1667,48.3333 41.3333,44.1667 47.5,42C 76.4981,41.5 105.498,41.3334 134.5,41.5 Z"/></g>
<g><path style="opacity:0.998" fill="#fec150" d="M 298.5,41.5 C 305.5,41.5 312.5,41.5 319.5,41.5C 327.379,43.5428 332.545,48.5428 335,56.5C 335.499,61.8229 335.666,67.1563 335.5,72.5C 323.833,72.5 312.167,72.5 300.5,72.5C 299.5,72.5 298.5,72.5 297.5,72.5C 297.172,61.9865 297.506,51.6532 298.5,41.5 Z"/></g>
<g><path style="opacity:0.997" fill="#eab04e" d="M 319.5,41.5 C 341.503,41.3334 363.503,41.5 385.5,42C 393.747,44.917 398.247,50.7503 399,59.5C 399.5,96.1652 399.667,132.832 399.5,169.5C 399.5,170.167 399.5,170.833 399.5,171.5C 389.228,188.435 378.561,205.101 367.5,221.5C 367.667,173.166 367.5,124.832 367,76.5C 366.5,74.6667 365.333,73.5 363.5,73C 354.173,72.5002 344.839,72.3335 335.5,72.5C 335.666,67.1563 335.499,61.8229 335,56.5C 332.545,48.5428 327.379,43.5428 319.5,41.5 Z"/></g>
<g><path style="opacity:1" fill="#eae9e9" d="M 300.5,72.5 C 312.167,72.5 323.833,72.5 335.5,72.5C 344.839,72.3335 354.173,72.5002 363.5,73C 365.333,73.5 366.5,74.6667 367,76.5C 367.5,124.832 367.667,173.166 367.5,221.5C 346.861,254.79 325.861,287.79 304.5,320.5C 304.5,261.833 304.5,203.167 304.5,144.5C 311.175,144.666 317.842,144.5 324.5,144C 329.069,141.459 330.569,137.625 329,132.5C 327.786,130.951 326.286,129.785 324.5,129C 317.842,128.5 311.175,128.334 304.5,128.5C 304.667,111.163 304.5,93.8301 304,76.5C 302.624,75.2949 301.458,73.9616 300.5,72.5 Z"/></g>
<g><path style="opacity:1" fill="#f4f4f4" d="M 135.5,72.5 C 189.5,72.5 243.5,72.5 297.5,72.5C 298.5,72.5 299.5,72.5 300.5,72.5C 301.458,73.9616 302.624,75.2949 304,76.5C 304.5,93.8301 304.667,111.163 304.5,128.5C 277.498,128.333 250.498,128.5 223.5,129C 219.723,131.955 218.557,135.788 220,140.5C 221.214,142.049 222.714,143.215 224.5,144C 251.165,144.5 277.831,144.667 304.5,144.5C 304.5,203.167 304.5,261.833 304.5,320.5C 287.647,348.864 270.147,376.864 252,404.5C 249.59,409.314 247.756,414.314 246.5,419.5C 242.519,435.09 238.686,450.757 235,466.5C 234.333,469.833 234.333,473.167 235,476.5C 236.102,477.949 237.269,479.282 238.5,480.5C 182.166,480.667 125.832,480.5 69.5,480C 67.6667,479.5 66.5,478.333 66,476.5C 65.3333,343.167 65.3333,209.833 66,76.5C 67.1667,75.3333 68.3333,74.1667 69.5,73C 91.4975,72.5 113.497,72.3334 135.5,72.5 Z"/></g>
<g><path style="opacity:1" fill="#68b59e" d="M 113.5,110.5 C 135.169,110.333 156.836,110.5 178.5,111C 183.235,112.068 186.402,114.901 188,119.5C 188.667,141.5 188.667,163.5 188,185.5C 186.402,190.099 183.235,192.932 178.5,194C 156.833,194.667 135.167,194.667 113.5,194C 108.901,192.402 106.068,189.235 105,184.5C 104.333,162.833 104.333,141.167 105,119.5C 106.688,115.315 109.521,112.315 113.5,110.5 Z"/></g>
<g><path style="opacity:0.982" fill="#8c9ba6" d="M 462.5,176.5 C 446.5,166.5 430.5,156.5 414.5,146.5C 418.989,139.528 423.489,132.528 428,125.5C 434.485,119.886 441.985,118.052 450.5,120C 459.334,124.159 467.167,129.659 474,136.5C 476.394,142.276 477.061,148.276 476,154.5C 472.033,162.269 467.533,169.603 462.5,176.5 Z"/></g>
<g><path style="opacity:1" fill="#ddeafa" d="M 304.5,128.5 C 311.175,128.334 317.842,128.5 324.5,129C 326.286,129.785 327.786,130.951 329,132.5C 330.569,137.625 329.069,141.459 324.5,144C 317.842,144.5 311.175,144.666 304.5,144.5C 277.831,144.667 251.165,144.5 224.5,144C 222.714,143.215 221.214,142.049 220,140.5C 218.557,135.788 219.723,131.955 223.5,129C 250.498,128.5 277.498,128.333 304.5,128.5 Z"/></g>
<g><path style="opacity:1" fill="#f3f7f7" d="M 159.5,131.5 C 169.996,131.498 172.829,136.164 168,145.5C 161.288,154.424 154.454,163.257 147.5,172C 143.5,174 139.5,174 135.5,172C 130.726,166.949 126.56,161.449 123,155.5C 121.674,147.829 124.841,144.329 132.5,145C 136.069,147.647 139.069,150.813 141.5,154.5C 147.493,146.839 153.493,139.172 159.5,131.5 Z"/></g>
<g><path style="opacity:0.989" fill="#c9e1e6" d="M 414.5,146.5 C 430.5,156.5 446.5,166.5 462.5,176.5C 457.402,185.039 452.069,193.373 446.5,201.5C 440.537,197.513 434.537,193.513 428.5,189.5C 424.5,187.167 420.5,184.833 416.5,182.5C 411.04,178.598 405.373,174.931 399.5,171.5C 399.5,170.833 399.5,170.167 399.5,169.5C 404.735,162.041 409.735,154.374 414.5,146.5 Z"/></g>
<g><path style="opacity:1" fill="#ddeafa" d="M 224.5,160.5 C 241.837,160.333 259.17,160.5 276.5,161C 284.5,166 284.5,171 276.5,176C 258.833,176.667 241.167,176.667 223.5,176C 217.939,170.353 218.272,165.186 224.5,160.5 Z"/></g>
<g><path style="opacity:1" fill="#fb8086" d="M 399.5,171.5 C 405.373,174.931 411.04,178.598 416.5,182.5C 365.847,262.464 315.181,342.464 264.5,422.5C 258.728,420.225 252.728,419.225 246.5,419.5C 247.756,414.314 249.59,409.314 252,404.5C 270.147,376.864 287.647,348.864 304.5,320.5C 325.861,287.79 346.861,254.79 367.5,221.5C 378.561,205.101 389.228,188.435 399.5,171.5 Z"/></g>
<g><path style="opacity:1" fill="#fa636f" d="M 416.5,182.5 C 420.5,184.833 424.5,187.167 428.5,189.5C 428.657,190.873 428.49,192.207 428,193.5C 379.417,269.664 331.083,345.998 283,422.5C 281.054,425.42 278.887,428.087 276.5,430.5C 272.749,427.408 268.749,424.741 264.5,422.5C 315.181,342.464 365.847,262.464 416.5,182.5 Z"/></g>
<g><path style="opacity:0.994" fill="#fb8086" d="M 428.5,189.5 C 434.537,193.513 440.537,197.513 446.5,201.5C 430.833,226.833 415.167,252.167 399.5,277.5C 398.508,277.328 397.842,277.662 397.5,278.5C 387.104,294.234 377.104,310.234 367.5,326.5C 345.931,359.961 324.597,393.628 303.5,427.5C 299.554,434.447 294.221,440.114 287.5,444.5C 284.776,439.029 281.109,434.362 276.5,430.5C 278.887,428.087 281.054,425.42 283,422.5C 331.083,345.998 379.417,269.664 428,193.5C 428.49,192.207 428.657,190.873 428.5,189.5 Z"/></g>
<g><path style="opacity:1" fill="#68b59e" d="M 113.5,234.5 C 135.503,234.333 157.503,234.5 179.5,235C 183.667,236.5 186.5,239.333 188,243.5C 188.667,265.167 188.667,286.833 188,308.5C 186.932,313.235 184.099,316.402 179.5,318C 157.5,318.667 135.5,318.667 113.5,318C 109.333,316.5 106.5,313.667 105,309.5C 104.333,287.5 104.333,265.5 105,243.5C 106.688,239.315 109.521,236.315 113.5,234.5 Z"/></g>
<g><path style="opacity:1" fill="#ddeafa" d="M 224.5,252.5 C 247.169,252.333 269.836,252.5 292.5,253C 298.643,255.508 299.976,259.675 296.5,265.5C 295.335,266.584 294.002,267.417 292.5,268C 269.833,268.667 247.167,268.667 224.5,268C 219.776,265.565 218.276,261.731 220,256.5C 221.397,254.93 222.897,253.596 224.5,252.5 Z"/></g>
<g><path style="opacity:1" fill="#f3f7f7" d="M 159.5,258.5 C 169.148,257.48 172.315,261.48 169,270.5C 162.532,279.934 155.699,289.101 148.5,298C 144.33,300.788 139.997,301.121 135.5,299C 131.546,294.258 127.713,289.424 124,284.5C 120.606,275.912 123.439,271.746 132.5,272C 136.06,274.605 139.06,277.771 141.5,281.5C 147.29,273.544 153.29,265.877 159.5,258.5 Z"/></g>
<g><path style="opacity:0.02" fill="#fe9965" d="M 397.5,278.5 C 397.842,277.662 398.508,277.328 399.5,277.5C 399.5,349.167 399.5,420.833 399.5,492.5C 398.833,421.167 398.167,349.833 397.5,278.5 Z"/></g>
<g><path style="opacity:0.999" fill="#eab14d" d="M 397.5,278.5 C 398.167,349.833 398.833,421.167 399.5,492.5C 398.626,501.698 393.959,508.031 385.5,511.5C 363.833,511.5 342.167,511.5 320.5,511.5C 322.741,510.379 325.075,509.213 327.5,508C 334.909,500.723 337.575,491.89 335.5,481.5C 344.349,481.826 353.016,481.493 361.5,480.5C 364.148,480.262 365.982,478.928 367,476.5C 367.5,426.501 367.667,376.501 367.5,326.5C 377.104,310.234 387.104,294.234 397.5,278.5 Z"/></g>
<g><path style="opacity:1" fill="#ddeafa" d="M 224.5,284.5 C 241.837,284.333 259.17,284.5 276.5,285C 284.408,290.142 284.408,295.142 276.5,300C 258.833,300.667 241.167,300.667 223.5,300C 217.939,294.353 218.272,289.186 224.5,284.5 Z"/></g>
<g><path style="opacity:1" fill="#eae9e9" d="M 367.5,326.5 C 367.667,376.501 367.5,426.501 367,476.5C 365.982,478.928 364.148,480.262 361.5,480.5C 341.167,480.5 320.833,480.5 300.5,480.5C 301.458,479.038 302.624,477.705 304,476.5C 304.828,459.995 304.662,443.661 303.5,427.5C 324.597,393.628 345.931,359.961 367.5,326.5 Z"/></g>
<g><path style="opacity:1" fill="#68b59e" d="M 113.5,358.5 C 135.169,358.333 156.836,358.5 178.5,359C 183.206,360.105 186.373,362.938 188,367.5C 188.667,389.5 188.667,411.5 188,433.5C 186.402,438.099 183.235,440.932 178.5,442C 156.833,442.667 135.167,442.667 113.5,442C 109.333,440.5 106.5,437.667 105,433.5C 104.333,411.5 104.333,389.5 105,367.5C 106.688,363.315 109.521,360.315 113.5,358.5 Z"/></g>
<g><path style="opacity:1" fill="#f3f7f7" d="M 159.5,379.5 C 167.656,378.821 171.156,382.488 170,390.5C 162.884,400.618 155.384,410.451 147.5,420C 143.961,421.504 140.295,421.837 136.5,421C 131.235,415.737 126.735,409.904 123,403.5C 121.674,395.829 124.841,392.329 132.5,393C 135.655,395.989 138.655,399.156 141.5,402.5C 147.493,394.839 153.493,387.172 159.5,379.5 Z"/></g>
<g><path style="opacity:1" fill="#7d8c96" d="M 246.5,419.5 C 252.728,419.225 258.728,420.225 264.5,422.5C 268.749,424.741 272.749,427.408 276.5,430.5C 281.109,434.362 284.776,439.029 287.5,444.5C 273.821,457.17 259.487,469.17 244.5,480.5C 242.5,480.5 240.5,480.5 238.5,480.5C 237.269,479.282 236.102,477.949 235,476.5C 234.333,473.167 234.333,469.833 235,466.5C 238.686,450.757 242.519,435.09 246.5,419.5 Z"/></g>
<g><path style="opacity:1" fill="#f4f4f4" d="M 303.5,427.5 C 304.662,443.661 304.828,459.995 304,476.5C 302.624,477.705 301.458,479.038 300.5,480.5C 281.833,480.5 263.167,480.5 244.5,480.5C 259.487,469.17 273.821,457.17 287.5,444.5C 294.221,440.114 299.554,434.447 303.5,427.5 Z"/></g>
</svg>
