<?xml version="1.0" encoding="UTF-8"?>
<!DOCTYPE svg PUBLIC "-//W3C//DTD SVG 1.1//EN" "http://www.w3.org/Graphics/SVG/1.1/DTD/svg11.dtd">
<svg xmlns="http://www.w3.org/2000/svg" version="1.1" width="512px" height="512px" style="shape-rendering:geometricPrecision; text-rendering:geometricPrecision; image-rendering:optimizeQuality; fill-rule:evenodd; clip-rule:evenodd" xmlns:xlink="http://www.w3.org/1999/xlink">
<g><path style="opacity:0.996" fill="#012d4e" d="M 500.5,270.5 C 470.833,270.5 441.167,270.5 411.5,270.5C 411.667,246.831 411.5,223.164 411,199.5C 402.171,137.983 369.338,94.816 312.5,70C 300.134,65.5753 287.468,62.4086 274.5,60.5C 252.106,64.729 242.939,78.0623 247,100.5C 249.678,109.178 255.178,115.345 263.5,119C 302.025,124.657 329.192,145.157 345,180.5C 352.61,186.578 358.61,185.244 363,176.5C 363.667,174.833 363.667,173.167 363,171.5C 344.444,131.299 313.277,107.132 269.5,99C 264.316,93.6264 264.316,88.2931 269.5,83C 271.366,82.0153 273.366,81.5153 275.5,81.5C 334.486,92.3176 371.986,126.651 388,184.5C 389,190.5 390,196.5 391,202.5C 391.5,225.164 391.667,247.831 391.5,270.5C 384.833,270.5 378.167,270.5 371.5,270.5C 371.667,250.831 371.5,231.164 371,211.5C 367.194,205.614 362.028,204.114 355.5,207C 353.951,208.214 352.785,209.714 352,211.5C 351.5,231.164 351.333,250.831 351.5,270.5C 314.5,270.5 277.5,270.5 240.5,270.5C 240.333,254.163 240.5,237.83 241,221.5C 245.782,211.184 253.282,208.351 263.5,213C 269.856,219.073 272.356,226.573 271,235.5C 276.596,253.415 288.763,261.248 307.5,259C 320,255.833 327.833,248 331,235.5C 335.212,196.081 319.712,167.581 284.5,150C 276.363,147.049 268.03,144.882 259.5,143.5C 248.728,129.891 237.394,116.724 225.5,104C 218.949,101.189 214.115,103.023 211,109.5C 209.886,114.041 210.886,118.041 214,121.5C 226.186,136.014 238.686,150.181 251.5,164C 281.29,164.799 300.79,179.299 310,207.5C 311.442,215.452 311.775,223.452 311,231.5C 307.416,239.213 301.916,241.046 294.5,237C 292.959,235.421 291.792,233.587 291,231.5C 291.945,210.532 282.445,197.032 262.5,191C 241.643,188.845 227.81,197.678 221,217.5C 220.5,235.164 220.333,252.83 220.5,270.5C 200.167,270.5 179.833,270.5 159.5,270.5C 159.333,248.831 159.5,227.164 160,205.5C 162.405,186.029 169.739,168.696 182,153.5C 189.818,147.392 196.485,148.392 202,156.5C 202.667,159.167 202.667,161.833 202,164.5C 194.812,173.371 188.812,183.037 184,193.5C 182.198,198.375 180.865,203.375 180,208.5C 179.333,223.167 179.333,237.833 180,252.5C 183.794,259.92 189.294,261.42 196.5,257C 197.46,255.581 198.293,254.081 199,252.5C 199.333,239.5 199.667,226.5 200,213.5C 202.083,199.769 208.083,188.102 218,178.5C 228.248,157.577 223.081,141.743 202.5,131C 186.799,126.122 173.966,130.289 164,143.5C 151.063,160.717 143.063,180.05 140,201.5C 139.5,224.498 139.333,247.498 139.5,270.5C 132.833,270.5 126.167,270.5 119.5,270.5C 119.5,253.5 119.5,236.5 119.5,219.5C 121.694,153.245 153.694,108.411 215.5,85C 221.032,79.0358 220.698,73.3692 214.5,68C 211.97,66.5783 209.303,66.245 206.5,67C 160.952,83.3837 128.952,113.884 110.5,158.5C 104.833,171.834 101.333,185.834 100,200.5C 99.5,223.831 99.3334,247.164 99.5,270.5C 85.5,270.5 71.5,270.5 57.5,270.5C 41.8333,270.5 26.1667,270.5 10.5,270.5C 7.661,182.028 40.9943,110.861 110.5,57C 171.099,14.546 237.766,0.879371 310.5,16C 404.111,40.9446 464.945,99.7779 493,192.5C 499.527,218.1 502.027,244.1 500.5,270.5 Z"/></g>
<g><path style="opacity:1" fill="#00eea4" d="M 411.5,270.5 C 404.833,270.5 398.167,270.5 391.5,270.5C 391.667,247.831 391.5,225.164 391,202.5C 390,196.5 389,190.5 388,184.5C 371.986,126.651 334.486,92.3176 275.5,81.5C 273.366,81.5153 271.366,82.0153 269.5,83C 264.316,88.2931 264.316,93.6264 269.5,99C 313.277,107.132 344.444,131.299 363,171.5C 363.667,173.167 363.667,174.833 363,176.5C 358.61,185.244 352.61,186.578 345,180.5C 329.192,145.157 302.025,124.657 263.5,119C 255.178,115.345 249.678,109.178 247,100.5C 242.939,78.0623 252.106,64.729 274.5,60.5C 287.468,62.4086 300.134,65.5753 312.5,70C 369.338,94.816 402.171,137.983 411,199.5C 411.5,223.164 411.667,246.831 411.5,270.5 Z"/></g>
<g><path style="opacity:1" fill="#00eea4" d="M 119.5,219.5 C 113.488,199.76 110.488,179.427 110.5,158.5C 128.952,113.884 160.952,83.3837 206.5,67C 209.303,66.245 211.97,66.5783 214.5,68C 220.698,73.3692 221.032,79.0358 215.5,85C 153.694,108.411 121.694,153.245 119.5,219.5 Z"/></g>
<g><path style="opacity:1" fill="#00eea4" d="M 240.5,270.5 C 233.833,270.5 227.167,270.5 220.5,270.5C 220.333,252.83 220.5,235.164 221,217.5C 227.81,197.678 241.643,188.845 262.5,191C 282.445,197.032 291.945,210.532 291,231.5C 291.792,233.587 292.959,235.421 294.5,237C 301.916,241.046 307.416,239.213 311,231.5C 311.775,223.452 311.442,215.452 310,207.5C 300.79,179.299 281.29,164.799 251.5,164C 238.686,150.181 226.186,136.014 214,121.5C 210.886,118.041 209.886,114.041 211,109.5C 214.115,103.023 218.949,101.189 225.5,104C 237.394,116.724 248.728,129.891 259.5,143.5C 268.03,144.882 276.363,147.049 284.5,150C 319.712,167.581 335.212,196.081 331,235.5C 327.833,248 320,255.833 307.5,259C 288.763,261.248 276.596,253.415 271,235.5C 272.356,226.573 269.856,219.073 263.5,213C 253.282,208.351 245.782,211.184 241,221.5C 240.5,237.83 240.333,254.163 240.5,270.5 Z"/></g>
<g><path style="opacity:1" fill="#00eea4" d="M 159.5,270.5 C 152.833,270.5 146.167,270.5 139.5,270.5C 139.333,247.498 139.5,224.498 140,201.5C 143.063,180.05 151.063,160.717 164,143.5C 173.966,130.289 186.799,126.122 202.5,131C 223.081,141.743 228.248,157.577 218,178.5C 208.083,188.102 202.083,199.769 200,213.5C 199.667,226.5 199.333,239.5 199,252.5C 198.293,254.081 197.46,255.581 196.5,257C 189.294,261.42 183.794,259.92 180,252.5C 179.333,237.833 179.333,223.167 180,208.5C 180.865,203.375 182.198,198.375 184,193.5C 188.812,183.037 194.812,173.371 202,164.5C 202.667,161.833 202.667,159.167 202,156.5C 196.485,148.392 189.818,147.392 182,153.5C 169.739,168.696 162.405,186.029 160,205.5C 159.5,227.164 159.333,248.831 159.5,270.5 Z"/></g>
<g><path style="opacity:1" fill="#0ab49d" d="M 110.5,158.5 C 110.488,179.427 113.488,199.76 119.5,219.5C 119.5,236.5 119.5,253.5 119.5,270.5C 112.833,270.5 106.167,270.5 99.5,270.5C 99.3334,247.164 99.5,223.831 100,200.5C 101.333,185.834 104.833,171.834 110.5,158.5 Z"/></g>
<g><path style="opacity:1" fill="#00f0a4" d="M 371.5,270.5 C 364.833,270.5 358.167,270.5 351.5,270.5C 351.333,250.831 351.5,231.164 352,211.5C 352.785,209.714 353.951,208.214 355.5,207C 362.028,204.114 367.194,205.614 371,211.5C 371.5,231.164 371.667,250.831 371.5,270.5 Z"/></g>
<g><path style="opacity:0.991" fill="#df3d9b" d="M 10.5,270.5 C 26.1667,270.5 41.8333,270.5 57.5,270.5C 47.184,275.893 44.684,283.893 50,294.5C 52.1141,297.121 54.6141,299.121 57.5,300.5C 43.1667,300.5 28.8333,300.5 14.5,300.5C 7.71372,300.363 2.71372,297.363 -0.5,291.5C -0.5,287.5 -0.5,283.5 -0.5,279.5C 1.7507,274.862 5.41737,271.862 10.5,270.5 Z"/></g>
<g><path style="opacity:1" fill="#fb5d93" d="M 57.5,270.5 C 71.5,270.5 85.5,270.5 99.5,270.5C 99.5,280.5 99.5,290.5 99.5,300.5C 85.5,300.5 71.5,300.5 57.5,300.5C 54.6141,299.121 52.1141,297.121 50,294.5C 44.684,283.893 47.184,275.893 57.5,270.5 Z"/></g>
<g><path style="opacity:1" fill="#d2f0f4" d="M 99.5,270.5 C 106.167,270.5 112.833,270.5 119.5,270.5C 119.5,280.5 119.5,290.5 119.5,300.5C 112.833,300.5 106.167,300.5 99.5,300.5C 99.5,290.5 99.5,280.5 99.5,270.5 Z"/></g>
<g><path style="opacity:1" fill="#fb5e93" d="M 119.5,270.5 C 126.167,270.5 132.833,270.5 139.5,270.5C 139.5,280.5 139.5,290.5 139.5,300.5C 132.833,300.5 126.167,300.5 119.5,300.5C 119.5,290.5 119.5,280.5 119.5,270.5 Z"/></g>
<g><path style="opacity:1" fill="#d2f0f4" d="M 139.5,270.5 C 146.167,270.5 152.833,270.5 159.5,270.5C 159.5,280.5 159.5,290.5 159.5,300.5C 152.833,300.5 146.167,300.5 139.5,300.5C 139.5,290.5 139.5,280.5 139.5,270.5 Z"/></g>
<g><path style="opacity:1" fill="#fb5e93" d="M 159.5,270.5 C 179.833,270.5 200.167,270.5 220.5,270.5C 220.334,277.841 220.5,285.174 221,292.5C 221.542,295.292 222.376,297.958 223.5,300.5C 215.833,300.5 208.167,300.5 200.5,300.5C 200.456,295.022 199.622,289.688 198,284.5C 192.333,279.167 186.667,279.167 181,284.5C 179.603,289.708 179.103,295.041 179.5,300.5C 172.833,300.5 166.167,300.5 159.5,300.5C 159.5,290.5 159.5,280.5 159.5,270.5 Z"/></g>
<g><path style="opacity:1" fill="#d1eff3" d="M 220.5,270.5 C 227.167,270.5 233.833,270.5 240.5,270.5C 240.161,277.574 240.661,284.574 242,291.5C 244.593,296.279 248.427,299.279 253.5,300.5C 243.652,300.173 233.986,300.506 224.5,301.5C 223.833,301.5 223.5,301.167 223.5,300.5C 222.376,297.958 221.542,295.292 221,292.5C 220.5,285.174 220.334,277.841 220.5,270.5 Z"/></g>
<g><path style="opacity:1" fill="#fb5e93" d="M 240.5,270.5 C 277.5,270.5 314.5,270.5 351.5,270.5C 351.5,280.5 351.5,290.5 351.5,300.5C 351.167,300.5 350.833,300.5 350.5,300.5C 344.167,300.5 337.833,300.5 331.5,300.5C 331.666,295.821 331.499,291.155 331,286.5C 328.081,280.975 323.581,279.142 317.5,281C 315.714,281.785 314.214,282.951 313,284.5C 311.378,289.688 310.544,295.022 310.5,300.5C 302.833,300.5 295.167,300.5 287.5,300.5C 290.158,294.44 290.992,288.107 290,281.5C 287.081,275.975 282.581,274.142 276.5,276C 274.714,276.785 273.214,277.951 272,279.5C 270.879,284.219 269.546,288.886 268,293.5C 265.299,297.252 261.799,299.585 257.5,300.5C 256.167,300.5 254.833,300.5 253.5,300.5C 248.427,299.279 244.593,296.279 242,291.5C 240.661,284.574 240.161,277.574 240.5,270.5 Z"/></g>
<g><path style="opacity:1" fill="#d2f0f4" d="M 351.5,270.5 C 358.167,270.5 364.833,270.5 371.5,270.5C 371.5,280.5 371.5,290.5 371.5,300.5C 364.833,300.5 358.167,300.5 351.5,300.5C 351.5,290.5 351.5,280.5 351.5,270.5 Z"/></g>
<g><path style="opacity:1" fill="#fb5e93" d="M 371.5,270.5 C 378.167,270.5 384.833,270.5 391.5,270.5C 391.193,280.582 391.526,290.582 392.5,300.5C 385.5,300.5 378.5,300.5 371.5,300.5C 371.5,290.5 371.5,280.5 371.5,270.5 Z"/></g>
<g><path style="opacity:1" fill="#d1f0f4" d="M 391.5,270.5 C 398.167,270.5 404.833,270.5 411.5,270.5C 411.807,280.582 411.474,290.582 410.5,300.5C 410.5,301.167 410.167,301.5 409.5,301.5C 404.167,300.167 398.833,300.167 393.5,301.5C 392.833,301.5 392.5,301.167 392.5,300.5C 391.526,290.582 391.193,280.582 391.5,270.5 Z"/></g>
<g><path style="opacity:1" fill="#fb5d92" d="M 411.5,270.5 C 441.167,270.5 470.833,270.5 500.5,270.5C 505.583,271.862 509.249,274.862 511.5,279.5C 511.5,283.5 511.5,287.5 511.5,291.5C 508.286,297.363 503.286,300.363 496.5,300.5C 467.833,300.5 439.167,300.5 410.5,300.5C 411.474,290.582 411.807,280.582 411.5,270.5 Z"/></g>
<g><path style="opacity:1" fill="#cfedf1" d="M 287.5,300.5 C 287.5,301.167 287.167,301.5 286.5,301.5C 277.014,300.506 267.348,300.173 257.5,300.5C 261.799,299.585 265.299,297.252 268,293.5C 269.546,288.886 270.879,284.219 272,279.5C 273.214,277.951 274.714,276.785 276.5,276C 282.581,274.142 287.081,275.975 290,281.5C 290.992,288.107 290.158,294.44 287.5,300.5 Z"/></g>
<g><path style="opacity:1" fill="#cfedf1" d="M 200.5,300.5 C 193.833,300.5 187.167,300.5 180.5,300.5C 180.167,300.5 179.833,300.5 179.5,300.5C 179.103,295.041 179.603,289.708 181,284.5C 186.667,279.167 192.333,279.167 198,284.5C 199.622,289.688 200.456,295.022 200.5,300.5 Z"/></g>
<g><path style="opacity:1" fill="#cfedf1" d="M 331.5,300.5 C 331.167,300.5 330.833,300.5 330.5,300.5C 323.833,300.5 317.167,300.5 310.5,300.5C 310.544,295.022 311.378,289.688 313,284.5C 314.214,282.951 315.714,281.785 317.5,281C 323.581,279.142 328.081,280.975 331,286.5C 331.499,291.155 331.666,295.821 331.5,300.5 Z"/></g>
<g><path style="opacity:0.995" fill="#012d4e" d="M 14.5,300.5 C 28.8333,300.5 43.1667,300.5 57.5,300.5C 71.5,300.5 85.5,300.5 99.5,300.5C 104.63,367.107 137.63,413.941 198.5,441C 253.971,460.267 305.305,452.6 352.5,418C 359.004,412.663 365.004,406.829 370.5,400.5C 388.043,381.931 400.043,360.098 406.5,335C 404.55,327.068 399.55,324.068 391.5,326C 389.667,327.167 388.167,328.667 387,330.5C 378.978,358.221 364.145,381.555 342.5,400.5C 298.871,433.375 251.537,439.875 200.5,420C 151.029,395.602 124.029,355.768 119.5,300.5C 126.167,300.5 132.833,300.5 139.5,300.5C 144.887,353.385 172.554,388.885 222.5,407C 233.919,410.626 245.586,411.959 257.5,411C 265.694,407.697 267.527,402.197 263,394.5C 261.581,393.54 260.081,392.707 258.5,392C 208.874,389.7 176.707,364.866 162,317.5C 161.165,311.823 160.331,306.156 159.5,300.5C 166.167,300.5 172.833,300.5 179.5,300.5C 179.833,300.5 180.167,300.5 180.5,300.5C 186.999,336.167 207.999,358.001 243.5,366C 276.774,369.277 302.607,357.11 321,329.5C 326.278,320.499 329.445,310.832 330.5,300.5C 330.833,300.5 331.167,300.5 331.5,300.5C 337.833,300.5 344.167,300.5 350.5,300.5C 347.475,337.563 329.642,364.896 297,382.5C 294.397,385.884 293.897,389.551 295.5,393.5C 299.999,400.336 305.665,401.336 312.5,396.5C 348.914,375.042 368.581,343.042 371.5,300.5C 378.5,300.5 385.5,300.5 392.5,300.5C 392.5,301.167 392.833,301.5 393.5,301.5C 396.599,305.24 400.599,306.407 405.5,305C 407.324,304.34 408.657,303.173 409.5,301.5C 410.167,301.5 410.5,301.167 410.5,300.5C 439.167,300.5 467.833,300.5 496.5,300.5C 481.29,375.141 440.956,431.641 375.5,470C 309.498,504.752 241.165,510.085 170.5,486C 85.5363,451.915 33.5363,390.082 14.5,300.5 Z"/></g>
<g><path style="opacity:1" fill="#0ab39c" d="M 99.5,300.5 C 106.167,300.5 112.833,300.5 119.5,300.5C 124.029,355.768 151.029,395.602 200.5,420C 251.537,439.875 298.871,433.375 342.5,400.5C 351.833,400.5 361.167,400.5 370.5,400.5C 365.004,406.829 359.004,412.663 352.5,418C 305.305,452.6 253.971,460.267 198.5,441C 137.63,413.941 104.63,367.107 99.5,300.5 Z"/></g>
<g><path style="opacity:1" fill="#0ab39c" d="M 139.5,300.5 C 146.167,300.5 152.833,300.5 159.5,300.5C 160.331,306.156 161.165,311.823 162,317.5C 176.707,364.866 208.874,389.7 258.5,392C 260.081,392.707 261.581,393.54 263,394.5C 267.527,402.197 265.694,407.697 257.5,411C 245.586,411.959 233.919,410.626 222.5,407C 172.554,388.885 144.887,353.385 139.5,300.5 Z"/></g>
<g><path style="opacity:1" fill="#00eea4" d="M 180.5,300.5 C 187.167,300.5 193.833,300.5 200.5,300.5C 207.748,328.412 225.748,343.745 254.5,346.5C 284.329,344.665 302.995,329.332 310.5,300.5C 317.167,300.5 323.833,300.5 330.5,300.5C 329.445,310.832 326.278,320.499 321,329.5C 302.607,357.11 276.774,369.277 243.5,366C 207.999,358.001 186.999,336.167 180.5,300.5 Z"/></g>
<g><path style="opacity:1" fill="#012e4e" d="M 200.5,300.5 C 208.167,300.5 215.833,300.5 223.5,300.5C 223.5,301.167 223.833,301.5 224.5,301.5C 233.94,317.932 247.94,323.766 266.5,319C 275.512,315.82 282.179,309.987 286.5,301.5C 287.167,301.5 287.5,301.167 287.5,300.5C 295.167,300.5 302.833,300.5 310.5,300.5C 302.995,329.332 284.329,344.665 254.5,346.5C 225.748,343.745 207.748,328.412 200.5,300.5 Z"/></g>
<g><path style="opacity:1" fill="#00eea4" d="M 253.5,300.5 C 254.833,300.5 256.167,300.5 257.5,300.5C 267.348,300.173 277.014,300.506 286.5,301.5C 282.179,309.987 275.512,315.82 266.5,319C 247.94,323.766 233.94,317.932 224.5,301.5C 233.986,300.506 243.652,300.173 253.5,300.5 Z"/></g>
<g><path style="opacity:1" fill="#00eea3" d="M 350.5,300.5 C 350.833,300.5 351.167,300.5 351.5,300.5C 358.167,300.5 364.833,300.5 371.5,300.5C 368.581,343.042 348.914,375.042 312.5,396.5C 306.711,396.142 301.045,395.142 295.5,393.5C 293.897,389.551 294.397,385.884 297,382.5C 329.642,364.896 347.475,337.563 350.5,300.5 Z"/></g>
<g><path style="opacity:1" fill="#02e6a1" d="M 409.5,301.5 C 408.657,303.173 407.324,304.34 405.5,305C 400.599,306.407 396.599,305.24 393.5,301.5C 398.833,300.167 404.167,300.167 409.5,301.5 Z"/></g>
<g><path style="opacity:1" fill="#00eda3" d="M 370.5,400.5 C 361.167,400.5 351.833,400.5 342.5,400.5C 364.145,381.555 378.978,358.221 387,330.5C 388.167,328.667 389.667,327.167 391.5,326C 399.55,324.068 404.55,327.068 406.5,335C 400.043,360.098 388.043,381.931 370.5,400.5 Z"/></g>
<g><path style="opacity:1" fill="#09ac98" d="M 295.5,393.5 C 301.045,395.142 306.711,396.142 312.5,396.5C 305.665,401.336 299.999,400.336 295.5,393.5 Z"/></g>
</svg>
