<?xml version="1.0" encoding="UTF-8"?>
<!DOCTYPE svg PUBLIC "-//W3C//DTD SVG 1.1//EN" "http://www.w3.org/Graphics/SVG/1.1/DTD/svg11.dtd">
<svg xmlns="http://www.w3.org/2000/svg" version="1.1" width="512px" height="512px" style="shape-rendering:geometricPrecision; text-rendering:geometricPrecision; image-rendering:optimizeQuality; fill-rule:evenodd; clip-rule:evenodd" xmlns:xlink="http://www.w3.org/1999/xlink">
<g><path style="opacity:0.993" fill="#d00000" d="M 438.5,44.5 C 425.325,66.6182 406.659,82.4516 382.5,92C 348.803,103.624 314.136,108.124 278.5,105.5C 278.398,110.583 277.065,115.25 274.5,119.5C 272.258,125.334 268.591,130.001 263.5,133.5C 258.137,136.079 252.804,136.079 247.5,133.5C 242.37,130.031 238.703,125.364 236.5,119.5C 233.775,114.939 232.442,109.939 232.5,104.5C 192.177,104.007 155.177,92.8406 121.5,71C 115.877,67.0454 110.543,62.7121 105.5,58C 101.915,54.9219 98.9155,51.4219 96.5,47.5C 105.787,45.6013 112.953,40.6013 118,32.5C 120.642,27.1367 118.975,24.1367 113,23.5C 102.493,25.5116 94.6598,31.1783 89.5,40.5C 87.3563,36.8886 85.1896,33.2219 83,29.5C 82.2411,27.9371 81.0744,26.9371 79.5,26.5C 89.0086,12.0359 102.509,5.70253 120,7.5C 143.677,8.71106 166.177,14.5444 187.5,25C 208.294,34.5602 228.294,45.3935 247.5,57.5C 228.568,73.5154 227.901,90.3487 245.5,108C 254.799,113.138 262.966,111.638 270,103.5C 274.194,97.256 277.027,90.4226 278.5,83C 276.288,73.0691 271.621,64.5691 264.5,57.5C 295.72,36.0614 329.72,20.2281 366.5,10C 381.876,5.82274 397.21,5.82274 412.5,10C 427.31,16.7532 435.977,28.2532 438.5,44.5 Z"/></g>
<g><path style="opacity:1" fill="#f6593a" d="M 96.5,47.5 C 91.1886,48.0276 88.8553,45.6943 89.5,40.5C 94.6598,31.1783 102.493,25.5116 113,23.5C 118.975,24.1367 120.642,27.1367 118,32.5C 112.953,40.6013 105.787,45.6013 96.5,47.5 Z"/></g>
<g><path style="opacity:1" fill="#bc0503" d="M 79.5,26.5 C 81.0744,26.9371 82.2411,27.9371 83,29.5C 85.1896,33.2219 87.3563,36.8886 89.5,40.5C 88.8553,45.6943 91.1886,48.0276 96.5,47.5C 98.9155,51.4219 101.915,54.9219 105.5,58C 110.543,62.7121 115.877,67.0454 121.5,71C 155.177,92.8406 192.177,104.007 232.5,104.5C 232.442,109.939 233.775,114.939 236.5,119.5C 212.832,126.751 188.832,132.418 164.5,136.5C 155.358,136.464 146.024,136.297 136.5,136C 124.192,134.897 112.526,131.564 101.5,126C 95.2929,121.279 89.2929,116.446 83.5,111.5C 72.3517,91.9539 68.5183,70.9539 72,48.5C 72.8357,40.4906 75.3357,33.1573 79.5,26.5 Z"/></g>
<g><path style="opacity:0.999" fill="#bc0403" d="M 438.5,44.5 C 442.866,68.2739 439.199,90.6073 427.5,111.5C 423.095,114.396 419.095,117.896 415.5,122C 402.799,130.4 388.799,134.9 373.5,135.5C 364.318,135.173 355.318,135.507 346.5,136.5C 322.038,132.874 298.038,127.207 274.5,119.5C 277.065,115.25 278.398,110.583 278.5,105.5C 314.136,108.124 348.803,103.624 382.5,92C 406.659,82.4516 425.325,66.6182 438.5,44.5 Z"/></g>
<g><path style="opacity:0.996" fill="#db2e02" d="M 264.5,57.5 C 271.621,64.5691 276.288,73.0691 278.5,83C 277.027,90.4226 274.194,97.256 270,103.5C 262.966,111.638 254.799,113.138 245.5,108C 227.901,90.3487 228.568,73.5154 247.5,57.5C 249.807,55.9532 252.473,55.2865 255.5,55.5C 258.737,55.3461 261.737,56.0127 264.5,57.5 Z"/></g>
<g><path style="opacity:1" fill="#f55838" d="M 247.5,75.5 C 250.585,75.418 252.252,76.918 252.5,80C 252.163,83.5394 250.496,86.0394 247.5,87.5C 243.664,83.7047 243.664,79.7047 247.5,75.5 Z"/></g>
<g><path style="opacity:1" fill="#fadd08" d="M 83.5,111.5 C 89.2929,116.446 95.2929,121.279 101.5,126C 112.526,131.564 124.192,134.897 136.5,136C 146.024,136.297 155.358,136.464 164.5,136.5C 158.514,143.132 153.514,150.465 149.5,158.5C 139.431,176.364 132.097,195.364 127.5,215.5C 87.5,215.5 47.5,215.5 7.5,215.5C 7.01386,181.413 7.51386,147.413 9,113.5C 9.75044,112.874 10.5838,112.374 11.5,112C 35.4977,111.5 59.4977,111.333 83.5,111.5 Z"/></g>
<g><path style="opacity:0.999" fill="#fadd07" d="M 427.5,111.5 C 447.5,111.5 467.5,111.5 487.5,111.5C 487.667,139.835 487.5,168.169 487,196.5C 484.167,206 478,212.167 468.5,215C 443.836,215.5 419.169,215.667 394.5,215.5C 386.918,188.423 376.585,162.423 363.5,137.5C 366.977,136.833 370.311,136.166 373.5,135.5C 388.799,134.9 402.799,130.4 415.5,122C 419.095,117.896 423.095,114.396 427.5,111.5 Z"/></g>
<g><path style="opacity:1" fill="#f8ae0a" d="M 487.5,111.5 C 491.514,111.334 495.514,111.501 499.5,112C 500.667,113.167 501.833,114.333 503,115.5C 503.667,152.833 503.667,190.167 503,227.5C 502.5,229.333 501.333,230.5 499.5,231C 492.842,231.5 486.175,231.666 479.5,231.5C 448.5,231.5 417.5,231.5 386.5,231.5C 381.937,205.808 373.603,181.475 361.5,158.5C 357.249,150.595 352.249,143.262 346.5,136.5C 355.318,135.507 364.318,135.173 373.5,135.5C 370.311,136.166 366.977,136.833 363.5,137.5C 376.585,162.423 386.918,188.423 394.5,215.5C 419.169,215.667 443.836,215.5 468.5,215C 478,212.167 484.167,206 487,196.5C 487.5,168.169 487.667,139.835 487.5,111.5 Z"/></g>
<g><path style="opacity:1" fill="#9d0207" d="M 236.5,119.5 C 238.703,125.364 242.37,130.031 247.5,133.5C 239.319,137.086 231.653,141.419 224.5,146.5C 199.644,152.811 174.644,156.811 149.5,158.5C 153.514,150.465 158.514,143.132 164.5,136.5C 188.832,132.418 212.832,126.751 236.5,119.5 Z"/></g>
<g><path style="opacity:1" fill="#9d0207" d="M 274.5,119.5 C 298.038,127.207 322.038,132.874 346.5,136.5C 352.249,143.262 357.249,150.595 361.5,158.5C 335.998,157.416 310.998,153.416 286.5,146.5C 279.347,141.419 271.681,137.086 263.5,133.5C 268.591,130.001 272.258,125.334 274.5,119.5 Z"/></g>
<g><path style="opacity:1" fill="#f7ecc2" d="M 29.5,123.5 C 32.1873,123.336 34.854,123.503 37.5,124C 38.0814,124.893 38.4148,125.893 38.5,127C 34.2636,135.376 31.4303,144.209 30,153.5C 26.1824,156.22 22.849,155.553 20,151.5C 17.2258,140.068 20.3925,130.735 29.5,123.5 Z"/></g>
<g><path style="opacity:1" fill="#890610" d="M 247.5,133.5 C 252.804,136.079 258.137,136.079 263.5,133.5C 271.681,137.086 279.347,141.419 286.5,146.5C 292.843,151.843 298.509,157.843 303.5,164.5C 303.5,171.833 303.5,179.167 303.5,186.5C 297.337,180.505 291.004,174.671 284.5,169C 278.104,164.134 271.104,160.301 263.5,157.5C 258.074,160.022 252.74,160.022 247.5,157.5C 238.044,161.392 229.378,166.559 221.5,173C 216.965,177.703 212.298,182.203 207.5,186.5C 207.5,179.167 207.5,171.833 207.5,164.5C 212.491,157.843 218.157,151.843 224.5,146.5C 231.653,141.419 239.319,137.086 247.5,133.5 Z"/></g>
<g><path style="opacity:1" fill="#d00100" d="M 224.5,146.5 C 218.157,151.843 212.491,157.843 207.5,164.5C 195.369,178.756 186.869,195.09 182,213.5C 180.353,219.084 179.187,224.751 178.5,230.5C 174.898,248.895 173.731,267.562 175,286.5C 167.319,278.652 159.486,270.985 151.5,263.5C 142.756,271.241 134.756,279.575 127.5,288.5C 124.87,290.628 122.37,292.961 120,295.5C 119.367,282.487 119.534,269.487 120.5,256.5C 121.903,248.308 123.237,239.975 124.5,231.5C 125.5,226.167 126.5,220.833 127.5,215.5C 132.097,195.364 139.431,176.364 149.5,158.5C 174.644,156.811 199.644,152.811 224.5,146.5 Z"/></g>
<g><path style="opacity:1" fill="#d00300" d="M 286.5,146.5 C 310.998,153.416 335.998,157.416 361.5,158.5C 373.603,181.475 381.937,205.808 386.5,231.5C 389.971,252.685 391.638,274.018 391.5,295.5C 386.167,290.5 380.833,285.5 375.5,280.5C 370.915,274.244 365.581,268.578 359.5,263.5C 356.074,265.92 353.408,268.92 351.5,272.5C 346.202,277.297 341.035,282.297 336,287.5C 335.5,276.839 335.333,266.172 335.5,255.5C 335.226,247.366 334.226,239.366 332.5,231.5C 331.927,225.545 330.593,219.878 328.5,214.5C 323.843,195.852 315.51,179.186 303.5,164.5C 298.509,157.843 292.843,151.843 286.5,146.5 Z"/></g>
<g><path style="opacity:1" fill="#f7ecbd" d="M 23.5,158.5 C 29.4877,158.664 30.821,161.164 27.5,166C 25.8876,166.72 24.3876,166.554 23,165.5C 22.2967,163.071 22.4634,160.738 23.5,158.5 Z"/></g>
<g><path style="opacity:1" fill="#bb0404" d="M 303.5,186.5 C 303.5,196.167 303.5,205.833 303.5,215.5C 271.5,215.5 239.5,215.5 207.5,215.5C 207.5,207.5 207.5,199.5 207.5,191.5C 207.5,189.833 207.5,188.167 207.5,186.5C 212.298,182.203 216.965,177.703 221.5,173C 229.378,166.559 238.044,161.392 247.5,157.5C 252.74,160.022 258.074,160.022 263.5,157.5C 271.104,160.301 278.104,164.134 284.5,169C 291.004,174.671 297.337,180.505 303.5,186.5 Z"/></g>
<g><path style="opacity:1" fill="#f8ae0a" d="M 207.5,164.5 C 207.5,171.833 207.5,179.167 207.5,186.5C 207.5,188.167 207.5,189.833 207.5,191.5C 202.292,198.74 197.959,206.573 194.5,215C 198.821,215.499 203.154,215.666 207.5,215.5C 207.5,220.833 207.5,226.167 207.5,231.5C 201.5,231.5 195.5,231.5 189.5,231.5C 185.629,231.815 181.962,231.482 178.5,230.5C 179.187,224.751 180.353,219.084 182,213.5C 186.869,195.09 195.369,178.756 207.5,164.5 Z"/></g>
<g><path style="opacity:1" fill="#fadd07" d="M 303.5,164.5 C 315.51,179.186 323.843,195.852 328.5,214.5C 320.35,215.493 312.017,215.826 303.5,215.5C 303.5,205.833 303.5,196.167 303.5,186.5C 303.5,179.167 303.5,171.833 303.5,164.5 Z"/></g>
<g><path style="opacity:1" fill="#fadc08" d="M 207.5,191.5 C 207.5,199.5 207.5,207.5 207.5,215.5C 203.154,215.666 198.821,215.499 194.5,215C 197.959,206.573 202.292,198.74 207.5,191.5 Z"/></g>
<g><path style="opacity:1" fill="#f9af0a" d="M 7.5,215.5 C 47.5,215.5 87.5,215.5 127.5,215.5C 126.5,220.833 125.5,226.167 124.5,231.5C 93.5,231.5 62.5,231.5 31.5,231.5C 24.0528,231.929 16.7194,231.429 9.5,230C 8.87424,229.25 8.37424,228.416 8,227.5C 7.50115,223.514 7.33449,219.514 7.5,215.5 Z"/></g>
<g><path style="opacity:1" fill="#9c0207" d="M 207.5,215.5 C 239.5,215.5 271.5,215.5 303.5,215.5C 303.5,220.833 303.5,226.167 303.5,231.5C 300.833,231.5 298.167,231.5 295.5,231.5C 268.833,231.5 242.167,231.5 215.5,231.5C 212.833,231.5 210.167,231.5 207.5,231.5C 207.5,226.167 207.5,220.833 207.5,215.5 Z"/></g>
<g><path style="opacity:1" fill="#f8ae0a" d="M 328.5,214.5 C 330.593,219.878 331.927,225.545 332.5,231.5C 322.833,231.5 313.167,231.5 303.5,231.5C 303.5,226.167 303.5,220.833 303.5,215.5C 312.017,215.826 320.35,215.493 328.5,214.5 Z"/></g>
<g><path style="opacity:1" fill="#fe9600" d="M 31.5,231.5 C 62.5,231.5 93.5,231.5 124.5,231.5C 123.237,239.975 121.903,248.308 120.5,256.5C 91.0047,255.502 61.338,255.169 31.5,255.5C 31.5,247.5 31.5,239.5 31.5,231.5 Z"/></g>
<g><path style="opacity:1" fill="#fe7f00" d="M 178.5,230.5 C 181.962,231.482 185.629,231.815 189.5,231.5C 187.007,239.299 185.674,247.299 185.5,255.5C 184.683,257.969 184.183,260.635 184,263.5C 183.667,274.5 183.333,285.5 183,296.5C 181.062,298.978 178.895,299.145 176.5,297C 171.299,291.16 165.799,285.66 160,280.5C 151.209,288.29 142.709,296.457 134.5,305C 132.376,306.582 130.21,306.749 128,305.5C 127.501,299.843 127.334,294.176 127.5,288.5C 134.756,279.575 142.756,271.241 151.5,263.5C 159.486,270.985 167.319,278.652 175,286.5C 173.731,267.562 174.898,248.895 178.5,230.5 Z"/></g>
<g><path style="opacity:1" fill="#ff9600" d="M 189.5,231.5 C 195.5,231.5 201.5,231.5 207.5,231.5C 210.167,231.5 212.833,231.5 215.5,231.5C 215.5,239.5 215.5,247.5 215.5,255.5C 205.5,255.5 195.5,255.5 185.5,255.5C 185.674,247.299 187.007,239.299 189.5,231.5 Z"/></g>
<g><path style="opacity:1" fill="#880710" d="M 215.5,231.5 C 242.167,231.5 268.833,231.5 295.5,231.5C 295.5,239.5 295.5,247.5 295.5,255.5C 268.833,255.5 242.167,255.5 215.5,255.5C 215.5,247.5 215.5,239.5 215.5,231.5 Z"/></g>
<g><path style="opacity:1" fill="#fe9600" d="M 295.5,231.5 C 298.167,231.5 300.833,231.5 303.5,231.5C 313.167,231.5 322.833,231.5 332.5,231.5C 334.226,239.366 335.226,247.366 335.5,255.5C 322.167,255.5 308.833,255.5 295.5,255.5C 295.5,247.5 295.5,239.5 295.5,231.5 Z"/></g>
<g><path style="opacity:1" fill="#fe9700" d="M 386.5,231.5 C 417.5,231.5 448.5,231.5 479.5,231.5C 479.667,318.834 479.5,406.167 479,493.5C 477.167,498 474,501.167 469.5,503C 411.501,503.5 353.501,503.667 295.5,503.5C 295.5,492.833 295.5,482.167 295.5,471.5C 341.835,471.667 388.168,471.5 434.5,471C 440.469,469.702 444.635,466.202 447,460.5C 447.667,402.833 447.667,345.167 447,287.5C 440.544,266.012 426.044,255.345 403.5,255.5C 405.878,271.071 407.045,286.738 407,302.5C 405.192,304.396 403.025,304.896 400.5,304C 397.631,300.962 394.631,298.129 391.5,295.5C 391.638,274.018 389.971,252.685 386.5,231.5 Z"/></g>
<g><path style="opacity:1" fill="#febf07" d="M 31.5,255.5 C 61.338,255.169 91.0047,255.502 120.5,256.5C 119.534,269.487 119.367,282.487 120,295.5C 122.37,292.961 124.87,290.628 127.5,288.5C 127.334,294.176 127.501,299.843 128,305.5C 130.21,306.749 132.376,306.582 134.5,305C 142.709,296.457 151.209,288.29 160,280.5C 165.799,285.66 171.299,291.16 176.5,297C 178.895,299.145 181.062,298.978 183,296.5C 183.333,285.5 183.667,274.5 184,263.5C 184.183,260.635 184.683,257.969 185.5,255.5C 195.5,255.5 205.5,255.5 215.5,255.5C 215.5,327.5 215.5,399.5 215.5,471.5C 154.167,471.5 92.8333,471.5 31.5,471.5C 31.5,399.5 31.5,327.5 31.5,255.5 Z"/></g>
<g><path style="opacity:1" fill="#cf0000" d="M 215.5,255.5 C 242.167,255.5 268.833,255.5 295.5,255.5C 295.5,327.5 295.5,399.5 295.5,471.5C 268.833,471.5 242.167,471.5 215.5,471.5C 215.5,399.5 215.5,327.5 215.5,255.5 Z"/></g>
<g><path style="opacity:1" fill="#ffbf07" d="M 295.5,255.5 C 308.833,255.5 322.167,255.5 335.5,255.5C 335.333,266.172 335.5,276.839 336,287.5C 341.035,282.297 346.202,277.297 351.5,272.5C 351.334,280.174 351.5,287.841 352,295.5C 353.466,297.325 355.299,297.825 357.5,297C 363.696,291.634 369.696,286.134 375.5,280.5C 380.833,285.5 386.167,290.5 391.5,295.5C 394.631,298.129 397.631,300.962 400.5,304C 403.025,304.896 405.192,304.396 407,302.5C 407.045,286.738 405.878,271.071 403.5,255.5C 426.044,255.345 440.544,266.012 447,287.5C 447.667,345.167 447.667,402.833 447,460.5C 444.635,466.202 440.469,469.702 434.5,471C 388.168,471.5 341.835,471.667 295.5,471.5C 295.5,399.5 295.5,327.5 295.5,255.5 Z"/></g>
<g><path style="opacity:1" fill="#fe9600" d="M 375.5,280.5 C 369.696,286.134 363.696,291.634 357.5,297C 355.299,297.825 353.466,297.325 352,295.5C 351.5,287.841 351.334,280.174 351.5,272.5C 353.408,268.92 356.074,265.92 359.5,263.5C 365.581,268.578 370.915,274.244 375.5,280.5 Z"/></g>
<g><path style="opacity:1" fill="#ff9700" d="M 31.5,471.5 C 92.8333,471.5 154.167,471.5 215.5,471.5C 215.5,482.167 215.5,492.833 215.5,503.5C 157.499,503.667 99.499,503.5 41.5,503C 37,501.167 33.8333,498 32,493.5C 31.5003,486.174 31.3337,478.841 31.5,471.5 Z"/></g>
<g><path style="opacity:1" fill="#9c0207" d="M 215.5,471.5 C 242.167,471.5 268.833,471.5 295.5,471.5C 295.5,482.167 295.5,492.833 295.5,503.5C 268.833,503.5 242.167,503.5 215.5,503.5C 215.5,492.833 215.5,482.167 215.5,471.5 Z"/></g>
</svg>
