<?xml version="1.0" encoding="UTF-8"?>
<!DOCTYPE svg PUBLIC "-//W3C//DTD SVG 1.1//EN" "http://www.w3.org/Graphics/SVG/1.1/DTD/svg11.dtd">
<svg xmlns="http://www.w3.org/2000/svg" version="1.1" width="512px" height="512px" style="shape-rendering:geometricPrecision; text-rendering:geometricPrecision; image-rendering:optimizeQuality; fill-rule:evenodd; clip-rule:evenodd" xmlns:xlink="http://www.w3.org/1999/xlink">
<g><path style="opacity:1" fill="#4a81f6" d="M 234.5,-0.5 C 248.5,-0.5 262.5,-0.5 276.5,-0.5C 349.825,8.56641 406.658,43.8997 447,105.5C 483.356,168.257 489.69,233.924 466,302.5C 437.388,373.111 386.555,419.278 313.5,441C 306.659,444.333 301.159,449.166 297,455.5C 287,472.833 277,490.167 267,507.5C 264.985,508.697 263.151,510.03 261.5,511.5C 257.5,511.5 253.5,511.5 249.5,511.5C 247.849,510.03 246.015,508.697 244,507.5C 239.902,500.969 236.069,494.302 232.5,487.5C 232.34,485.801 232.506,484.134 233,482.5C 239.252,472.33 245.252,461.997 251,451.5C 254.581,447.248 258.748,443.748 263.5,441C 342.767,418.064 395.601,367.564 422,289.5C 443.375,211.012 428.708,140.346 378,77.5C 339.405,34.1159 291.238,8.44926 233.5,0.5C 234.167,0.5 234.5,0.166667 234.5,-0.5 Z"/></g>
<g><path style="opacity:0.999" fill="#5490f9" d="M 233.5,0.5 C 291.238,8.44926 339.405,34.1159 378,77.5C 428.708,140.346 443.375,211.012 422,289.5C 395.601,367.564 342.767,418.064 263.5,441C 258.748,443.748 254.581,447.248 251,451.5C 245.252,461.997 239.252,472.33 233,482.5C 232.506,484.134 232.34,485.801 232.5,487.5C 226.108,477.06 219.941,466.393 214,455.5C 210.841,451.341 207.341,447.508 203.5,444C 191.244,439.137 178.911,434.47 166.5,430C 94.0376,396.192 49.8709,340.025 34,261.5C 22.2191,170.453 52.3858,96.9527 124.5,41C 157.126,17.7331 193.46,4.23313 233.5,0.5 Z"/></g>
<g><path style="opacity:1" fill="#e1dee2" d="M 247.5,257.5 C 256.653,254.847 262.153,248.847 264,239.5C 266.167,202.498 268.334,165.498 270.5,128.5C 271.571,112.426 264.904,100.926 250.5,94C 248.866,93.5065 247.199,93.3398 245.5,93.5C 270.018,88.7917 284.351,98.9584 288.5,124C 285.884,163.494 283.384,202.994 281,242.5C 277.716,251.065 271.549,256.231 262.5,258C 257.316,258.816 252.316,258.65 247.5,257.5 Z"/></g>
<g><path style="opacity:1" fill="#f0f0f3" d="M 245.5,93.5 C 247.199,93.3398 248.866,93.5065 250.5,94C 264.904,100.926 271.571,112.426 270.5,128.5C 268.334,165.498 266.167,202.498 264,239.5C 262.153,248.847 256.653,254.847 247.5,257.5C 238.688,255.525 232.855,250.192 230,241.5C 226.669,199.551 224.669,157.551 224,115.5C 227.353,104.315 234.52,96.9816 245.5,93.5 Z"/></g>
<g><path style="opacity:1" fill="#dfdde2" d="M 249.5,292.5 C 275.102,289.965 284.602,301.298 278,326.5C 275.549,332.616 271.049,336.116 264.5,337C 258.651,337.818 252.985,337.652 247.5,336.5C 258.831,333.366 263.498,325.866 261.5,314C 263.054,303.598 259.054,296.431 249.5,292.5 Z"/></g>
<g><path style="opacity:1" fill="#efeff4" d="M 249.5,292.5 C 259.054,296.431 263.054,303.598 261.5,314C 263.498,325.866 258.831,333.366 247.5,336.5C 238.745,335.916 233.578,331.249 232,322.5C 230.874,314.955 231.54,307.621 234,300.5C 237.767,295.034 242.933,292.367 249.5,292.5 Z"/></g>
</svg>
