<?xml version="1.0" encoding="UTF-8"?>
<!DOCTYPE svg PUBLIC "-//W3C//DTD SVG 1.1//EN" "http://www.w3.org/Graphics/SVG/1.1/DTD/svg11.dtd">
<svg xmlns="http://www.w3.org/2000/svg" version="1.1" width="512px" height="512px" style="shape-rendering:geometricPrecision; text-rendering:geometricPrecision; image-rendering:optimizeQuality; fill-rule:evenodd; clip-rule:evenodd" xmlns:xlink="http://www.w3.org/1999/xlink">
<g><path style="opacity:0.977" fill="#bdc3c6" d="M 379.5,-0.5 C 389.5,-0.5 399.5,-0.5 409.5,-0.5C 452.937,7.32644 482.437,31.9931 498,73.5C 511.866,128.096 495.7,171.096 449.5,202.5C 434.951,209.515 419.618,214.015 403.5,216C 399.179,216.499 394.846,216.666 390.5,216.5C 372.946,215.868 356.613,211.202 341.5,202.5C 341.683,196.143 344.016,190.809 348.5,186.5C 361.966,194.765 376.633,198.765 392.5,198.5C 407.848,199.462 422.515,196.296 436.5,189C 438.692,187.933 440.358,186.433 441.5,184.5C 465.29,169.821 479.456,148.488 484,120.5C 487.82,81.313 473.32,51.1463 440.5,30C 397.831,8.71363 359.664,14.8803 326,48.5C 322.188,53.1344 319.021,58.1344 316.5,63.5C 309.52,62.8348 302.52,62.5015 295.5,62.5C 312.639,27.0282 340.639,6.02818 379.5,-0.5 Z"/></g>
<g><path style="opacity:0.992" fill="#95a5a4" d="M 295.5,62.5 C 302.52,62.5015 309.52,62.8348 316.5,63.5C 365.005,72.6712 396.005,101.004 409.5,148.5C 373.447,123.961 335.114,119.794 294.5,136C 256.339,155.119 234.505,185.952 229,228.5C 228.333,235.5 228.333,242.5 229,249.5C 230.255,255.448 231.088,261.448 231.5,267.5C 174.788,301.276 117.955,334.943 61,368.5C 43.5002,362.889 26.1669,356.889 9,350.5C 8.12515,349.127 7.62515,347.627 7.5,346C 10.054,331.176 12.554,316.343 15,301.5C 16.395,293.772 20.895,288.938 28.5,287C 37.0384,286.603 45.5384,287.103 54,288.5C 57.7215,288.779 60.0548,287.112 61,283.5C 62.3333,278.167 63.6667,272.833 65,267.5C 65.8333,266.667 66.6667,265.833 67.5,265C 75.7317,264.428 83.8984,264.928 92,266.5C 94.4993,265.917 96.4993,264.584 98,262.5C 99.0797,257.101 100.413,251.768 102,246.5C 102.833,244.333 104.333,242.833 106.5,242C 115.123,242.845 123.79,243.179 132.5,243C 133.333,242.167 134.167,241.333 135,240.5C 136.511,234.123 138.177,227.79 140,221.5C 140.785,219.714 141.951,218.214 143.5,217C 158.333,208.418 172.999,199.585 187.5,190.5C 182.682,135.291 205.015,95.4579 254.5,71C 267.572,65.2855 281.239,62.4522 295.5,62.5 Z"/></g>
<g><path style="opacity:0.995" fill="#efc319" d="M 409.5,148.5 C 422.651,158.316 433.317,170.316 441.5,184.5C 440.358,186.433 438.692,187.933 436.5,189C 422.515,196.296 407.848,199.462 392.5,198.5C 390.164,188.662 384.164,182.162 374.5,179C 364.259,176.586 355.592,179.086 348.5,186.5C 344.016,190.809 341.683,196.143 341.5,202.5C 342.587,220.755 352.254,229.921 370.5,230C 379.444,228.707 386.111,224.207 390.5,216.5C 394.846,216.666 399.179,216.499 403.5,216C 419.618,214.015 434.951,209.515 449.5,202.5C 463.619,255.91 448.952,299.41 405.5,333C 377.11,350.732 346.443,356.399 313.5,350C 275,401.833 236.5,453.667 198,505.5C 197.097,506.701 195.931,507.535 194.5,508C 182.016,509.174 169.682,510.341 157.5,511.5C 151.5,511.5 145.5,511.5 139.5,511.5C 137.59,510.025 136.424,508.025 136,505.5C 133,492.167 130,478.833 127,465.5C 125.145,456.384 127.979,449.218 135.5,444C 144.392,441.315 153.058,438.149 161.5,434.5C 162.046,433.228 162.379,431.894 162.5,430.5C 161.007,423.891 160.507,417.224 161,410.5C 161.903,409.299 163.069,408.465 164.5,408C 171.167,406 177.833,404 184.5,402C 186.333,401.5 187.5,400.333 188,398.5C 187.105,390.883 186.772,383.217 187,375.5C 187.903,374.299 189.069,373.465 190.5,373C 198.209,371.033 205.709,368.533 213,365.5C 213.781,364.271 214.281,362.938 214.5,361.5C 212.958,354.213 212.125,346.88 212,339.5C 222.307,325.026 232.807,310.693 243.5,296.5C 238.613,287.077 234.613,277.41 231.5,267.5C 231.088,261.448 230.255,255.448 229,249.5C 228.333,242.5 228.333,235.5 229,228.5C 234.505,185.952 256.339,155.119 294.5,136C 335.114,119.794 373.447,123.961 409.5,148.5 Z"/></g>
<g><path style="opacity:1" fill="#96a5a4" d="M 392.5,198.5 C 376.633,198.765 361.966,194.765 348.5,186.5C 355.592,179.086 364.259,176.586 374.5,179C 384.164,182.162 390.164,188.662 392.5,198.5 Z"/></g>
<g><path style="opacity:1" fill="#96a5a3" d="M 341.5,202.5 C 356.613,211.202 372.946,215.868 390.5,216.5C 386.111,224.207 379.444,228.707 370.5,230C 352.254,229.921 342.587,220.755 341.5,202.5 Z"/></g>
<g><path style="opacity:1" fill="#7f8c8d" d="M 192.5,238.5 C 201.658,236.835 205.825,240.501 205,249.5C 204.215,251.286 203.049,252.786 201.5,254C 154.833,282 108.167,310 61.5,338C 54.5991,339.266 50.5991,336.433 49.5,329.5C 49.5559,326.889 50.5559,324.722 52.5,323C 99.3963,295.059 146.063,266.892 192.5,238.5 Z"/></g>
<g><path style="opacity:1" fill="#b19045" d="M 285.5,315.5 C 293.828,314.663 297.661,318.33 297,326.5C 259.577,377.678 221.911,428.678 184,479.5C 176.053,484.608 170.886,482.608 168.5,473.5C 168.622,471.209 169.455,469.209 171,467.5C 208.956,416.548 247.122,365.881 285.5,315.5 Z"/></g>
</svg>
