<?xml version="1.0" encoding="UTF-8"?>
<!DOCTYPE svg PUBLIC "-//W3C//DTD SVG 1.1//EN" "http://www.w3.org/Graphics/SVG/1.1/DTD/svg11.dtd">
<svg xmlns="http://www.w3.org/2000/svg" version="1.1" width="512px" height="512px" style="shape-rendering:geometricPrecision; text-rendering:geometricPrecision; image-rendering:optimizeQuality; fill-rule:evenodd; clip-rule:evenodd" xmlns:xlink="http://www.w3.org/1999/xlink">
<g><path style="opacity:0.986" fill="#ffdd54" d="M 239.5,-0.5 C 243.5,-0.5 247.5,-0.5 251.5,-0.5C 255.479,1.31481 258.312,4.31481 260,8.5C 260.5,15.4921 260.666,22.4921 260.5,29.5C 267.508,29.3337 274.508,29.5004 281.5,30C 290.475,35.1517 292.975,42.6517 289,52.5C 287.833,55 286,56.8333 283.5,58C 275.946,59.4321 268.279,59.9321 260.5,59.5C 260.666,66.5079 260.5,73.5079 260,80.5C 254.848,89.4747 247.348,91.9747 237.5,88C 235,86.8333 233.167,85 232,82.5C 230.568,74.9458 230.068,67.2792 230.5,59.5C 223.492,59.6663 216.492,59.4996 209.5,59C 200.525,53.8483 198.025,46.3483 202,36.5C 203.167,34 205,32.1667 207.5,31C 215.054,29.5679 222.721,29.0679 230.5,29.5C 230.334,22.4921 230.5,15.4921 231,8.5C 232.688,4.31481 235.521,1.31481 239.5,-0.5 Z"/></g>
<g><path style="opacity:0.989" fill="#ffdd54" d="M 349.5,-0.5 C 353.167,-0.5 356.833,-0.5 360.5,-0.5C 378.473,12.4913 396.473,25.4913 414.5,38.5C 433.791,31.903 453.124,25.403 472.5,19C 475.5,18.3333 478.5,18.3333 481.5,19C 484.025,19.4238 486.025,20.5905 487.5,22.5C 442.806,67.5269 398.14,112.527 353.5,157.5C 353.167,157.5 352.833,157.5 352.5,157.5C 347.02,155.229 341.353,153.563 335.5,152.5C 320.554,147.574 305.554,142.74 290.5,138C 281.618,129.626 281.285,120.96 289.5,112C 306.421,100.29 323.254,88.4564 340,76.5C 339.856,54.5022 339.856,32.5022 340,10.5C 341.599,5.40601 344.766,1.73934 349.5,-0.5 Z"/></g>
<g><path style="opacity:1" fill="#ffb454" d="M 487.5,22.5 C 492.056,26.8309 493.556,32.1642 492,38.5C 485.597,57.8758 479.097,77.2092 472.5,96.5C 485.509,114.527 498.509,132.527 511.5,150.5C 511.5,154.167 511.5,157.833 511.5,161.5C 509.261,166.234 505.594,169.401 500.5,171C 478.499,171.076 456.499,171.076 434.5,171C 422.544,187.746 410.71,204.579 399,221.5C 390.04,229.715 381.374,229.382 373,220.5C 368.026,205.939 363.359,191.272 359,176.5C 358.617,175.944 358.117,175.611 357.5,175.5C 357.804,174.85 358.137,174.183 358.5,173.5C 356.829,168.154 355.162,162.821 353.5,157.5C 398.14,112.527 442.806,67.5269 487.5,22.5 Z"/></g>
<g><path style="opacity:0.96" fill="#ffdd54" d="M 134.5,74.5 C 150.654,72.4866 157.487,79.4866 155,95.5C 150.652,103.915 143.819,106.748 134.5,104C 126.085,99.6524 123.252,92.8191 126,83.5C 127.688,79.3148 130.521,76.3148 134.5,74.5 Z"/></g>
<g><path style="opacity:0.986" fill="#ffdd54" d="M 169.5,139.5 C 178.822,137.251 185.655,140.251 190,148.5C 190.5,155.492 190.666,162.492 190.5,169.5C 197.508,169.334 204.508,169.5 211.5,170C 220.475,175.152 222.975,182.652 219,192.5C 217.833,195 216,196.833 213.5,198C 205.946,199.432 198.279,199.932 190.5,199.5C 190.666,206.508 190.5,213.508 190,220.5C 184.848,229.475 177.348,231.975 167.5,228C 165,226.833 163.167,225 162,222.5C 160.568,214.946 160.068,207.279 160.5,199.5C 153.492,199.666 146.492,199.5 139.5,199C 130.525,193.848 128.025,186.348 132,176.5C 133.167,174 135,172.167 137.5,171C 145.054,169.568 152.721,169.068 160.5,169.5C 160.334,162.492 160.5,155.492 161,148.5C 162.688,144.315 165.521,141.315 169.5,139.5 Z"/></g>
<g><path style="opacity:0.985" fill="#feb354" d="M 335.5,152.5 C 341.353,153.563 347.02,155.229 352.5,157.5C 309.73,201.771 266.397,245.604 222.5,289C 221.552,289.483 220.552,289.649 219.5,289.5C 215.434,286.437 212.101,282.771 209.5,278.5C 251.833,236.833 293.833,194.833 335.5,152.5 Z"/></g>
<g><path style="opacity:1" fill="#ff8858" d="M 352.5,157.5 C 352.833,157.5 353.167,157.5 353.5,157.5C 355.162,162.821 356.829,168.154 358.5,173.5C 358.137,174.183 357.804,174.85 357.5,175.5C 315.833,217.5 274.167,259.5 232.5,301.5C 228.833,298.167 225.167,294.833 221.5,291.5C 220.833,290.833 220.167,290.167 219.5,289.5C 220.552,289.649 221.552,289.483 222.5,289C 266.397,245.604 309.73,201.771 352.5,157.5 Z"/></g>
<g><path style="opacity:0.961" fill="#ffb354" d="M 460.5,224.5 C 476.654,222.487 483.487,229.487 481,245.5C 476.652,253.915 469.819,256.748 460.5,254C 452.085,249.652 449.252,242.819 452,233.5C 453.688,229.315 456.521,226.315 460.5,224.5 Z"/></g>
<g><path style="opacity:0.995" fill="#6a60b0" d="M 209.5,278.5 C 212.101,282.771 215.434,286.437 219.5,289.5C 220.167,290.167 220.833,290.833 221.5,291.5C 149.834,361.499 78.8341,432.166 8.5,503.5C 4.49009,499.48 1.49009,494.813 -0.5,489.5C -0.5,484.167 -0.5,478.833 -0.5,473.5C 1.36941,469.434 3.53607,465.434 6,461.5C 67.1667,400.333 128.333,339.167 189.5,278C 196.281,274.572 202.947,274.739 209.5,278.5 Z"/></g>
<g><path style="opacity:0.986" fill="#ffb354" d="M 511.5,328.5 C 511.5,332.5 511.5,336.5 511.5,340.5C 509.685,344.479 506.685,347.312 502.5,349C 495.508,349.5 488.508,349.666 481.5,349.5C 481.666,356.508 481.5,363.508 481,370.5C 475.848,379.475 468.348,381.975 458.5,378C 456,376.833 454.167,375 453,372.5C 451.568,364.946 451.068,357.279 451.5,349.5C 444.492,349.666 437.492,349.5 430.5,349C 421.525,343.848 419.025,336.348 423,326.5C 424.167,324 426,322.167 428.5,321C 436.054,319.568 443.721,319.068 451.5,319.5C 451.334,312.492 451.5,305.492 452,298.5C 457.152,289.525 464.652,287.025 474.5,291C 477,292.167 478.833,294 480,296.5C 481.432,304.054 481.932,311.721 481.5,319.5C 488.508,319.334 495.508,319.5 502.5,320C 506.685,321.688 509.685,324.521 511.5,328.5 Z"/></g>
<g><path style="opacity:1" fill="#453d81" d="M 221.5,291.5 C 225.167,294.833 228.833,298.167 232.5,301.5C 236.261,308.053 236.428,314.719 233,321.5C 171.833,382.667 110.667,443.833 49.5,505C 45.5661,507.464 41.5661,509.631 37.5,511.5C 32.1667,511.5 26.8333,511.5 21.5,511.5C 16.6977,509.599 12.3643,506.932 8.5,503.5C 78.8341,432.166 149.834,361.499 221.5,291.5 Z"/></g>
<g><path style="opacity:0.961" fill="#ffb354" d="M 340.5,304.5 C 356.654,302.487 363.487,309.487 361,325.5C 356.652,333.915 349.819,336.748 340.5,334C 332.085,329.652 329.252,322.819 332,313.5C 333.688,309.315 336.521,306.315 340.5,304.5 Z"/></g>
</svg>
