<?xml version="1.0" encoding="UTF-8"?>
<!DOCTYPE svg PUBLIC "-//W3C//DTD SVG 1.1//EN" "http://www.w3.org/Graphics/SVG/1.1/DTD/svg11.dtd">
<svg xmlns="http://www.w3.org/2000/svg" version="1.1" width="512px" height="512px" style="shape-rendering:geometricPrecision; text-rendering:geometricPrecision; image-rendering:optimizeQuality; fill-rule:evenodd; clip-rule:evenodd" xmlns:xlink="http://www.w3.org/1999/xlink">
<g><path style="opacity:0.99" fill="#fe9d01" d="M 244.5,-0.5 C 251.833,-0.5 259.167,-0.5 266.5,-0.5C 274.4,1.61514 281.734,5.11514 288.5,10C 304.395,26.0623 320.395,41.8957 336.5,57.5C 282.5,58.8333 228.5,58.8333 174.5,57.5C 190.605,41.8957 206.605,26.0623 222.5,10C 229.266,5.11514 236.6,1.61514 244.5,-0.5 Z"/></g>
<g><path style="opacity:0.999" fill="#f3ede5" d="M 174.5,57.5 C 228.5,58.8333 282.5,58.8333 336.5,57.5C 361.169,57.3334 385.836,57.5 410.5,58C 437.516,60.6828 454.349,75.1828 461,101.5C 461.5,128.498 461.667,155.498 461.5,182.5C 461.5,209.5 461.5,236.5 461.5,263.5C 427.451,298.55 392.784,332.883 357.5,366.5C 334.673,342.84 311.34,319.673 287.5,297C 266.124,283.07 244.791,283.07 223.5,297C 199.327,320.34 175.327,343.84 151.5,367.5C 118.201,333.701 84.7015,300.035 51,266.5C 50.8323,238.33 50.3323,210.33 49.5,182.5C 49.3334,156.498 49.5,130.498 50,104.5C 54.0792,80.4214 67.9125,65.2547 91.5,59C 119.141,57.5916 146.808,57.0916 174.5,57.5 Z"/></g>
<g><path style="opacity:1" fill="#04bf03" d="M 241.5,84.5 C 288.214,81.0914 320.714,100.758 339,143.5C 350.436,185.526 338.936,219.692 304.5,246C 267.779,267.109 232.445,265.109 198.5,240C 168.553,211.479 160.386,177.646 174,138.5C 187.705,109.41 210.205,91.4101 241.5,84.5 Z"/></g>
<g><path style="opacity:1" fill="#fbfefb" d="M 296.5,132.5 C 305.161,131.329 308.994,134.996 308,143.5C 307,145.167 306,146.833 305,148.5C 283.737,169.219 262.57,190.052 241.5,211C 238.167,213 234.833,213 231.5,211C 222.333,201.833 213.167,192.667 204,183.5C 201.224,177.866 202.391,173.366 207.5,170C 209.833,169.333 212.167,169.333 214.5,170C 222.303,176.802 229.803,183.969 237,191.5C 256.728,171.604 276.562,151.938 296.5,132.5 Z"/></g>
<g><path style="opacity:0.986" fill="#ff9d00" d="M 49.5,182.5 C 49.6666,209.835 49.5,237.169 49,264.5C 35.6318,250.965 22.1318,237.631 8.5,224.5C 21.4474,209.885 35.114,195.885 49.5,182.5 Z"/></g>
<g><path style="opacity:0.987" fill="#ff9d00" d="M 461.5,182.5 C 475.5,195.833 489.167,209.5 502.5,223.5C 488.833,236.833 475.167,250.167 461.5,263.5C 461.5,236.5 461.5,209.5 461.5,182.5 Z"/></g>
<g><path style="opacity:1" fill="#febd1d" d="M 502.5,223.5 C 502.667,304.834 502.5,386.167 502,467.5C 499.943,478.954 494.776,488.62 486.5,496.5C 444.189,452.522 401.189,409.189 357.5,366.5C 392.784,332.883 427.451,298.55 461.5,263.5C 475.167,250.167 488.833,236.833 502.5,223.5 Z"/></g>
<g><path style="opacity:1" fill="#febd1d" d="M 49.5,182.5 C 50.3323,210.33 50.8323,238.33 51,266.5C 84.7015,300.035 118.201,333.701 151.5,367.5C 109.535,409.965 67.3681,452.299 25,494.5C 24.5357,495.094 24.369,495.761 24.5,496.5C 16.2236,488.62 11.057,478.954 9,467.5C 8.5,386.501 8.33334,305.501 8.5,224.5C 22.1318,237.631 35.6318,250.965 49,264.5C 49.5,237.169 49.6666,209.835 49.5,182.5 Z"/></g>
<g><path style="opacity:1" fill="#fedf01" d="M 357.5,366.5 C 401.189,409.189 444.189,452.522 486.5,496.5C 479.328,504.086 470.661,509.086 460.5,511.5C 324.167,511.5 187.833,511.5 51.5,511.5C 40.9079,509.37 31.9079,504.37 24.5,496.5C 24.369,495.761 24.5357,495.094 25,494.5C 67.3681,452.299 109.535,409.965 151.5,367.5C 175.327,343.84 199.327,320.34 223.5,297C 244.791,283.07 266.124,283.07 287.5,297C 311.34,319.673 334.673,342.84 357.5,366.5 Z"/></g>
</svg>
