<?xml version="1.0" encoding="UTF-8"?>
<!DOCTYPE svg PUBLIC "-//W3C//DTD SVG 1.1//EN" "http://www.w3.org/Graphics/SVG/1.1/DTD/svg11.dtd">
<svg xmlns="http://www.w3.org/2000/svg" version="1.1" width="512px" height="512px" style="shape-rendering:geometricPrecision; text-rendering:geometricPrecision; image-rendering:optimizeQuality; fill-rule:evenodd; clip-rule:evenodd" xmlns:xlink="http://www.w3.org/1999/xlink">
<g><path style="opacity:0.994" fill="#fee04c" d="M 389.5,319.5 C 388.154,317.463 386.82,315.463 385.5,313.5C 338.152,231.465 290.818,149.465 243.5,67.5C 243.34,65.847 242.674,64.5137 241.5,63.5C 237.01,43.9851 243.344,29.1518 260.5,19C 282.787,11.3938 299.62,17.8938 311,38.5C 354.081,113.663 397.414,188.663 441,263.5C 445.27,271.041 449.27,278.707 453,286.5C 457.666,309.807 448.832,325.307 426.5,333C 412.247,335.581 400.08,331.748 390,321.5C 389.536,320.906 389.369,320.239 389.5,319.5 Z"/></g>
<g><path style="opacity:0.918" fill="#cccccc" d="M 405.5,15.5 C 412.282,14.1247 415.448,16.7913 415,23.5C 403.939,46.6231 392.605,69.6231 381,92.5C 376.585,95.5496 372.918,94.8829 370,90.5C 369.333,88.8333 369.333,87.1667 370,85.5C 381.081,61.6695 392.915,38.3362 405.5,15.5 Z"/></g>
<g><path style="opacity:0.996" fill="#fba516" d="M 241.5,63.5 C 242.674,64.5137 243.34,65.847 243.5,67.5C 240.963,69.5731 239.796,72.2398 240,75.5C 286.596,156.366 333.429,237.033 380.5,317.5C 382.858,316.846 384.525,315.513 385.5,313.5C 386.82,315.463 388.154,317.463 389.5,319.5C 326.165,326.5 262.831,333.5 199.5,340.5C 179.608,306.39 159.441,272.39 139,238.5C 136.723,234.92 134.223,231.586 131.5,228.5C 168.167,173.5 204.833,118.5 241.5,63.5 Z"/></g>
<g><path style="opacity:1" fill="#fb9616" d="M 243.5,67.5 C 290.818,149.465 338.152,231.465 385.5,313.5C 384.525,315.513 382.858,316.846 380.5,317.5C 333.429,237.033 286.596,156.366 240,75.5C 239.796,72.2398 240.963,69.5731 243.5,67.5 Z"/></g>
<g><path style="opacity:0.918" fill="#cccccc" d="M 455.5,100.5 C 463.845,100.691 466.178,104.524 462.5,112C 442.33,123.919 421.996,135.586 401.5,147C 394.625,147.448 392.125,144.282 394,137.5C 394.833,136.667 395.667,135.833 396.5,135C 416.23,123.473 435.896,111.973 455.5,100.5 Z"/></g>
<g><path style="opacity:0.923" fill="#cccccc" d="M 511.5,185.5 C 511.5,187.833 511.5,190.167 511.5,192.5C 509.551,194.305 507.218,195.305 504.5,195.5C 479.171,193.667 453.837,191.834 428.5,190C 424.5,186 424.5,182 428.5,178C 455.187,179.001 481.854,180.668 508.5,183C 509.373,184.045 510.373,184.878 511.5,185.5 Z"/></g>
<g><path style="opacity:1" fill="#fb9515" d="M 131.5,228.5 C 134.223,231.586 136.723,234.92 139,238.5C 159.441,272.39 179.608,306.39 199.5,340.5C 195.519,341.021 191.519,341.354 187.5,341.5C 165.713,307.364 144.713,272.698 124.5,237.5C 127.075,234.681 129.408,231.681 131.5,228.5 Z"/></g>
<g><path style="opacity:0.995" fill="#fde04c" d="M 124.5,237.5 C 144.713,272.698 165.713,307.364 187.5,341.5C 189.971,345.356 190.138,349.356 188,353.5C 181.22,358.783 174.054,363.45 166.5,367.5C 148.992,377.083 131.992,387.416 115.5,398.5C 107.861,403.235 100.028,407.568 92,411.5C 88.9683,410.908 86.3016,409.574 84,407.5C 80.3918,401.266 76.5585,395.266 72.5,389.5C 70.5594,384.285 68.0594,379.285 65,374.5C 54.4155,357.667 44.0822,340.667 34,323.5C 32.9509,321.382 31.4509,319.716 29.5,318.5C 25.3758,311.086 21.3758,303.586 17.5,296C 18.1311,292.403 19.7978,289.403 22.5,287C 52.5,269 82.5,251 112.5,233C 117.488,231.998 121.488,233.498 124.5,237.5 Z"/></g>
<g><path style="opacity:1" fill="#fb9515" d="M 29.5,318.5 C 31.4509,319.716 32.9509,321.382 34,323.5C 44.0822,340.667 54.4155,357.667 65,374.5C 68.0594,379.285 70.5594,384.285 72.5,389.5C 68.7004,391.234 65.0337,393.234 61.5,395.5C 61.2447,392.984 60.4114,390.65 59,388.5C 45.9702,367.327 32.8036,346.327 19.5,325.5C 22.8333,323.167 26.1667,320.833 29.5,318.5 Z"/></g>
<g><path style="opacity:0.983" fill="#fba516" d="M 19.5,325.5 C 32.8036,346.327 45.9702,367.327 59,388.5C 60.4114,390.65 61.2447,392.984 61.5,395.5C 56.0534,398.44 50.7201,401.607 45.5,405C 41.7054,405.837 38.0387,405.504 34.5,404C 22.9335,385.019 11.2668,366.185 -0.5,347.5C -0.5,344.5 -0.5,341.5 -0.5,338.5C 5.43949,333.187 12.1062,328.854 19.5,325.5 Z"/></g>
<g><path style="opacity:1" fill="#cc4247" d="M 166.5,367.5 C 168.432,370.366 170.099,373.366 171.5,376.5C 171.063,378.074 170.063,379.241 168.5,380C 153.107,389.694 137.44,398.861 121.5,407.5C 119.265,404.709 117.265,401.709 115.5,398.5C 131.992,387.416 148.992,377.083 166.5,367.5 Z"/></g>
<g><path style="opacity:0.989" fill="#e1474e" d="M 171.5,376.5 C 189.927,405.683 207.594,435.35 224.5,465.5C 223.764,467.541 222.931,469.541 222,471.5C 209.752,479.709 197.252,487.542 184.5,495C 181.5,495.667 178.5,495.667 175.5,495C 156.35,466.531 138.35,437.364 121.5,407.5C 137.44,398.861 153.107,389.694 168.5,380C 170.063,379.241 171.063,378.074 171.5,376.5 Z"/></g>
</svg>
