<?xml version="1.0" encoding="UTF-8"?>
<!DOCTYPE svg PUBLIC "-//W3C//DTD SVG 1.1//EN" "http://www.w3.org/Graphics/SVG/1.1/DTD/svg11.dtd">
<svg xmlns="http://www.w3.org/2000/svg" version="1.1" width="512px" height="512px" style="shape-rendering:geometricPrecision; text-rendering:geometricPrecision; image-rendering:optimizeQuality; fill-rule:evenodd; clip-rule:evenodd" xmlns:xlink="http://www.w3.org/1999/xlink">
<g><path style="opacity:0.973" fill="#d6ebe8" d="M 154.5,-0.5 C 155.5,-0.5 156.5,-0.5 157.5,-0.5C 152.419,11.7529 147.752,24.0863 143.5,36.5C 123.062,40.4541 102.728,44.7874 82.5,49.5C 103.709,28.8889 127.709,12.2222 154.5,-0.5 Z"/></g>
<g><path style="opacity:0.93" fill="#fddc90" d="M 437.5,-0.5 C 438.167,-0.5 438.833,-0.5 439.5,-0.5C 440.167,1.16667 440.833,2.83333 441.5,4.5C 423.533,31.4771 405.533,58.4771 387.5,85.5C 384.968,84.4043 382.635,83.0709 380.5,81.5C 386.996,72.5145 392.996,63.1812 398.5,53.5C 403.407,51.261 408.074,48.5943 412.5,45.5C 420.846,30.1396 429.179,14.8063 437.5,-0.5 Z"/></g>
<g><path style="opacity:0.991" fill="#fcd787" d="M 441.5,4.5 C 443.008,6.18147 444.008,8.18147 444.5,10.5C 427.526,36.4823 410.526,62.4823 393.5,88.5C 391.517,87.5294 389.517,86.5294 387.5,85.5C 405.533,58.4771 423.533,31.4771 441.5,4.5 Z"/></g>
<g><path style="opacity:0.996" fill="#fbd17b" d="M 444.5,10.5 C 446.988,13.4658 448.988,16.7991 450.5,20.5C 434.442,43.5945 418.609,66.9278 403,90.5C 402.517,91.448 402.351,92.448 402.5,93.5C 399.331,92.0834 396.331,90.4168 393.5,88.5C 410.526,62.4823 427.526,36.4823 444.5,10.5 Z"/></g>
<g><path style="opacity:0.996" fill="#fac96d" d="M 450.5,20.5 C 453.167,25.1667 455.833,29.8333 458.5,34.5C 457.504,34.4142 456.671,34.7476 456,35.5C 441.973,57.5767 427.473,79.2434 412.5,100.5C 409.516,97.6742 406.183,95.3409 402.5,93.5C 402.351,92.448 402.517,91.448 403,90.5C 418.609,66.9278 434.442,43.5945 450.5,20.5 Z"/></g>
<g><path style="opacity:0.992" fill="#d1e8e8" d="M 143.5,36.5 C 139.675,51.6277 137.008,66.961 135.5,82.5C 104.48,88.7039 73.4804,95.0373 42.5,101.5C 41.7025,101.043 41.3691,100.376 41.5,99.5C 52.9285,81.0644 66.5951,64.3978 82.5,49.5C 102.728,44.7874 123.062,40.4541 143.5,36.5 Z"/></g>
<g><path style="opacity:0.99" fill="#f9bd58" d="M 458.5,34.5 C 460.513,38.5266 462.513,42.5266 464.5,46.5C 450.677,67.4715 436.844,88.4715 423,109.5C 422.241,111.063 421.074,112.063 419.5,112.5C 417.167,108.5 414.833,104.5 412.5,100.5C 427.473,79.2434 441.973,57.5767 456,35.5C 456.671,34.7476 457.504,34.4142 458.5,34.5 Z"/></g>
<g><path style="opacity:0.991" fill="#f8b549" d="M 464.5,46.5 C 467.76,47.7738 470.76,49.4405 473.5,51.5C 457.471,74.0497 441.971,97.0497 427,120.5C 426.329,121.252 425.496,121.586 424.5,121.5C 422.595,118.696 420.929,115.696 419.5,112.5C 421.074,112.063 422.241,111.063 423,109.5C 436.844,88.4715 450.677,67.4715 464.5,46.5 Z"/></g>
<g><path style="opacity:0.988" fill="#f7ae3d" d="M 473.5,51.5 C 476.331,52.0787 478.664,53.412 480.5,55.5C 463.448,80.5575 446.781,105.891 430.5,131.5C 428.012,128.534 426.012,125.201 424.5,121.5C 425.496,121.586 426.329,121.252 427,120.5C 441.971,97.0497 457.471,74.0497 473.5,51.5 Z"/></g>
<g><path style="opacity:0.992" fill="#f6a730" d="M 480.5,55.5 C 483.992,56.4097 486.992,58.0764 489.5,60.5C 487.926,60.9371 486.759,61.9371 486,63.5C 470.249,88.0045 454.249,112.338 438,136.5C 437.241,138.063 436.074,139.063 434.5,139.5C 432.659,137.151 431.326,134.485 430.5,131.5C 446.781,105.891 463.448,80.5575 480.5,55.5 Z"/></g>
<g><path style="opacity:0.948" fill="#fee5a0" d="M 398.5,53.5 C 392.996,63.1812 386.996,72.5145 380.5,81.5C 375.035,78.9339 369.702,76.1006 364.5,73C 375.698,66.2354 387.031,59.7354 398.5,53.5 Z"/></g>
<g><path style="opacity:0.954" fill="#f6a327" d="M 489.5,60.5 C 491.954,61.2271 494.287,62.2271 496.5,63.5C 490.572,72.3595 484.906,81.3595 479.5,90.5C 474.729,93.7256 469.729,96.7256 464.5,99.5C 456.173,115.491 447.34,131.157 438,146.5C 436.82,144.14 435.653,141.807 434.5,139.5C 436.074,139.063 437.241,138.063 438,136.5C 454.249,112.338 470.249,88.0045 486,63.5C 486.759,61.9371 487.926,60.9371 489.5,60.5 Z"/></g>
<g><path style="opacity:0.955" fill="#f59a17" d="M 496.5,63.5 C 501.368,66.4338 506.368,69.1005 511.5,71.5C 511.5,72.1667 511.5,72.8333 511.5,73.5C 500.816,79.1953 490.15,84.862 479.5,90.5C 484.906,81.3595 490.572,72.3595 496.5,63.5 Z"/></g>
<g><path style="opacity:0.995" fill="#cae5e9" d="M 135.5,82.5 C 132.869,99.8637 132.869,117.197 135.5,134.5C 95.6377,142.306 55.8043,150.306 16,158.5C 15.0979,158.257 14.2646,157.923 13.5,157.5C 20.193,136.784 29.5264,117.45 41.5,99.5C 41.3691,100.376 41.7025,101.043 42.5,101.5C 73.4804,95.0373 104.48,88.7039 135.5,82.5 Z"/></g>
<g><path style="opacity:0.965" fill="#f6a830" d="M 264.5,88.5 C 258.575,88.9182 252.741,89.9182 247,91.5C 246.235,91.4301 245.735,91.0967 245.5,90.5C 248.302,84.2321 251.635,78.2321 255.5,72.5C 259.019,77.5368 262.019,82.8702 264.5,88.5 Z"/></g>
<g><path style="opacity:0.968" fill="#f59b1a" d="M 264.5,88.5 C 266.008,90.1815 267.008,92.1815 267.5,94.5C 257.279,96.1775 247.113,98.1775 237,100.5C 236.235,100.43 235.735,100.097 235.5,99.5C 237.473,98.5133 239.473,97.5133 241.5,96.5C 242.857,94.4346 244.19,92.4346 245.5,90.5C 245.735,91.0967 246.235,91.4301 247,91.5C 252.741,89.9182 258.575,88.9182 264.5,88.5 Z"/></g>
<g><path style="opacity:0.98" fill="#f49107" d="M 267.5,94.5 C 275.77,99.3066 284.104,104.14 292.5,109C 284.251,113.707 276.084,118.541 268,123.5C 264.342,131.486 260.175,139.153 255.5,146.5C 250.825,139.153 246.658,131.486 243,123.5C 234.916,118.541 226.749,113.707 218.5,109C 224.194,105.821 229.861,102.655 235.5,99.5C 235.735,100.097 236.235,100.43 237,100.5C 247.113,98.1775 257.279,96.1775 267.5,94.5 Z"/></g>
<g><path style="opacity:0.994" fill="#c4e1e9" d="M 135.5,134.5 C 136.428,149.065 138.761,163.399 142.5,177.5C 95.802,186.706 49.1353,196.04 2.5,205.5C 4.59168,189.134 8.25835,173.134 13.5,157.5C 14.2646,157.923 15.0979,158.257 16,158.5C 55.8043,150.306 95.6377,142.306 135.5,134.5 Z"/></g>
<g><path style="opacity:0.995" fill="#bedeea" d="M 142.5,177.5 C 146.9,192.032 151.9,206.365 157.5,220.5C 156.584,220.018 155.584,219.685 154.5,219.5C 102.79,229.709 51.1236,240.042 -0.5,250.5C -0.5,242.5 -0.5,234.5 -0.5,226.5C 0.332816,219.576 1.33282,212.576 2.5,205.5C 49.1353,196.04 95.802,186.706 142.5,177.5 Z"/></g>
<g><path style="opacity:0.996" fill="#b9dbea" d="M 157.5,220.5 C 161.405,227.308 165.072,234.308 168.5,241.5C 112.872,253.026 57.2057,264.693 1.5,276.5C 1.10156,270.661 0.43489,264.994 -0.5,259.5C -0.5,256.5 -0.5,253.5 -0.5,250.5C 51.1236,240.042 102.79,229.709 154.5,219.5C 155.584,219.685 156.584,220.018 157.5,220.5 Z"/></g>
<g><path style="opacity:0.96" fill="#f4920a" d="M 364.5,218.5 C 367.471,221.754 369.971,225.42 372,229.5C 376.133,231.81 379.966,234.476 383.5,237.5C 380.163,240.171 376.496,242.337 372.5,244C 370.543,248.083 368.21,251.917 365.5,255.5C 362.476,251.966 359.81,248.133 357.5,244C 353.664,241.916 349.997,239.583 346.5,237C 350.668,234.75 354.668,232.25 358.5,229.5C 360.766,225.966 362.766,222.3 364.5,218.5 Z"/></g>
<g><path style="opacity:0.997" fill="#b6d9eb" d="M 168.5,241.5 C 172.082,246.994 175.415,252.661 178.5,258.5C 120.771,270.913 62.7713,282.579 4.5,293.5C 3.22472,287.914 2.22472,282.247 1.5,276.5C 57.2057,264.693 112.872,253.026 168.5,241.5 Z"/></g>
<g><path style="opacity:0.996" fill="#b1d7eb" d="M 178.5,258.5 C 190.386,274.061 203.053,289.061 216.5,303.5C 150.611,316.344 84.9439,329.678 19.5,343.5C 12.3499,327.586 7.34992,310.919 4.5,293.5C 62.7713,282.579 120.771,270.913 178.5,258.5 Z"/></g>
<g><path style="opacity:0.997" fill="#abd3ec" d="M 216.5,303.5 C 230.603,316.048 245.603,327.382 261.5,337.5C 261.389,338.117 261.056,338.617 260.5,339C 186.753,353.649 113.086,368.483 39.5,383.5C 31.2656,371.031 24.5989,357.698 19.5,343.5C 84.9439,329.678 150.611,316.344 216.5,303.5 Z"/></g>
<g><path style="opacity:0.997" fill="#a5d0ec" d="M 261.5,337.5 C 284.064,351.114 308.064,361.447 333.5,368.5C 245.114,386.244 156.781,404.244 68.5,422.5C 57.1301,410.757 47.4634,397.757 39.5,383.5C 113.086,368.483 186.753,353.649 260.5,339C 261.056,338.617 261.389,338.117 261.5,337.5 Z"/></g>
<g><path style="opacity:0.996" fill="#9fccec" d="M 511.5,353.5 C 511.5,354.5 511.5,355.5 511.5,356.5C 507.005,365.493 502.005,374.16 496.5,382.5C 496.631,381.624 496.298,380.957 495.5,380.5C 366.471,406.506 237.471,432.506 108.5,458.5C 93.6175,448.287 80.2842,436.287 68.5,422.5C 156.781,404.244 245.114,386.244 333.5,368.5C 394.556,383.726 453.889,378.726 511.5,353.5 Z"/></g>
<g><path style="opacity:0.998" fill="#99c9ed" d="M 496.5,382.5 C 485.051,402.696 470.717,420.696 453.5,436.5C 359.409,454.418 265.409,472.918 171.5,492C 170.944,492.383 170.611,492.883 170.5,493.5C 147.916,484.884 127.249,473.218 108.5,458.5C 237.471,432.506 366.471,406.506 495.5,380.5C 496.298,380.957 496.631,381.624 496.5,382.5 Z"/></g>
<g><path style="opacity:0.989" fill="#93c6ee" d="M 453.5,436.5 C 405.927,481.61 349.26,506.61 283.5,511.5C 272.833,511.5 262.167,511.5 251.5,511.5C 223.761,509.35 196.761,503.35 170.5,493.5C 170.611,492.883 170.944,492.383 171.5,492C 265.409,472.918 359.409,454.418 453.5,436.5 Z"/></g>
</svg>
