<?xml version="1.0" encoding="UTF-8"?>
<!DOCTYPE svg PUBLIC "-//W3C//DTD SVG 1.1//EN" "http://www.w3.org/Graphics/SVG/1.1/DTD/svg11.dtd">
<svg xmlns="http://www.w3.org/2000/svg" version="1.1" width="512px" height="513px" style="shape-rendering:geometricPrecision; text-rendering:geometricPrecision; image-rendering:optimizeQuality; fill-rule:evenodd; clip-rule:evenodd" xmlns:xlink="http://www.w3.org/1999/xlink">
<g><path style="opacity:0.998" fill="#fb476d" d="M 338.5,-0.5 C 352.833,-0.5 367.167,-0.5 381.5,-0.5C 384.743,0.490491 388.076,1.49049 391.5,2.5C 437.851,40.0678 451.017,87.0678 431,143.5C 406.521,191.998 367.021,215.165 312.5,213C 306.422,212.146 300.422,210.98 294.5,209.5C 293.833,209.167 293.167,208.833 292.5,208.5C 262.666,186.51 246.666,156.844 244.5,119.5C 244.123,109.411 244.79,99.4111 246.5,89.5C 250.317,74.5353 256.317,60.5353 264.5,47.5C 283.081,22.2754 307.748,6.27538 338.5,-0.5 Z"/></g>
<g><path style="opacity:1" fill="#cc2b5a" d="M 391.5,2.5 C 429.245,13.7396 455.411,37.7396 470,74.5C 485.422,124.987 473.922,168.153 435.5,204C 416.594,219.364 394.927,228.197 370.5,230.5C 350.734,231.872 331.734,228.706 313.5,221C 306.469,218.098 300.136,214.264 294.5,209.5C 300.422,210.98 306.422,212.146 312.5,213C 367.021,215.165 406.521,191.998 431,143.5C 451.017,87.0678 437.851,40.0678 391.5,2.5 Z"/></g>
<g><path style="opacity:1" fill="#f2b51d" d="M 264.5,47.5 C 256.317,60.5353 250.317,74.5353 246.5,89.5C 243.266,89.7954 240.266,89.1287 237.5,87.5C 249.964,63.8987 244.631,45.5654 221.5,32.5C 239.267,27.7551 253.6,32.7551 264.5,47.5 Z"/></g>
<g><path style="opacity:0.985" fill="#f6c82b" d="M 221.5,32.5 C 244.631,45.5654 249.964,63.8987 237.5,87.5C 240.266,89.1287 243.266,89.7954 246.5,89.5C 244.79,99.4111 244.123,109.411 244.5,119.5C 229.76,108.296 213.427,99.9623 195.5,94.5C 199.001,93.2005 202.667,92.0338 206.5,91C 192.817,72.3853 194.15,54.7187 210.5,38C 213.91,35.6284 217.577,33.7951 221.5,32.5 Z"/></g>
<g><path style="opacity:1" fill="#e3f8fd" d="M 352.5,161.5 C 352.667,135.165 352.5,108.831 352,82.5C 351.283,83.0442 350.783,83.7109 350.5,84.5C 344.472,89.2455 339.639,88.2455 336,81.5C 335.294,79.0288 335.627,76.6954 337,74.5C 343.5,68.6667 350,62.8333 356.5,57C 361.731,55.2762 365.565,56.7762 368,61.5C 368.667,95.5 368.667,129.5 368,163.5C 365.459,168.069 361.625,169.569 356.5,168C 354.266,166.362 352.933,164.195 352.5,161.5 Z"/></g>
<g><path style="opacity:1" fill="#f57a96" d="M 352.5,161.5 C 351.833,135.833 351.167,110.167 350.5,84.5C 350.783,83.7109 351.283,83.0442 352,82.5C 352.5,108.831 352.667,135.165 352.5,161.5 Z"/></g>
<g><path style="opacity:0.996" fill="#f7e148" d="M 195.5,94.5 C 213.427,99.9623 229.76,108.296 244.5,119.5C 246.666,156.844 262.666,186.51 292.5,208.5C 293.298,235.143 293.798,261.81 294,288.5C 296.844,305.047 303.177,320.047 313,333.5C 323.363,344.197 334.029,354.53 345,364.5C 360.262,391.65 355.762,414.816 331.5,434C 324.979,437.225 318.312,439.725 311.5,441.5C 305.167,441.5 298.833,441.5 292.5,441.5C 280.833,441.5 269.167,441.5 257.5,441.5C 229.5,441.5 201.5,441.5 173.5,441.5C 140.498,441.667 107.498,441.5 74.5,441C 43.3677,430.917 31.201,409.75 38,377.5C 39.8883,372.055 42.555,367.055 46,362.5C 53.2046,355.627 60.7046,349.127 68.5,343C 86.2807,325.601 96.1141,304.434 98,279.5C 98.3333,256.167 98.6667,232.833 99,209.5C 105.075,163.153 128.242,128.319 168.5,105C 177.103,100.411 186.103,96.9115 195.5,94.5 Z"/></g>
<g><path style="opacity:1" fill="#f6c92b" d="M 292.5,208.5 C 293.167,208.833 293.833,209.167 294.5,209.5C 300.136,214.264 306.469,218.098 313.5,221C 331.734,228.706 350.734,231.872 370.5,230.5C 370.333,249.836 370.5,269.17 371,288.5C 375.95,316.569 390.117,338.735 413.5,355C 430.575,372.037 434.741,391.87 426,414.5C 419.205,426.956 409.038,435.456 395.5,440C 367.551,441.466 339.551,441.966 311.5,441.5C 318.312,439.725 324.979,437.225 331.5,434C 355.762,414.816 360.262,391.65 345,364.5C 334.029,354.53 323.363,344.197 313,333.5C 303.177,320.047 296.844,305.047 294,288.5C 293.798,261.81 293.298,235.143 292.5,208.5 Z"/></g>
<g><path style="opacity:0.989" fill="#f6c82a" d="M 173.5,441.5 C 201.5,441.5 229.5,441.5 257.5,441.5C 260.151,474.224 246.484,496.891 216.5,509.5C 184.511,498.222 170.178,475.556 173.5,441.5 Z"/></g>
<g><path style="opacity:1" fill="#f2b51d" d="M 257.5,441.5 C 269.167,441.5 280.833,441.5 292.5,441.5C 295.951,478.096 279.951,501.263 244.5,511C 235.027,511.979 225.693,511.479 216.5,509.5C 246.484,496.891 260.151,474.224 257.5,441.5 Z"/></g>
</svg>
