<?xml version="1.0" encoding="UTF-8"?>
<!DOCTYPE svg PUBLIC "-//W3C//DTD SVG 1.1//EN" "http://www.w3.org/Graphics/SVG/1.1/DTD/svg11.dtd">
<svg xmlns="http://www.w3.org/2000/svg" version="1.1" width="512px" height="512px" style="shape-rendering:geometricPrecision; text-rendering:geometricPrecision; image-rendering:optimizeQuality; fill-rule:evenodd; clip-rule:evenodd" xmlns:xlink="http://www.w3.org/1999/xlink">
<g><path style="opacity:0.98" fill="#506272" d="M 456.5,-0.5 C 460.167,-0.5 463.833,-0.5 467.5,-0.5C 430.883,37.784 393.55,75.4507 355.5,112.5C 348.5,112.5 341.5,112.5 334.5,112.5C 368.965,77.5346 403.632,42.7013 438.5,8C 444.208,4.31011 450.208,1.47678 456.5,-0.5 Z"/></g>
<g><path style="opacity:1" fill="#3e4d59" d="M 467.5,-0.5 C 470.5,-0.5 473.5,-0.5 476.5,-0.5C 494.5,4.83333 506.167,16.5 511.5,34.5C 511.5,40.8333 511.5,47.1667 511.5,53.5C 509.546,61.7379 505.713,69.0712 500,75.5C 488.359,88.4824 475.525,99.9824 461.5,110C 434.825,123.304 408.659,122.471 383,107.5C 375.964,114.368 369.131,121.368 362.5,128.5C 359.547,129.787 357.214,131.787 355.5,134.5C 355.5,127.5 355.5,120.5 355.5,113.5C 355.5,113.167 355.5,112.833 355.5,112.5C 393.55,75.4507 430.883,37.784 467.5,-0.5 Z M 463.5,29.5 C 476.465,29.9677 481.965,36.6344 480,49.5C 470.53,59.9706 460.697,70.1372 450.5,80C 436.615,89.3959 421.948,90.8959 406.5,84.5C 423.653,66.8472 440.986,49.3472 458.5,32C 460.315,31.2432 461.981,30.4098 463.5,29.5 Z"/></g>
<g><path style="opacity:0.994" fill="#ffe57f" d="M 334.5,112.5 C 341.5,112.5 348.5,112.5 355.5,112.5C 355.5,112.833 355.5,113.167 355.5,113.5C 326.368,142.132 297.368,170.965 268.5,200C 267.906,200.464 267.239,200.631 266.5,200.5C 263.187,197.522 259.853,194.522 256.5,191.5C 248.5,199.167 240.5,206.833 232.5,214.5C 205.561,204.533 185.395,212.2 172,237.5C 166.079,255.72 169.246,272.054 181.5,286.5C 175.111,293.891 168.111,300.557 160.5,306.5C 157.822,303.818 156.489,300.485 156.5,296.5C 157.177,292.528 158.344,288.861 160,285.5C 153.319,278.652 146.486,271.985 139.5,265.5C 125.528,280.553 122.861,297.386 131.5,316C 123.652,323.681 115.985,331.514 108.5,339.5C 111.522,342.853 114.522,346.187 117.5,349.5C 103.525,365.142 88.8583,380.142 73.5,394.5C 48.8333,370.167 24.1667,345.833 -0.5,321.5C -0.5,320.5 -0.5,319.5 -0.5,318.5C 68.3262,249.841 137.326,181.341 206.5,113C 249.165,112.5 291.832,112.333 334.5,112.5 Z"/></g>
<g><path style="opacity:1" fill="#ffc450" d="M 355.5,113.5 C 355.5,120.5 355.5,127.5 355.5,134.5C 355.667,176.835 355.5,219.168 355,261.5C 302.604,313.396 250.77,365.729 199.5,418.5C 182.494,435.339 165.327,452.006 148,468.5C 122.672,444.339 97.839,419.672 73.5,394.5C 88.8583,380.142 103.525,365.142 117.5,349.5C 117.833,349.5 118.167,349.5 118.5,349.5C 121.796,353.298 125.296,356.964 129,360.5C 136.681,352.652 144.514,344.985 152.5,337.5C 180.565,347.546 201.065,339.212 214,312.5C 219.779,294.628 216.279,278.962 203.5,265.5C 203.5,265.167 203.5,264.833 203.5,264.5C 210.891,258.111 217.557,251.111 223.5,243.5C 223.833,243.5 224.167,243.5 224.5,243.5C 229.802,250.638 229.802,257.805 224.5,265C 231.667,272.167 238.833,279.333 246,286.5C 256.65,274.875 260.65,261.208 258,245.5C 256.555,241.85 255.555,238.183 255,234.5C 262.5,227 270,219.5 277.5,212C 273.964,208.296 270.298,204.796 266.5,201.5C 266.5,201.167 266.5,200.833 266.5,200.5C 267.239,200.631 267.906,200.464 268.5,200C 297.368,170.965 326.368,142.132 355.5,113.5 Z"/></g>
<g><path style="opacity:0.996" fill="#fe641a" d="M 362.5,128.5 C 386.452,159.624 410.619,190.624 435,221.5C 435.667,224.833 435.667,228.167 435,231.5C 423.668,324.822 412.501,418.155 401.5,511.5C 398.5,511.5 395.5,511.5 392.5,511.5C 326.364,502.608 260.031,494.108 193.5,486C 192.572,485.612 191.905,484.945 191.5,484C 194.7,462.233 197.367,440.4 199.5,418.5C 250.77,365.729 302.604,313.396 355,261.5C 355.5,219.168 355.667,176.835 355.5,134.5C 357.214,131.787 359.547,129.787 362.5,128.5 Z"/></g>
<g><path style="opacity:1" fill="#ff7b4a" d="M 266.5,200.5 C 266.5,200.833 266.5,201.167 266.5,201.5C 252.167,215.167 238.167,229.167 224.5,243.5C 224.167,243.5 223.833,243.5 223.5,243.5C 214.099,237.158 206.266,238.825 200,248.5C 199.19,253.257 199.524,257.924 201,262.5C 201.708,263.381 202.542,264.047 203.5,264.5C 203.5,264.833 203.5,265.167 203.5,265.5C 202.761,265.369 202.094,265.536 201.5,266C 194.572,272.423 188.238,279.256 182.5,286.5C 182.167,286.5 181.833,286.5 181.5,286.5C 169.246,272.054 166.079,255.72 172,237.5C 185.395,212.2 205.561,204.533 232.5,214.5C 240.5,206.833 248.5,199.167 256.5,191.5C 259.853,194.522 263.187,197.522 266.5,200.5 Z"/></g>
<g><path style="opacity:1" fill="#ff445a" d="M 266.5,201.5 C 270.298,204.796 273.964,208.296 277.5,212C 270,219.5 262.5,227 255,234.5C 255.555,238.183 256.555,241.85 258,245.5C 260.65,261.208 256.65,274.875 246,286.5C 238.833,279.333 231.667,272.167 224.5,265C 229.802,257.805 229.802,250.638 224.5,243.5C 238.167,229.167 252.167,215.167 266.5,201.5 Z"/></g>
<g><path style="opacity:1" fill="#ffe37d" d="M 223.5,243.5 C 217.557,251.111 210.891,258.111 203.5,264.5C 202.542,264.047 201.708,263.381 201,262.5C 199.524,257.924 199.19,253.257 200,248.5C 206.266,238.825 214.099,237.158 223.5,243.5 Z"/></g>
<g><path style="opacity:1" fill="#ff445a" d="M 203.5,265.5 C 216.279,278.962 219.779,294.628 214,312.5C 201.065,339.212 180.565,347.546 152.5,337.5C 144.514,344.985 136.681,352.652 129,360.5C 125.296,356.964 121.796,353.298 118.5,349.5C 132.167,335.167 146.167,321.167 160.5,307.5C 166.804,312.163 173.47,312.663 180.5,309C 187.612,302.052 188.279,294.552 182.5,286.5C 188.238,279.256 194.572,272.423 201.5,266C 202.094,265.536 202.761,265.369 203.5,265.5 Z"/></g>
<g><path style="opacity:1" fill="#ff7c4a" d="M 160.5,306.5 C 160.5,306.833 160.5,307.167 160.5,307.5C 146.167,321.167 132.167,335.167 118.5,349.5C 118.167,349.5 117.833,349.5 117.5,349.5C 114.522,346.187 111.522,342.853 108.5,339.5C 115.985,331.514 123.652,323.681 131.5,316C 122.861,297.386 125.528,280.553 139.5,265.5C 146.486,271.985 153.319,278.652 160,285.5C 158.344,288.861 157.177,292.528 156.5,296.5C 156.489,300.485 157.822,303.818 160.5,306.5 Z"/></g>
<g><path style="opacity:1" fill="#ffc350" d="M 181.5,286.5 C 181.833,286.5 182.167,286.5 182.5,286.5C 188.279,294.552 187.612,302.052 180.5,309C 173.47,312.663 166.804,312.163 160.5,307.5C 160.5,307.167 160.5,306.833 160.5,306.5C 168.111,300.557 175.111,293.891 181.5,286.5 Z"/></g>
</svg>
