<?xml version="1.0" encoding="UTF-8"?>
<!DOCTYPE svg PUBLIC "-//W3C//DTD SVG 1.1//EN" "http://www.w3.org/Graphics/SVG/1.1/DTD/svg11.dtd">
<svg xmlns="http://www.w3.org/2000/svg" version="1.1" width="512px" height="512px" style="shape-rendering:geometricPrecision; text-rendering:geometricPrecision; image-rendering:optimizeQuality; fill-rule:evenodd; clip-rule:evenodd" xmlns:xlink="http://www.w3.org/1999/xlink">
<g><path style="opacity:1" fill="#fca84c" d="M 211.5,-0.5 C 240.833,-0.5 270.167,-0.5 299.5,-0.5C 324.036,1.26659 348.703,3.26659 373.5,5.5C 410.354,92.8559 406.187,178.189 361,261.5C 341.553,294.347 316.553,322.347 286,345.5C 285.817,348.365 285.317,351.031 284.5,353.5C 284.666,346.159 284.5,338.826 284,331.5C 280.659,321.901 273.826,317.401 263.5,318C 255.103,317.13 246.77,317.463 238.5,319C 232.269,320.963 228.436,325.13 227,331.5C 226.333,341.833 226.333,352.167 227,362.5C 228.514,367.888 231.681,371.888 236.5,374.5C 178.003,400.971 117.336,406.971 54.5,392.5C 25.6095,370.402 9.44282,341.068 6,304.5C 3.26878,285.746 1.10211,267.079 -0.5,248.5C -0.5,225.167 -0.5,201.833 -0.5,178.5C 1.17577,160.261 3.34243,141.928 6,123.5C 11.6417,78.3648 34.1417,44.5315 73.5,22C 82.7215,17.1486 92.3882,13.4819 102.5,11C 138.787,5.32454 175.12,1.49121 211.5,-0.5 Z"/></g>
<g><path style="opacity:0.997" fill="#f9973e" d="M 373.5,5.5 C 424.49,7.73239 463.323,30.3991 490,73.5C 494.114,81.1757 497.447,89.1757 500,97.5C 505.705,124.384 509.538,151.384 511.5,178.5C 511.5,202.167 511.5,225.833 511.5,249.5C 509.566,276.622 505.732,303.622 500,330.5C 486.621,368.547 461.454,395.714 424.5,412C 415.783,415.429 406.783,417.763 397.5,419C 375.913,422.059 354.246,424.392 332.5,426C 316.78,450.384 300.28,474.218 283,497.5C 277.544,503.794 271.044,508.461 263.5,511.5C 258.167,511.5 252.833,511.5 247.5,511.5C 240.088,508.277 233.588,503.61 228,497.5C 210.72,474.218 194.22,450.384 178.5,426C 151.626,424.246 124.959,420.913 98.5,416C 81.863,411.52 67.1963,403.686 54.5,392.5C 117.336,406.971 178.003,400.971 236.5,374.5C 249.178,377.175 261.844,377.008 274.5,374C 282.462,369.575 285.795,362.741 284.5,353.5C 285.317,351.031 285.817,348.365 286,345.5C 316.553,322.347 341.553,294.347 361,261.5C 406.187,178.189 410.354,92.8559 373.5,5.5 Z"/></g>
<g><path style="opacity:1" fill="#fffefd" d="M 249.5,82.5 C 277.022,79.3508 302.355,85.1842 325.5,100C 354.055,122.333 362.888,150.833 352,185.5C 346.446,198.051 338.279,208.551 327.5,217C 317.844,224.163 307.844,230.83 297.5,237C 291.955,240.878 287.455,245.711 284,251.5C 284.478,261.257 282.811,270.59 279,279.5C 267.153,294.094 253.32,296.261 237.5,286C 229.707,278.124 226.374,268.624 227.5,257.5C 227.161,237.012 234.828,220.178 250.5,207C 260.896,199.607 271.563,192.607 282.5,186C 296.463,177.108 300.63,164.942 295,149.5C 290.561,143.024 284.395,139.19 276.5,138C 257.305,134.035 242.138,139.869 231,155.5C 228.333,161.5 225.667,167.5 223,173.5C 207.627,189.081 191.96,189.414 176,174.5C 169.155,164.542 167.821,153.875 172,142.5C 186.948,108.379 212.782,88.3792 249.5,82.5 Z"/></g>
<g><path style="opacity:1" fill="#fffefd" d="M 284.5,353.5 C 285.795,362.741 282.462,369.575 274.5,374C 261.844,377.008 249.178,377.175 236.5,374.5C 231.681,371.888 228.514,367.888 227,362.5C 226.333,352.167 226.333,341.833 227,331.5C 228.436,325.13 232.269,320.963 238.5,319C 246.77,317.463 255.103,317.13 263.5,318C 273.826,317.401 280.659,321.901 284,331.5C 284.5,338.826 284.666,346.159 284.5,353.5 Z"/></g>
</svg>
