<?xml version="1.0" encoding="UTF-8"?>
<!DOCTYPE svg PUBLIC "-//W3C//DTD SVG 1.1//EN" "http://www.w3.org/Graphics/SVG/1.1/DTD/svg11.dtd">
<svg xmlns="http://www.w3.org/2000/svg" version="1.1" width="512px" height="512px" style="shape-rendering:geometricPrecision; text-rendering:geometricPrecision; image-rendering:optimizeQuality; fill-rule:evenodd; clip-rule:evenodd" xmlns:xlink="http://www.w3.org/1999/xlink">
<g><path style="opacity:0.999" fill="#407093" d="M 32.5,-0.5 C 63.5,-0.5 94.5,-0.5 125.5,-0.5C 125.333,56.8343 125.5,114.168 126,171.5C 128.037,178.54 132.537,183.373 139.5,186C 216.167,186.667 292.833,186.667 369.5,186C 377.591,184.241 382.758,179.408 385,171.5C 385.5,114.168 385.667,56.8343 385.5,-0.5C 394.167,-0.5 402.833,-0.5 411.5,-0.5C 416.687,1.42666 421.687,3.92666 426.5,7C 441.369,21.7015 456.035,36.5348 470.5,51.5C 470.667,194.167 470.5,336.834 470,479.5C 465.279,497.079 454.113,507.746 436.5,511.5C 301.833,511.5 167.167,511.5 32.5,511.5C 17.5168,506.683 7.68346,496.683 3,481.5C 2.33333,330.833 2.33333,180.167 3,29.5C 7.68346,14.3174 17.5168,4.31735 32.5,-0.5 Z"/></g>
<g><path style="opacity:1" fill="#bdd7fa" d="M 125.5,-0.5 C 212.167,-0.5 298.833,-0.5 385.5,-0.5C 385.667,56.8343 385.5,114.168 385,171.5C 382.758,179.408 377.591,184.241 369.5,186C 292.833,186.667 216.167,186.667 139.5,186C 132.537,183.373 128.037,178.54 126,171.5C 125.5,114.168 125.333,56.8343 125.5,-0.5 Z"/></g>
<g><path style="opacity:1" fill="#80b4fb" d="M 298.5,39.5 C 315.503,39.3334 332.503,39.5001 349.5,40C 350,40.5 350.5,41 351,41.5C 351.667,76.1667 351.667,110.833 351,145.5C 350.5,146 350,146.5 349.5,147C 332.5,147.667 315.5,147.667 298.5,147C 298,146.5 297.5,146 297,145.5C 296.333,110.833 296.333,76.1667 297,41.5C 297.717,40.9558 298.217,40.2891 298.5,39.5 Z"/></g>
<g><path style="opacity:0.997" fill="#365e7d" d="M 470.5,51.5 C 480.798,61.2978 490.965,71.2978 501,81.5C 504.422,86.3446 506.755,91.6779 508,97.5C 508.667,225.5 508.667,353.5 508,481.5C 503.317,496.683 493.483,506.683 478.5,511.5C 464.5,511.5 450.5,511.5 436.5,511.5C 454.113,507.746 465.279,497.079 470,479.5C 470.5,336.834 470.667,194.167 470.5,51.5 Z"/></g>
<g><path style="opacity:1" fill="#d7e1f0" d="M 96.5,247.5 C 202.501,247.333 308.501,247.5 414.5,248C 423.263,250.43 429.096,255.93 432,264.5C 432.667,322.5 432.667,380.5 432,438.5C 429.798,447.369 424.298,452.869 415.5,455C 308.167,455.667 200.833,455.667 93.5,455C 85.8362,452.002 81.0029,446.502 79,438.5C 78.3333,380.5 78.3333,322.5 79,264.5C 82.0839,255.915 87.9172,250.248 96.5,247.5 Z"/></g>
<g><path style="opacity:1" fill="#79c2a4" d="M 241.5,271.5 C 283.407,267.694 313.24,284.694 331,322.5C 342.904,360.783 333.404,392.617 302.5,418C 276.361,434.46 249.027,436.794 220.5,425C 185.581,405.329 170.748,375.496 176,335.5C 185.569,301.429 207.402,280.096 241.5,271.5 Z"/></g>
<g><path style="opacity:1" fill="#b2e49f" d="M 248.5,286.5 C 285.912,286.1 309.745,303.767 320,339.5C 323.697,376.623 308.197,401.79 273.5,415C 240.967,421.979 215.8,411.479 198,383.5C 181.665,344.964 191.165,314.798 226.5,293C 233.596,289.565 240.93,287.398 248.5,286.5 Z"/></g>
<g><path style="opacity:1" fill="#79c2a3" d="M 283.5,320.5 C 293.995,319.803 297.162,324.136 293,333.5C 276.167,349.667 259.333,365.833 242.5,382C 238.206,384.386 234.373,383.886 231,380.5C 226,370.5 221,360.5 216,350.5C 215.794,341.382 219.961,338.549 228.5,342C 232.46,348.752 236.293,355.586 240,362.5C 254.699,348.633 269.199,334.633 283.5,320.5 Z"/></g>
</svg>
