<?xml version="1.0" encoding="UTF-8"?>
<!DOCTYPE svg PUBLIC "-//W3C//DTD SVG 1.1//EN" "http://www.w3.org/Graphics/SVG/1.1/DTD/svg11.dtd">
<svg xmlns="http://www.w3.org/2000/svg" version="1.1" width="512px" height="512px" style="shape-rendering:geometricPrecision; text-rendering:geometricPrecision; image-rendering:optimizeQuality; fill-rule:evenodd; clip-rule:evenodd" xmlns:xlink="http://www.w3.org/1999/xlink">
<g><path style="opacity:0.997" fill="#4cbaeb" d="M 490.5,-0.5 C 494.5,-0.5 498.5,-0.5 502.5,-0.5C 503.795,0.488369 505.128,1.48837 506.5,2.5C 506.649,3.55198 506.483,4.55198 506,5.5C 402.917,108.083 300.417,211.083 198.5,314.5C 134.224,283.029 69.8908,251.529 5.5,220C 2.84741,217.866 0.847413,215.366 -0.5,212.5C -0.5,208.833 -0.5,205.167 -0.5,201.5C 1.71515,196.793 5.38182,193.627 10.5,192C 170.719,128.1 330.719,63.9334 490.5,-0.5 Z"/></g>
<g><path style="opacity:1" fill="#2488fe" d="M 506.5,2.5 C 508.167,4.5 509.833,6.5 511.5,8.5C 511.5,12.5 511.5,16.5 511.5,20.5C 446.262,182.36 381.096,344.36 316,506.5C 314.035,508.55 311.868,510.217 309.5,511.5C 305.833,511.5 302.167,511.5 298.5,511.5C 294.597,509.434 291.43,506.434 289,502.5C 258.549,439.933 228.383,377.267 198.5,314.5C 300.417,211.083 402.917,108.083 506,5.5C 506.483,4.55198 506.649,3.55198 506.5,2.5 Z"/></g>
</svg>
