<?xml version="1.0" encoding="UTF-8"?>
<!DOCTYPE svg PUBLIC "-//W3C//DTD SVG 1.1//EN" "http://www.w3.org/Graphics/SVG/1.1/DTD/svg11.dtd">
<svg xmlns="http://www.w3.org/2000/svg" version="1.1" width="512px" height="512px" style="shape-rendering:geometricPrecision; text-rendering:geometricPrecision; image-rendering:optimizeQuality; fill-rule:evenodd; clip-rule:evenodd" xmlns:xlink="http://www.w3.org/1999/xlink">
<g><path style="opacity:0.995" fill="#6c90b8" d="M 196.5,-0.5 C 198.167,-0.5 199.833,-0.5 201.5,-0.5C 214.29,14.7944 227.29,29.9611 240.5,45C 245.489,45.4993 250.489,45.6659 255.5,45.5C 255.5,65.5 255.5,85.5 255.5,105.5C 199.057,107.295 155.89,131.962 126,179.5C 96.3186,235.794 98.9852,290.461 134,343.5C 164.577,383.373 205.077,404.04 255.5,405.5C 255.5,425.5 255.5,445.5 255.5,465.5C 250.489,465.334 245.489,465.501 240.5,466C 227.222,480.767 214.556,495.933 202.5,511.5C 200.5,511.5 198.5,511.5 196.5,511.5C 167.021,504.057 139.355,492.224 113.5,476C 113.043,475.586 112.709,475.086 112.5,474.5C 114.638,454.545 116.138,434.545 117,414.5C 109.924,406.92 102.424,399.92 94.5,393.5C 74.8423,395.487 55.1756,396.987 35.5,398C 18.9497,372.073 6.94975,344.239 -0.5,314.5C -0.5,312.833 -0.5,311.167 -0.5,309.5C 14.7944,296.71 29.9611,283.71 45,270.5C 45.6667,260.5 45.6667,250.5 45,240.5C 30.2332,227.222 15.0665,214.556 -0.5,202.5C -0.5,200.5 -0.5,198.5 -0.5,196.5C 6.82223,167.509 18.3222,140.176 34,114.5C 34.6891,113.643 35.5224,112.977 36.5,112.5C 56.4624,114.536 76.4624,116.036 96.5,117C 104.08,109.924 111.08,102.424 117.5,94.5C 115.513,74.8423 114.013,55.1756 113,35.5C 138.938,18.944 166.771,6.94396 196.5,-0.5 Z"/></g>
<g><path style="opacity:0.996" fill="#587aa1" d="M 309.5,-0.5 C 311.167,-0.5 312.833,-0.5 314.5,-0.5C 343.491,6.82223 370.824,18.3222 396.5,34C 397.894,34.956 398.561,36.2894 398.5,38C 396.589,57.5073 395.089,77.0073 394,96.5C 400.833,103.333 407.667,110.167 414.5,117C 434.901,115.917 455.235,114.584 475.5,113C 492.056,138.938 504.056,166.771 511.5,196.5C 511.5,198.5 511.5,200.5 511.5,202.5C 495.933,214.556 480.767,227.222 466,240.5C 465.333,250.5 465.333,260.5 466,270.5C 481.039,283.71 496.206,296.71 511.5,309.5C 511.5,311.167 511.5,312.833 511.5,314.5C 504.172,343.501 492.672,370.835 477,396.5C 476.044,397.894 474.711,398.561 473,398.5C 453.508,396.488 434.008,394.988 414.5,394C 407.667,400.833 400.833,407.667 394,414.5C 395.083,434.901 396.416,455.235 398,475.5C 372.073,492.05 344.239,504.05 314.5,511.5C 312.5,511.5 310.5,511.5 308.5,511.5C 296.444,495.933 283.778,480.767 270.5,466C 265.511,465.501 260.511,465.334 255.5,465.5C 255.5,445.5 255.5,425.5 255.5,405.5C 321.52,402.257 368.02,370.59 395,310.5C 416.206,249.361 404.706,195.361 360.5,148.5C 331.166,120.676 296.166,106.343 255.5,105.5C 255.5,85.5 255.5,65.5 255.5,45.5C 260.511,45.6659 265.511,45.4993 270.5,45C 283.71,29.9611 296.71,14.7944 309.5,-0.5 Z"/></g>
<g><path style="opacity:0.996" fill="#96bdda" d="M 255.5,105.5 C 255.5,125.5 255.5,145.5 255.5,165.5C 215.768,167.932 187.935,187.265 172,223.5C 158.71,266.285 169.543,301.452 204.5,329C 219.842,339.502 236.842,344.669 255.5,344.5C 255.5,364.833 255.5,385.167 255.5,405.5C 205.077,404.04 164.577,383.373 134,343.5C 98.9852,290.461 96.3186,235.794 126,179.5C 155.89,131.962 199.057,107.295 255.5,105.5 Z"/></g>
<g><path style="opacity:0.996" fill="#80a5c6" d="M 255.5,105.5 C 296.166,106.343 331.166,120.676 360.5,148.5C 404.706,195.361 416.206,249.361 395,310.5C 368.02,370.59 321.52,402.257 255.5,405.5C 255.5,385.167 255.5,364.833 255.5,344.5C 295.374,342.99 323.207,323.99 339,287.5C 352.049,246.33 342.216,211.83 309.5,184C 293.348,172.56 275.348,166.393 255.5,165.5C 255.5,145.5 255.5,125.5 255.5,105.5 Z"/></g>
</svg>
