<?xml version="1.0" encoding="UTF-8"?>
<!DOCTYPE svg PUBLIC "-//W3C//DTD SVG 1.1//EN" "http://www.w3.org/Graphics/SVG/1.1/DTD/svg11.dtd">
<svg xmlns="http://www.w3.org/2000/svg" version="1.1" width="512px" height="512px" style="shape-rendering:geometricPrecision; text-rendering:geometricPrecision; image-rendering:optimizeQuality; fill-rule:evenodd; clip-rule:evenodd" xmlns:xlink="http://www.w3.org/1999/xlink">
<g><path style="opacity:0.997" fill="#f9c795" d="M 84.5,-0.5 C 92.5,-0.5 100.5,-0.5 108.5,-0.5C 138.498,5.83017 157.498,23.8302 165.5,53.5C 138.326,72.5379 127.66,98.5379 133.5,131.5C 125.708,135.316 117.708,138.316 109.5,140.5C 100.833,140.5 92.1667,140.5 83.5,140.5C 47.085,131.221 27.7517,107.721 25.5,70C 28.1674,32.1155 47.8341,8.61549 84.5,-0.5 Z"/></g>
<g><path style="opacity:0.996" fill="#f9c795" d="M 296.5,-0.5 C 304.5,-0.5 312.5,-0.5 320.5,-0.5C 357.141,8.82645 376.808,32.4931 379.5,70.5C 378.13,101.353 363.463,123.187 335.5,136C 330.746,137.642 326.079,139.142 321.5,140.5C 312.833,140.5 304.167,140.5 295.5,140.5C 287.292,138.316 279.292,135.316 271.5,131.5C 277.351,98.5565 266.684,72.5565 239.5,53.5C 247.502,23.8302 266.502,5.83017 296.5,-0.5 Z"/></g>
<g><path style="opacity:0.998" fill="#fcd6ac" d="M 239.5,53.5 C 266.684,72.5565 277.351,98.5565 271.5,131.5C 270.958,134.673 269.958,137.673 268.5,140.5C 257.608,164.804 238.941,179.304 212.5,184C 217.351,184.174 222.018,184.674 226.5,185.5C 209.833,185.5 193.167,185.5 176.5,185.5C 181.316,184.674 186.316,184.174 191.5,184C 165.529,179.03 147.196,164.53 136.5,140.5C 135.304,137.579 134.304,134.579 133.5,131.5C 127.66,98.5379 138.326,72.5379 165.5,53.5C 183.385,43.2253 202.385,40.7253 222.5,46C 228.688,47.4464 234.354,49.9464 239.5,53.5 Z"/></g>
<g><path style="opacity:0.995" fill="#67b9cb" d="M 83.5,140.5 C 92.1667,140.5 100.833,140.5 109.5,140.5C 118.5,140.5 127.5,140.5 136.5,140.5C 147.196,164.53 165.529,179.03 191.5,184C 186.316,184.174 181.316,184.674 176.5,185.5C 137.624,191.54 114.124,213.873 106,252.5C 105.832,277.337 105.332,302.003 104.5,326.5C 88.5,326.5 72.5,326.5 56.5,326.5C 58.5572,322.38 60.0572,318.047 61,313.5C 61.6667,281.5 61.6667,249.5 61,217.5C 58.3674,212.268 54.2008,210.435 48.5,212C 46.6217,213.543 45.1217,215.376 44,217.5C 43.6667,249.5 43.3333,281.5 43,313.5C 40.5576,320.112 36.0576,324.445 29.5,326.5C 14.8799,327.203 4.87992,320.869 -0.5,307.5C -0.5,274.167 -0.5,240.833 -0.5,207.5C 10.2443,163.774 38.2443,141.441 83.5,140.5 Z"/></g>
<g><path style="opacity:0.993" fill="#67b9cb" d="M 268.5,140.5 C 277.5,140.5 286.5,140.5 295.5,140.5C 304.167,140.5 312.833,140.5 321.5,140.5C 356.011,139.83 381.511,154.496 398,184.5C 403.188,195.607 406.021,207.274 406.5,219.5C 391.614,214.777 378.614,206.944 367.5,196C 364.001,193.296 360.334,192.963 356.5,195C 337.881,212.475 315.881,223.309 290.5,227.5C 276.516,202.496 255.183,188.496 226.5,185.5C 222.018,184.674 217.351,184.174 212.5,184C 238.941,179.304 257.608,164.804 268.5,140.5 Z"/></g>
<g><path style="opacity:0.998" fill="#efc319" d="M 176.5,185.5 C 193.167,185.5 209.833,185.5 226.5,185.5C 255.183,188.496 276.516,202.496 290.5,227.5C 280.514,230.526 270.181,232.359 259.5,233C 245.519,234.034 231.519,234.701 217.5,235C 215.376,236.122 213.543,237.622 212,239.5C 211.598,284.423 218.765,328.089 233.5,370.5C 209.833,370.5 186.167,370.5 162.5,370.5C 164.85,366.127 166.35,361.46 167,356.5C 167.667,324.833 167.667,293.167 167,261.5C 163.96,255.632 159.46,254.132 153.5,257C 151.951,258.214 150.785,259.714 150,261.5C 149.667,293.5 149.333,325.5 149,357.5C 146.416,364.513 141.583,368.846 134.5,370.5C 120.293,371.112 110.793,364.779 106,351.5C 104.713,343.219 104.213,334.886 104.5,326.5C 105.332,302.003 105.832,277.337 106,252.5C 114.124,213.873 137.624,191.54 176.5,185.5 Z"/></g>
<g><path style="opacity:0.995" fill="#24ae5f" d="M 406.5,219.5 C 420.331,225.042 434.664,228.875 449.5,231C 468.419,233.439 487.419,234.772 506.5,235C 508.687,236.025 510.354,237.525 511.5,239.5C 511.5,248.5 511.5,257.5 511.5,266.5C 507.873,320.221 493.373,370.887 468,418.5C 443.689,460.985 409.189,491.985 364.5,511.5C 362.5,511.5 360.5,511.5 358.5,511.5C 305.124,487.838 266.624,449.172 243,395.5C 239.332,387.326 236.165,378.993 233.5,370.5C 218.765,328.089 211.598,284.423 212,239.5C 213.543,237.622 215.376,236.122 217.5,235C 231.519,234.701 245.519,234.034 259.5,233C 270.181,232.359 280.514,230.526 290.5,227.5C 315.881,223.309 337.881,212.475 356.5,195C 360.334,192.963 364.001,193.296 367.5,196C 378.614,206.944 391.614,214.777 406.5,219.5 Z"/></g>
<g><path style="opacity:1" fill="#30a8cc" d="M 56.5,326.5 C 47.5,326.5 38.5,326.5 29.5,326.5C 36.0576,324.445 40.5576,320.112 43,313.5C 43.3333,281.5 43.6667,249.5 44,217.5C 45.1217,215.376 46.6217,213.543 48.5,212C 54.2008,210.435 58.3674,212.268 61,217.5C 61.6667,249.5 61.6667,281.5 61,313.5C 60.0572,318.047 58.5572,322.38 56.5,326.5 Z"/></g>
<g><path style="opacity:1" fill="#4fba6f" d="M 357.5,238.5 C 359.857,238.337 362.19,238.503 364.5,239C 398.161,257.204 433.994,268.038 472,271.5C 471.998,327.173 455.331,377.507 422,422.5C 407.971,439.536 391.805,454.036 373.5,466C 369.868,468.65 365.868,470.483 361.5,471.5C 352.914,468.089 344.914,463.589 337.5,458C 296.972,425.738 270.472,384.238 258,333.5C 253.531,314.881 250.364,296.047 248.5,277C 249.034,272.797 251.368,270.13 255.5,269C 292.1,267.186 326.1,257.019 357.5,238.5 Z"/></g>
<g><path style="opacity:1" fill="#f19c1e" d="M 162.5,370.5 C 153.167,370.5 143.833,370.5 134.5,370.5C 141.583,368.846 146.416,364.513 149,357.5C 149.333,325.5 149.667,293.5 150,261.5C 150.785,259.714 151.951,258.214 153.5,257C 159.46,254.132 163.96,255.632 167,261.5C 167.667,293.167 167.667,324.833 167,356.5C 166.35,361.46 164.85,366.127 162.5,370.5 Z"/></g>
<g><path style="opacity:1" fill="#e9efef" d="M 402.5,299.5 C 412.372,299.527 415.872,304.194 413,313.5C 391.517,341.312 369.683,368.812 347.5,396C 344.366,396.79 341.366,396.457 338.5,395C 329,385.5 319.5,376 310,366.5C 307,359.166 309.334,354.499 317,352.5C 319.321,352.909 321.487,353.743 323.5,355C 330,361.5 336.5,368 343,374.5C 362.382,349.027 382.216,324.027 402.5,299.5 Z"/></g>
</svg>
