<?xml version="1.0" encoding="UTF-8"?>
<!DOCTYPE svg PUBLIC "-//W3C//DTD SVG 1.1//EN" "http://www.w3.org/Graphics/SVG/1.1/DTD/svg11.dtd">
<svg xmlns="http://www.w3.org/2000/svg" version="1.1" width="512px" height="512px" style="shape-rendering:geometricPrecision; text-rendering:geometricPrecision; image-rendering:optimizeQuality; fill-rule:evenodd; clip-rule:evenodd" xmlns:xlink="http://www.w3.org/1999/xlink">
<g><path style="opacity:0.996" fill="#32c3e8" d="M 254.5,-0.5 C 254.833,-0.5 255.167,-0.5 255.5,-0.5C 255.5,51.8333 255.5,104.167 255.5,156.5C 224.489,158.763 204.323,174.763 195,204.5C 190.895,232.877 200.395,255.377 223.5,272C 218.281,290.042 213.614,308.209 209.5,326.5C 224.833,326.5 240.167,326.5 255.5,326.5C 255.5,355.833 255.5,385.167 255.5,414.5C 238.765,410.316 222.098,405.816 205.5,401C 181.332,392.158 163.498,376.324 152,353.5C 150.656,348.819 149.323,344.153 148,339.5C 147.5,278.501 147.333,217.501 147.5,156.5C 137.167,156.5 126.833,156.5 116.5,156.5C 116.333,216.834 116.5,277.168 117,337.5C 121.715,372.105 138.882,398.605 168.5,417C 176.221,421.527 184.221,425.527 192.5,429C 213.386,435.304 234.386,441.138 255.5,446.5C 255.5,457.833 255.5,469.167 255.5,480.5C 221.5,480.5 187.5,480.5 153.5,480.5C 113.742,460.907 84.5756,430.907 66,390.5C 58.076,371.291 53.9093,351.291 53.5,330.5C 54.4913,252.182 54.8246,173.849 54.5,95.5C 95.7042,94.0927 135.371,85.5927 173.5,70C 199.895,58.7281 222.395,42.2281 241,20.5C 246.009,13.8114 250.509,6.81141 254.5,-0.5 Z"/></g>
<g><path style="opacity:0.997" fill="#11a6f2" d="M 255.5,-0.5 C 255.833,-0.5 256.167,-0.5 256.5,-0.5C 269.188,22.6892 286.854,41.1892 309.5,55C 343.474,75.1028 380.141,87.4361 419.5,92C 431.824,93.4385 444.158,94.6052 456.5,95.5C 456.172,174.189 456.506,252.856 457.5,331.5C 454.985,373.514 439.152,409.514 410,439.5C 392.966,456.257 373.799,469.924 352.5,480.5C 320.167,480.5 287.833,480.5 255.5,480.5C 255.5,469.167 255.5,457.833 255.5,446.5C 277.283,440.804 298.949,434.637 320.5,428C 356.434,413.735 380.267,388.235 392,351.5C 392.667,346.833 393.333,342.167 394,337.5C 394.5,277.168 394.667,216.834 394.5,156.5C 384.167,156.5 373.833,156.5 363.5,156.5C 363.667,217.168 363.5,277.834 363,338.5C 357.912,362.921 344.412,381.088 322.5,393C 316.736,396.216 310.736,398.883 304.5,401C 288.178,405.608 271.844,410.108 255.5,414.5C 255.5,385.167 255.5,355.833 255.5,326.5C 271.009,326.83 286.342,326.496 301.5,325.5C 297.228,307.578 292.561,289.745 287.5,272C 310.627,255.294 320.127,232.794 316,204.5C 307.112,174.304 286.946,158.304 255.5,156.5C 255.5,104.167 255.5,51.8333 255.5,-0.5 Z"/></g>
<g><path style="opacity:1" fill="#11a7f2" d="M 255.5,414.5 C 255.5,425.167 255.5,435.833 255.5,446.5C 234.386,441.138 213.386,435.304 192.5,429C 184.221,425.527 176.221,421.527 168.5,417C 138.882,398.605 121.715,372.105 117,337.5C 116.5,277.168 116.333,216.834 116.5,156.5C 126.833,156.5 137.167,156.5 147.5,156.5C 147.333,217.501 147.5,278.501 148,339.5C 149.323,344.153 150.656,348.819 152,353.5C 163.498,376.324 181.332,392.158 205.5,401C 222.098,405.816 238.765,410.316 255.5,414.5 Z"/></g>
<g><path style="opacity:1" fill="#404952" d="M 255.5,156.5 C 255.5,212.833 255.5,269.167 255.5,325.5C 270.833,325.5 286.167,325.5 301.5,325.5C 286.342,326.496 271.009,326.83 255.5,326.5C 240.167,326.5 224.833,326.5 209.5,326.5C 213.614,308.209 218.281,290.042 223.5,272C 200.395,255.377 190.895,232.877 195,204.5C 204.323,174.763 224.489,158.763 255.5,156.5 Z"/></g>
<g><path style="opacity:1" fill="#23272b" d="M 255.5,156.5 C 286.946,158.304 307.112,174.304 316,204.5C 320.127,232.794 310.627,255.294 287.5,272C 292.561,289.745 297.228,307.578 301.5,325.5C 286.167,325.5 270.833,325.5 255.5,325.5C 255.5,269.167 255.5,212.833 255.5,156.5 Z"/></g>
<g><path style="opacity:1" fill="#0069f1" d="M 255.5,446.5 C 255.5,435.833 255.5,425.167 255.5,414.5C 271.844,410.108 288.178,405.608 304.5,401C 310.736,398.883 316.736,396.216 322.5,393C 344.412,381.088 357.912,362.921 363,338.5C 363.5,277.834 363.667,217.168 363.5,156.5C 373.833,156.5 384.167,156.5 394.5,156.5C 394.667,216.834 394.5,277.168 394,337.5C 393.333,342.167 392.667,346.833 392,351.5C 380.267,388.235 356.434,413.735 320.5,428C 298.949,434.637 277.283,440.804 255.5,446.5 Z"/></g>
<g><path style="opacity:0.996" fill="#fed82e" d="M 153.5,480.5 C 187.5,480.5 221.5,480.5 255.5,480.5C 255.5,490.833 255.5,501.167 255.5,511.5C 195.5,511.5 135.5,511.5 75.5,511.5C 75.5,501.167 75.5,490.833 75.5,480.5C 101.5,480.5 127.5,480.5 153.5,480.5 Z"/></g>
<g><path style="opacity:0.994" fill="#fbbd00" d="M 255.5,480.5 C 287.833,480.5 320.167,480.5 352.5,480.5C 382.167,480.5 411.833,480.5 441.5,480.5C 441.5,490.833 441.5,501.167 441.5,511.5C 379.5,511.5 317.5,511.5 255.5,511.5C 255.5,501.167 255.5,490.833 255.5,480.5 Z"/></g>
</svg>
