<?xml version="1.0" encoding="UTF-8"?>
<!DOCTYPE svg PUBLIC "-//W3C//DTD SVG 1.1//EN" "http://www.w3.org/Graphics/SVG/1.1/DTD/svg11.dtd">
<svg xmlns="http://www.w3.org/2000/svg" version="1.1" width="512px" height="512px" style="shape-rendering:geometricPrecision; text-rendering:geometricPrecision; image-rendering:optimizeQuality; fill-rule:evenodd; clip-rule:evenodd" xmlns:xlink="http://www.w3.org/1999/xlink">
<g><path style="opacity:0.998" fill="#ffe691" d="M 266.5,92.5 C 188.868,170.632 111.035,248.632 33,326.5C 32.7679,327.737 32.2679,328.737 31.5,329.5C 30.6019,310.61 31.9353,291.943 35.5,273.5C 94.8333,214.833 153.833,155.833 212.5,96.5C 230.282,92.9993 248.282,91.6659 266.5,92.5 Z"/></g>
<g><path style="opacity:0.998" fill="#ffe28c" d="M 266.5,92.5 C 281.025,93.194 295.358,95.194 309.5,98.5C 218.806,189.527 128.14,280.527 37.5,371.5C 34.2879,357.682 32.2879,343.682 31.5,329.5C 32.2679,328.737 32.7679,327.737 33,326.5C 111.035,248.632 188.868,170.632 266.5,92.5 Z"/></g>
<g><path style="opacity:0.999" fill="#6b39a0" d="M 428.5,173.5 C 374.417,226.083 320.75,279.249 267.5,333C 255.425,339.458 245.425,337.291 237.5,326.5C 234.418,318.903 234.918,311.569 239,304.5C 292.751,251.25 345.917,197.583 398.5,143.5C 414.632,127.868 430.632,112.035 446.5,96C 461.052,88.518 471.885,92.018 479,106.5C 479.839,111.921 479.506,117.254 478,122.5C 461.66,139.673 445.16,156.673 428.5,173.5 Z"/></g>
<g><path style="opacity:0.993" fill="#ffec98" d="M 212.5,96.5 C 153.833,155.833 94.8333,214.833 35.5,273.5C 52.9498,193.884 99.2832,138.384 174.5,107C 186.844,102.248 199.51,98.7479 212.5,96.5 Z"/></g>
<g><path style="opacity:0.998" fill="#ffdc86" d="M 309.5,98.5 C 322.204,101.845 334.538,106.179 346.5,111.5C 248.451,210.549 149.785,308.882 50.5,406.5C 44.8046,395.422 40.4712,383.755 37.5,371.5C 128.14,280.527 218.806,189.527 309.5,98.5 Z"/></g>
<g><path style="opacity:0.999" fill="#ffd780" d="M 346.5,111.5 C 358.273,116.217 369.273,122.217 379.5,129.5C 379.631,130.239 379.464,130.906 379,131.5C 283.299,227.035 187.799,322.701 92.5,418.5C 82.4944,418.666 72.4944,418.5 62.5,418C 56.6815,416.014 52.6815,412.181 50.5,406.5C 149.785,308.882 248.451,210.549 346.5,111.5 Z"/></g>
<g><path style="opacity:0.999" fill="#fed17a" d="M 379.5,129.5 C 386.405,133.446 392.738,138.113 398.5,143.5C 345.917,197.583 292.751,251.25 239,304.5C 234.918,311.569 234.418,318.903 237.5,326.5C 237.649,327.552 237.483,328.552 237,329.5C 207.298,359.035 177.798,388.701 148.5,418.5C 129.833,418.5 111.167,418.5 92.5,418.5C 187.799,322.701 283.299,227.035 379,131.5C 379.464,130.906 379.631,130.239 379.5,129.5 Z"/></g>
<g><path style="opacity:0.999" fill="#fdc973" d="M 428.5,173.5 C 430.853,175.86 432.853,178.527 434.5,181.5C 355.892,260.789 277.225,339.289 198.5,417C 201.365,417.183 204.031,417.683 206.5,418.5C 187.167,418.5 167.833,418.5 148.5,418.5C 177.798,388.701 207.298,359.035 237,329.5C 237.483,328.552 237.649,327.552 237.5,326.5C 245.425,337.291 255.425,339.458 267.5,333C 320.75,279.249 374.417,226.083 428.5,173.5 Z"/></g>
<g><path style="opacity:0.999" fill="#ffc66d" d="M 434.5,181.5 C 441.83,190.816 448.163,200.816 453.5,211.5C 384.833,280.5 316.167,349.5 247.5,418.5C 233.833,418.5 220.167,418.5 206.5,418.5C 204.031,417.683 201.365,417.183 198.5,417C 277.225,339.289 355.892,260.789 434.5,181.5 Z"/></g>
<g><path style="opacity:0.998" fill="#ffc269" d="M 453.5,211.5 C 456.674,216.516 459.341,221.849 461.5,227.5C 396.882,290.451 332.882,354.118 269.5,418.5C 262.167,418.5 254.833,418.5 247.5,418.5C 316.167,349.5 384.833,280.5 453.5,211.5 Z"/></g>
<g><path style="opacity:0.998" fill="#ffbf65" d="M 461.5,227.5 C 465.297,235.891 468.297,244.558 470.5,253.5C 415.167,308.167 360.167,363.167 305.5,418.5C 293.5,418.5 281.5,418.5 269.5,418.5C 332.882,354.118 396.882,290.451 461.5,227.5 Z"/></g>
<g><path style="opacity:0.998" fill="#ffba60" d="M 470.5,253.5 C 475.069,267.019 477.736,281.019 478.5,295.5C 437.167,336.167 396.167,377.167 355.5,418.5C 338.833,418.5 322.167,418.5 305.5,418.5C 360.167,363.167 415.167,308.167 470.5,253.5 Z"/></g>
<g><path style="opacity:0.995" fill="#ffb55a" d="M 478.5,295.5 C 479.166,302.325 479.5,309.325 479.5,316.5C 479.674,326.947 479.008,337.281 477.5,347.5C 452.883,370.449 428.883,394.116 405.5,418.5C 388.833,418.5 372.167,418.5 355.5,418.5C 396.167,377.167 437.167,336.167 478.5,295.5 Z"/></g>
<g><path style="opacity:0.988" fill="#ffb155" d="M 477.5,347.5 C 474.875,369.542 468.708,390.542 459,410.5C 456.258,414.116 452.758,416.616 448.5,418C 434.171,418.5 419.837,418.667 405.5,418.5C 428.883,394.116 452.883,370.449 477.5,347.5 Z"/></g>
</svg>
