<?xml version="1.0" encoding="UTF-8"?>
<!DOCTYPE svg PUBLIC "-//W3C//DTD SVG 1.1//EN" "http://www.w3.org/Graphics/SVG/1.1/DTD/svg11.dtd">
<svg xmlns="http://www.w3.org/2000/svg" version="1.1" width="512px" height="512px" style="shape-rendering:geometricPrecision; text-rendering:geometricPrecision; image-rendering:optimizeQuality; fill-rule:evenodd; clip-rule:evenodd" xmlns:xlink="http://www.w3.org/1999/xlink">
<g><path style="opacity:0.996" fill="#01aa62" d="M 329.5,99.5 C 329.5,121.167 329.5,142.833 329.5,164.5C 298.832,164.667 268.165,164.5 237.5,164C 234.098,162.6 231.264,160.433 229,157.5C 222.061,143.956 215.395,130.289 209,116.5C 207.167,113.333 204.667,110.833 201.5,109C 177.059,107.863 152.726,107.029 128.5,106.5C 128.333,89.1635 128.5,71.8301 129,54.5C 130.743,49.0896 134.243,45.2563 139.5,43C 181.167,42.3333 222.833,42.3333 264.5,43C 267.902,44.3999 270.736,46.5665 273,49.5C 280.53,65.3951 288.696,80.8951 297.5,96C 299.275,97.4389 301.275,98.4389 303.5,99C 312.16,99.4998 320.827,99.6664 329.5,99.5 Z"/></g>
<g><path style="opacity:1" fill="#048876" d="M 329.5,99.5 C 385.834,99.3333 442.168,99.5 498.5,100C 504.523,101.534 508.856,105.034 511.5,110.5C 511.5,183.5 511.5,256.5 511.5,329.5C 508.932,334.564 504.932,338.064 499.5,340C 482.17,340.5 464.837,340.667 447.5,340.5C 446.667,285.668 446.167,230.668 446,175.5C 443.737,169.732 439.57,166.399 433.5,165.5C 399.004,164.502 364.337,164.168 329.5,164.5C 329.5,142.833 329.5,121.167 329.5,99.5 Z"/></g>
<g><path style="opacity:0.995" fill="#fec33b" d="M 128.5,106.5 C 152.726,107.029 177.059,107.863 201.5,109C 204.667,110.833 207.167,113.333 209,116.5C 215.395,130.289 222.061,143.956 229,157.5C 231.264,160.433 234.098,162.6 237.5,164C 268.165,164.5 298.832,164.667 329.5,164.5C 364.337,164.168 399.004,164.502 433.5,165.5C 374.167,165.5 314.833,165.5 255.5,165.5C 255.5,186.833 255.5,208.167 255.5,229.5C 233.833,229.5 212.167,229.5 190.5,229.5C 184.824,229.666 179.157,229.499 173.5,229C 169.759,227.262 166.592,224.762 164,221.5C 157.075,205.816 149.242,190.649 140.5,176C 138.833,175 137.167,174 135.5,173C 111.552,171.54 87.5521,171.04 63.5,171.5C 63.3334,154.497 63.5001,137.497 64,120.5C 65.8333,113.333 70.3333,108.833 77.5,107C 94.4967,106.5 111.497,106.333 128.5,106.5 Z"/></g>
<g><path style="opacity:1" fill="#fea433" d="M 433.5,165.5 C 439.57,166.399 443.737,169.732 446,175.5C 446.167,230.668 446.667,285.668 447.5,340.5C 447.667,357.503 447.5,374.503 447,391.5C 445.053,399.114 440.22,403.614 432.5,405C 415.837,405.5 399.17,405.667 382.5,405.5C 382.667,351.166 382.5,296.832 382,242.5C 380.564,236.13 376.731,231.963 370.5,230C 332.168,229.5 293.835,229.333 255.5,229.5C 255.5,208.167 255.5,186.833 255.5,165.5C 314.833,165.5 374.167,165.5 433.5,165.5 Z"/></g>
<g><path style="opacity:0.999" fill="#ff6f43" d="M 63.5,171.5 C 87.5521,171.04 111.552,171.54 135.5,173C 137.167,174 138.833,175 140.5,176C 149.242,190.649 157.075,205.816 164,221.5C 166.592,224.762 169.759,227.262 173.5,229C 179.157,229.499 184.824,229.666 190.5,229.5C 190.5,309.5 190.5,389.5 190.5,469.5C 130.499,469.667 70.4991,469.5 10.5,469C 5.28997,466.954 1.62331,463.454 -0.5,458.5C -0.5,366.5 -0.5,274.5 -0.5,182.5C 2.0678,177.436 6.0678,173.936 11.5,172C 28.8301,171.5 46.1635,171.333 63.5,171.5 Z"/></g>
<g><path style="opacity:1" fill="#ff451b" d="M 190.5,229.5 C 212.167,229.5 233.833,229.5 255.5,229.5C 293.835,229.333 332.168,229.5 370.5,230C 376.731,231.963 380.564,236.13 382,242.5C 382.5,296.832 382.667,351.166 382.5,405.5C 382.667,422.837 382.5,440.17 382,457.5C 380.257,462.91 376.757,466.744 371.5,469C 311.168,469.5 250.834,469.667 190.5,469.5C 190.5,389.5 190.5,309.5 190.5,229.5 Z"/></g>
<g><path style="opacity:1" fill="#fffbfa" d="M 263.5,384.5 C 271.933,383.797 278.099,387.131 282,394.5C 282.89,401.914 282.557,409.247 281,416.5C 274.845,424.888 267.345,426.388 258.5,421C 255.769,418.374 253.936,415.207 253,411.5C 249.423,399.487 252.923,390.487 263.5,384.5 Z"/></g>
<g><path style="opacity:1" fill="#fffcfb" d="M 310.5,384.5 C 319.364,383.68 325.53,387.347 329,395.5C 329.667,401.5 329.667,407.5 329,413.5C 321.641,426.338 312.641,427.672 302,417.5C 301.138,415.913 300.471,414.246 300,412.5C 299.333,406.5 299.333,400.5 300,394.5C 302.409,389.922 305.909,386.588 310.5,384.5 Z"/></g>
</svg>
