<?xml version="1.0" encoding="UTF-8"?>
<!DOCTYPE svg PUBLIC "-//W3C//DTD SVG 1.1//EN" "http://www.w3.org/Graphics/SVG/1.1/DTD/svg11.dtd">
<svg xmlns="http://www.w3.org/2000/svg" version="1.1" width="512px" height="512px" style="shape-rendering:geometricPrecision; text-rendering:geometricPrecision; image-rendering:optimizeQuality; fill-rule:evenodd; clip-rule:evenodd" xmlns:xlink="http://www.w3.org/1999/xlink">
<g><path style="opacity:0.979" fill="#6282c1" d="M 59.5,25.5 C 190.167,25.3333 320.834,25.5 451.5,26C 461.788,30.0734 465.621,37.5734 463,48.5C 461.098,53.4005 457.598,56.5671 452.5,58C 321.167,58.6667 189.833,58.6667 58.5,58C 47.1941,52.5212 44.3608,44.0212 50,32.5C 52.529,29.1151 55.6956,26.7818 59.5,25.5 Z"/></g>
<g><path style="opacity:0.988" fill="#ee791a" d="M 251.5,87.5 C 256.901,86.9664 261.901,88.133 266.5,91C 287.333,111.833 308.167,132.667 329,153.5C 336.516,168.131 332.349,177.464 316.5,181.5C 314.133,181.158 311.8,180.658 309.5,180C 296.696,168.196 284.196,156.03 272,143.5C 271.333,215.167 271.333,286.833 272,358.5C 283.895,345.935 296.395,334.102 309.5,323C 322.667,320.238 330.334,325.405 332.5,338.5C 332.378,341.698 331.545,344.698 330,347.5C 308.167,369.333 286.333,391.167 264.5,413C 258.5,416.333 252.5,416.333 246.5,413C 225,391.5 203.5,370 182,348.5C 176.36,336.626 179.527,328.126 191.5,323C 196.894,321.967 201.894,322.967 206.5,326C 217,336.5 227.5,347 238,357.5C 238.667,286.5 238.667,215.5 238,144.5C 226.833,155.667 215.667,166.833 204.5,178C 190.375,183.273 181.708,178.606 178.5,164C 178.864,159.697 180.364,155.863 183,152.5C 203.5,132 224,111.5 244.5,91C 246.925,89.7874 249.259,88.6207 251.5,87.5 Z"/></g>
<g><path style="opacity:0.979" fill="#6282c1" d="M 58.5,452.5 C 189.834,452.333 321.167,452.5 452.5,453C 463.806,458.479 466.639,466.979 461,478.5C 458.512,482.325 455.012,484.492 450.5,485C 320.167,485.667 189.833,485.667 59.5,485C 49.2123,480.927 45.379,473.427 48,462.5C 50.1059,457.557 53.6059,454.224 58.5,452.5 Z"/></g>
</svg>
