<?xml version="1.0" encoding="UTF-8"?>
<!DOCTYPE svg PUBLIC "-//W3C//DTD SVG 1.1//EN" "http://www.w3.org/Graphics/SVG/1.1/DTD/svg11.dtd">
<svg xmlns="http://www.w3.org/2000/svg" version="1.1" width="512px" height="512px" style="shape-rendering:geometricPrecision; text-rendering:geometricPrecision; image-rendering:optimizeQuality; fill-rule:evenodd; clip-rule:evenodd" xmlns:xlink="http://www.w3.org/1999/xlink">
<g><path style="opacity:0.997" fill="#d72f3c" d="M 299.5,-0.5 C 303.833,-0.5 308.167,-0.5 312.5,-0.5C 312.333,44.8346 312.5,90.1679 313,135.5C 319.089,136.467 325.255,137.134 331.5,137.5C 333.053,139.385 335.053,140.385 337.5,140.5C 343.973,144.808 349.307,150.308 353.5,157C 354.167,157.167 354.833,157.333 355.5,157.5C 365.676,150.839 376.01,144.339 386.5,138C 396.434,136.605 406.434,136.105 416.5,136.5C 420.182,138.257 424.015,139.59 428,140.5C 431.366,140.57 433.866,139.237 435.5,136.5C 450.5,136.5 465.5,136.5 480.5,136.5C 480.985,141.729 480.318,146.729 478.5,151.5C 475.561,156.313 471.228,159.146 465.5,160C 455.506,160.5 445.506,160.666 435.5,160.5C 421.829,160.333 408.163,160.5 394.5,161C 391.039,162.643 388.039,164.81 385.5,167.5C 371.786,176.368 358.452,185.868 345.5,196C 342.253,199.399 338.586,200.066 334.5,198C 333.874,197.25 333.374,196.416 333,195.5C 332.949,185.734 332.282,176.067 331,166.5C 329.039,163.865 326.539,162.031 323.5,161C 315.833,160.667 308.167,160.333 300.5,160C 299.473,159.487 298.473,158.987 297.5,158.5C 293.781,155.946 290.948,152.613 289,148.5C 288.827,110.429 288.327,72.4288 287.5,34.5C 287.099,26.4148 287.599,18.4148 289,10.5C 291.357,5.64549 294.857,1.97883 299.5,-0.5 Z"/></g>
<g><path style="opacity:0.999" fill="#dc4955" d="M 312.5,-0.5 C 364.5,-0.5 416.5,-0.5 468.5,-0.5C 474.148,1.64984 477.981,5.64984 480,11.5C 480.5,53.1653 480.667,94.832 480.5,136.5C 465.5,136.5 450.5,136.5 435.5,136.5C 436.006,132.993 435.34,129.826 433.5,127C 418.541,121.528 405.208,113.528 393.5,103C 404.119,89.9258 411.119,75.0925 414.5,58.5C 421.615,58.9247 428.615,58.4247 435.5,57C 439.012,53.264 439.345,49.264 436.5,45C 435.255,44.2086 433.922,43.7086 432.5,43.5C 419.01,42.5043 405.344,42.171 391.5,42.5C 391.821,37.3054 391.487,32.3054 390.5,27.5C 388.275,22.8913 384.609,21.3913 379.5,23C 378.333,24.1667 377.167,25.3333 376,26.5C 375.501,32.1569 375.334,37.8236 375.5,43.5C 360.83,43.3334 346.163,43.5001 331.5,44C 325.938,49.1626 326.271,53.8292 332.5,58C 339.081,58.1871 345.581,58.6871 352,59.5C 355.63,75.4247 362.464,89.758 372.5,102.5C 361.681,113.088 349.014,120.922 334.5,126C 330.469,129.001 329.469,132.834 331.5,137.5C 325.255,137.134 319.089,136.467 313,135.5C 312.5,90.1679 312.333,44.8346 312.5,-0.5 Z"/></g>
<g><path style="opacity:1" fill="#f9f5f6" d="M 390.5,27.5 C 390.5,32.8333 390.5,38.1667 390.5,43.5C 404.5,43.5 418.5,43.5 432.5,43.5C 433.922,43.7086 435.255,44.2086 436.5,45C 439.345,49.264 439.012,53.264 435.5,57C 428.615,58.4247 421.615,58.9247 414.5,58.5C 411.119,75.0925 404.119,89.9258 393.5,103C 405.208,113.528 418.541,121.528 433.5,127C 435.34,129.826 436.006,132.993 435.5,136.5C 433.866,139.237 431.366,140.57 428,140.5C 424.015,139.59 420.182,138.257 416.5,136.5C 404.32,130.819 393.153,123.485 383,114.5C 370.033,126.904 354.866,135.57 337.5,140.5C 335.053,140.385 333.053,139.385 331.5,137.5C 329.469,132.834 330.469,129.001 334.5,126C 349.014,120.922 361.681,113.088 372.5,102.5C 362.464,89.758 355.63,75.4247 352,59.5C 345.581,58.6871 339.081,58.1871 332.5,58C 326.271,53.8292 325.938,49.1626 331.5,44C 346.163,43.5001 360.83,43.3334 375.5,43.5C 375.334,37.8236 375.501,32.1569 376,26.5C 377.167,25.3333 378.333,24.1667 379.5,23C 384.609,21.3913 388.275,22.8913 390.5,27.5 Z"/></g>
<g><path style="opacity:0.998" fill="#b7e446" d="M 287.5,34.5 C 288.327,72.4288 288.827,110.429 289,148.5C 290.948,152.613 293.781,155.946 297.5,158.5C 298.036,172.875 294.703,186.209 287.5,198.5C 253.236,216.014 223.403,210.347 198,181.5C 197.333,173.167 197.333,164.833 198,156.5C 223.312,136.895 231.646,111.562 223,80.5C 218.473,67.1047 211.64,55.1047 202.5,44.5C 230.244,36.3585 258.578,33.0252 287.5,34.5 Z"/></g>
<g><path style="opacity:1" fill="#ea9aa0" d="M 390.5,27.5 C 391.487,32.3054 391.821,37.3054 391.5,42.5C 405.344,42.171 419.01,42.5043 432.5,43.5C 418.5,43.5 404.5,43.5 390.5,43.5C 390.5,38.1667 390.5,32.8333 390.5,27.5 Z"/></g>
<g><path style="opacity:0.997" fill="#abd642" d="M 202.5,44.5 C 211.64,55.1047 218.473,67.1047 223,80.5C 231.646,111.562 223.312,136.895 198,156.5C 197.333,164.833 197.333,173.167 198,181.5C 223.403,210.347 253.236,216.014 287.5,198.5C 272.592,218.647 252.592,226.814 227.5,223C 215.965,219.568 205.631,214.068 196.5,206.5C 196.5,180.833 196.5,155.167 196.5,129.5C 200.272,125.629 202.772,120.962 204,115.5C 206.915,98.74 203.915,83.0734 195,68.5C 191,63.0046 186.834,57.6713 182.5,52.5C 188.878,49.318 195.545,46.6514 202.5,44.5 Z"/></g>
<g><path style="opacity:1" fill="#94cbd3" d="M 182.5,52.5 C 186.834,57.6713 191,63.0046 195,68.5C 203.915,83.0734 206.915,98.74 204,115.5C 202.772,120.962 200.272,125.629 196.5,129.5C 196.756,119.263 192.09,112.43 182.5,109C 164.503,108.5 146.503,108.333 128.5,108.5C 142.542,87.9549 159.542,70.1216 179.5,55C 178.944,54.6174 178.611,54.1174 178.5,53.5C 179.708,52.7659 181.041,52.4326 182.5,52.5 Z"/></g>
<g><path style="opacity:0.979" fill="#6fbbc6" d="M 178.5,53.5 C 178.611,54.1174 178.944,54.6174 179.5,55C 159.542,70.1216 142.542,87.9549 128.5,108.5C 119.167,108.5 109.833,108.5 100.5,108.5C 122.616,84.7259 148.616,66.3926 178.5,53.5 Z"/></g>
<g><path style="opacity:1" fill="#dc4a56" d="M 367.5,59.5 C 377.653,58.5058 387.986,58.1724 398.5,58.5C 395.654,70.1908 390.654,80.8575 383.5,90.5C 376.301,81.1018 370.968,70.7684 367.5,59.5 Z"/></g>
<g><path style="opacity:0.996" fill="#efe9e6" d="M 20.5,108.5 C 20.3333,155.501 20.5,202.501 21,249.5C 21.8333,250.333 22.6667,251.167 23.5,252C 46.1667,252.333 68.8333,252.667 91.5,253C 94.9927,253.942 98.326,255.275 101.5,257C 110.387,263.397 119.387,269.563 128.5,275.5C 130.107,275.363 131.441,274.696 132.5,273.5C 135.968,264.198 142.302,257.698 151.5,254C 166.442,252.566 181.442,252.066 196.5,252.5C 196.846,262.654 192.179,269.154 182.5,272C 174.833,272.333 167.167,272.667 159.5,273C 155.397,275.045 152.564,278.212 151,282.5C 150.667,291.5 150.333,300.5 150,309.5C 148.53,311.152 146.697,312.152 144.5,312.5C 127.697,300.925 111.031,289.092 94.5,277C 92.4234,275.295 90.09,274.128 87.5,273.5C 69.7355,272.176 52.0689,272.176 34.5,273.5C 25.653,274.126 16.9863,273.293 8.5,271C 4.18881,268.495 1.18881,264.995 -0.5,260.5C -0.5,213.833 -0.5,167.167 -0.5,120.5C 3.56647,111.627 10.5665,107.627 20.5,108.5 Z"/></g>
<g><path style="opacity:1" fill="#f9f7f7" d="M 20.5,108.5 C 47.1667,108.5 73.8333,108.5 100.5,108.5C 109.833,108.5 119.167,108.5 128.5,108.5C 146.503,108.333 164.503,108.5 182.5,109C 192.09,112.43 196.756,119.263 196.5,129.5C 196.5,155.167 196.5,180.833 196.5,206.5C 196.5,221.833 196.5,237.167 196.5,252.5C 181.442,252.066 166.442,252.566 151.5,254C 142.302,257.698 135.968,264.198 132.5,273.5C 131.441,274.696 130.107,275.363 128.5,275.5C 119.387,269.563 110.387,263.397 101.5,257C 98.326,255.275 94.9927,253.942 91.5,253C 68.8333,252.667 46.1667,252.333 23.5,252C 22.6667,251.167 21.8333,250.333 21,249.5C 20.5,202.501 20.3333,155.501 20.5,108.5 Z"/></g>
<g><path style="opacity:1" fill="#dc4a56" d="M 416.5,136.5 C 406.434,136.105 396.434,136.605 386.5,138C 376.01,144.339 365.676,150.839 355.5,157.5C 354.833,157.333 354.167,157.167 353.5,157C 349.307,150.308 343.973,144.808 337.5,140.5C 354.866,135.57 370.033,126.904 383,114.5C 393.153,123.485 404.32,130.819 416.5,136.5 Z"/></g>
<g><path style="opacity:1" fill="#abd8de" d="M 94.5,136.5 C 101.231,135.448 105.731,138.114 108,144.5C 119.137,174.245 130.47,203.911 142,233.5C 142.498,243.42 138.165,246.42 129,242.5C 125.967,235.731 123.134,228.897 120.5,222C 105.5,221.333 90.5,221.333 75.5,222C 72.8812,229.198 69.8812,236.198 66.5,243C 56.0194,245.853 52.1861,242.019 55,231.5C 66.3892,201.056 78.0558,170.723 90,140.5C 91.3968,138.93 92.8968,137.596 94.5,136.5 Z"/></g>
<g><path style="opacity:0.995" fill="#94cbd3" d="M 478.5,151.5 C 497.107,182.321 508.107,215.654 511.5,251.5C 511.5,265.833 511.5,280.167 511.5,294.5C 501.065,380.427 458.065,444.094 382.5,485.5C 381.928,483.745 381.094,482.078 380,480.5C 368.955,467.791 358.289,454.791 348,441.5C 344.971,437.438 342.471,433.105 340.5,428.5C 343.039,425.81 346.039,423.643 349.5,422C 373.5,421.667 397.5,421.333 421.5,421C 432.413,417.023 437.079,409.189 435.5,397.5C 435.822,355.457 435.489,313.457 434.5,271.5C 453.234,251.611 460.734,227.944 457,200.5C 453.448,185.388 446.282,172.388 435.5,161.5C 435.5,161.167 435.5,160.833 435.5,160.5C 445.506,160.666 455.506,160.5 465.5,160C 471.228,159.146 475.561,156.313 478.5,151.5 Z"/></g>
<g><path style="opacity:1" fill="#94cbd3" d="M 297.5,158.5 C 298.473,158.987 299.473,159.487 300.5,160C 308.167,160.333 315.833,160.667 323.5,161C 326.539,162.031 329.039,163.865 331,166.5C 332.282,176.067 332.949,185.734 333,195.5C 333.374,196.416 333.874,197.25 334.5,198C 338.586,200.066 342.253,199.399 345.5,196C 358.452,185.868 371.786,176.368 385.5,167.5C 385.765,184.841 381.931,201.174 374,216.5C 368.333,223.5 362.667,230.5 357,237.5C 354.302,245.003 353.802,252.67 355.5,260.5C 326.167,260.5 296.833,260.5 267.5,260.5C 249.957,259.709 241.957,268.042 243.5,285.5C 242.209,285.263 241.209,285.596 240.5,286.5C 227.618,289.873 218.118,297.54 212,309.5C 207.531,323.906 202.864,338.24 198,352.5C 184.716,380.898 163.55,389.398 134.5,378C 129.833,374.667 125.833,370.667 122.5,366C 120.423,364.295 118.09,363.128 115.5,362.5C 114.5,361.833 113.5,361.167 112.5,360.5C 110.782,354.601 108.282,348.601 105,342.5C 95.8828,320.365 90.0495,297.365 87.5,273.5C 90.09,274.128 92.4234,275.295 94.5,277C 111.031,289.092 127.697,300.925 144.5,312.5C 146.697,312.152 148.53,311.152 150,309.5C 150.333,300.5 150.667,291.5 151,282.5C 152.564,278.212 155.397,275.045 159.5,273C 167.167,272.667 174.833,272.333 182.5,272C 192.179,269.154 196.846,262.654 196.5,252.5C 196.5,237.167 196.5,221.833 196.5,206.5C 205.631,214.068 215.965,219.568 227.5,223C 252.592,226.814 272.592,218.647 287.5,198.5C 294.703,186.209 298.036,172.875 297.5,158.5 Z"/></g>
<g><path style="opacity:1" fill="#abd542" d="M 435.5,160.5 C 435.5,160.833 435.5,161.167 435.5,161.5C 426.143,161.168 416.81,161.502 407.5,162.5C 405.697,174.823 403.864,187.157 402,199.5C 398.251,212.579 391.251,223.579 381,232.5C 374.793,240.948 372.96,250.282 375.5,260.5C 368.833,260.5 362.167,260.5 355.5,260.5C 353.802,252.67 354.302,245.003 357,237.5C 362.667,230.5 368.333,223.5 374,216.5C 381.931,201.174 385.765,184.841 385.5,167.5C 388.039,164.81 391.039,162.643 394.5,161C 408.163,160.5 421.829,160.333 435.5,160.5 Z"/></g>
<g><path style="opacity:1" fill="#b6e446" d="M 435.5,161.5 C 446.282,172.388 453.448,185.388 457,200.5C 460.734,227.944 453.234,251.611 434.5,271.5C 431.739,265.585 427.072,262.085 420.5,261C 405.504,260.5 390.504,260.333 375.5,260.5C 372.96,250.282 374.793,240.948 381,232.5C 391.251,223.579 398.251,212.579 402,199.5C 403.864,187.157 405.697,174.823 407.5,162.5C 416.81,161.502 426.143,161.168 435.5,161.5 Z"/></g>
<g><path style="opacity:1" fill="#f8f7f7" d="M 97.5,162.5 C 103.389,176.633 109.056,190.966 114.5,205.5C 103.5,206.833 92.5,206.833 81.5,205.5C 86.8403,191.143 92.1737,176.81 97.5,162.5 Z"/></g>
<g><path style="opacity:1" fill="#febf54" d="M 267.5,260.5 C 296.833,260.5 326.167,260.5 355.5,260.5C 362.167,260.5 368.833,260.5 375.5,260.5C 390.504,260.333 405.504,260.5 420.5,261C 427.072,262.085 431.739,265.585 434.5,271.5C 435.489,313.457 435.822,355.457 435.5,397.5C 406.165,397.333 376.831,397.5 347.5,398C 343.232,398.534 339.232,399.867 335.5,402C 327.528,407.894 319.362,413.394 311,418.5C 306.322,413.822 301.488,408.988 296.5,404C 287.812,399.161 278.479,396.828 268.5,397C 267.503,351.572 267.17,306.072 267.5,260.5 Z"/></g>
<g><path style="opacity:1" fill="#fea442" d="M 267.5,260.5 C 267.17,306.072 267.503,351.572 268.5,397C 278.479,396.828 287.812,399.161 296.5,404C 301.488,408.988 306.322,413.822 311,418.5C 319.362,413.394 327.528,407.894 335.5,402C 339.232,399.867 343.232,398.534 347.5,398C 376.831,397.5 406.165,397.333 435.5,397.5C 437.079,409.189 432.413,417.023 421.5,421C 397.5,421.333 373.5,421.667 349.5,422C 346.039,423.643 343.039,425.81 340.5,428.5C 328.064,437.09 315.73,445.923 303.5,455C 300.29,457.104 296.957,458.937 293.5,460.5C 291.272,459.781 289.439,458.448 288,456.5C 287.949,446.734 287.282,437.067 286,427.5C 284.127,425.291 281.96,423.458 279.5,422C 271.5,421.667 263.5,421.333 255.5,421C 248.624,417.969 244.624,412.802 243.5,405.5C 243.5,365.5 243.5,325.5 243.5,285.5C 241.957,268.042 249.957,259.709 267.5,260.5 Z"/></g>
<g><path style="opacity:0.995" fill="#6fbbc6" d="M 87.5,273.5 C 90.0495,297.365 95.8828,320.365 105,342.5C 108.282,348.601 110.782,354.601 112.5,360.5C 106.3,360.016 100.3,360.849 94.5,363C 82.5453,368.807 71.8786,376.307 62.5,385.5C 43.4698,350.712 34.1364,313.379 34.5,273.5C 52.0689,272.176 69.7355,272.176 87.5,273.5 Z"/></g>
<g><path style="opacity:1" fill="#b6e446" d="M 240.5,286.5 C 242.165,325.989 243.165,365.656 243.5,405.5C 244.624,412.802 248.624,417.969 255.5,421C 263.5,421.333 271.5,421.667 279.5,422C 281.96,423.458 284.127,425.291 286,427.5C 287.282,437.067 287.949,446.734 288,456.5C 289.439,458.448 291.272,459.781 293.5,460.5C 296.957,458.937 300.29,457.104 303.5,455C 315.73,445.923 328.064,437.09 340.5,428.5C 342.471,433.105 344.971,437.438 348,441.5C 358.289,454.791 368.955,467.791 380,480.5C 381.094,482.078 381.928,483.745 382.5,485.5C 382.167,485.5 381.833,485.5 381.5,485.5C 281.415,502.639 199.249,472.306 135,394.5C 127.454,384.457 120.954,373.791 115.5,362.5C 118.09,363.128 120.423,364.295 122.5,366C 125.833,370.667 129.833,374.667 134.5,378C 163.55,389.398 184.716,380.898 198,352.5C 202.864,338.24 207.531,323.906 212,309.5C 218.118,297.54 227.618,289.873 240.5,286.5 Z"/></g>
<g><path style="opacity:1" fill="#c9d446" d="M 240.5,286.5 C 241.209,285.596 242.209,285.263 243.5,285.5C 243.5,325.5 243.5,365.5 243.5,405.5C 243.165,365.656 242.165,325.989 240.5,286.5 Z"/></g>
<g><path style="opacity:1" fill="#faf6f4" d="M 292.5,293.5 C 302.172,293.334 311.839,293.5 321.5,294C 341.408,299.642 348.408,312.475 342.5,332.5C 352.478,333.499 362.478,333.832 372.5,333.5C 372.5,325.5 372.5,317.5 372.5,309.5C 367.703,309.879 363.036,309.379 358.5,308C 353.066,303.026 353.399,298.359 359.5,294C 373.167,293.333 386.833,293.333 400.5,294C 407.637,297.692 408.304,302.359 402.5,308C 397.964,309.379 393.297,309.879 388.5,309.5C 388.667,333.836 388.5,358.169 388,382.5C 383.052,390.487 378.052,390.487 373,382.5C 372.5,371.172 372.333,359.838 372.5,348.5C 362.478,348.168 352.478,348.501 342.5,349.5C 348.083,367.293 342.416,379.793 325.5,387C 305.666,391.253 288.499,386.419 274,372.5C 271.125,364.412 273.958,360.579 282.5,361C 295.098,372.4 309.432,375.4 325.5,370C 331.956,361.07 330.289,354.07 320.5,349C 310.167,348.667 299.833,348.333 289.5,348C 286.484,346.471 285.151,343.971 285.5,340.5C 285.326,338.307 285.993,336.473 287.5,335C 298.403,333.711 309.403,333.044 320.5,333C 329.386,328.731 331.552,322.231 327,313.5C 325.421,311.959 323.587,310.792 321.5,310C 311.833,309.667 302.167,309.333 292.5,309C 285.888,303.836 285.888,298.67 292.5,293.5 Z"/></g>
<g><path style="opacity:0.99" fill="#abd641" d="M 112.5,360.5 C 113.5,361.167 114.5,361.833 115.5,362.5C 120.954,373.791 127.454,384.457 135,394.5C 199.249,472.306 281.415,502.639 381.5,485.5C 354.187,499.827 325.187,508.493 294.5,511.5C 280.167,511.5 265.833,511.5 251.5,511.5C 167.108,501.166 104.108,459.166 62.5,385.5C 71.8786,376.307 82.5453,368.807 94.5,363C 100.3,360.849 106.3,360.016 112.5,360.5 Z"/></g>
</svg>
