<?xml version="1.0" encoding="UTF-8"?>
<!DOCTYPE svg PUBLIC "-//W3C//DTD SVG 1.1//EN" "http://www.w3.org/Graphics/SVG/1.1/DTD/svg11.dtd">
<svg xmlns="http://www.w3.org/2000/svg" version="1.1" width="512px" height="512px" style="shape-rendering:geometricPrecision; text-rendering:geometricPrecision; image-rendering:optimizeQuality; fill-rule:evenodd; clip-rule:evenodd" xmlns:xlink="http://www.w3.org/1999/xlink">
<g><path style="opacity:0.997" fill="#9facba" d="M 426.5,424.5 C 407.54,376.703 374.874,341.537 328.5,319C 254.946,288.982 188.28,299.982 128.5,352C 108.062,371.05 92.7283,393.55 82.5,419.5C 81.6618,419.842 81.3284,420.508 81.5,421.5C 32.5646,368.537 10.7313,305.87 16,233.5C 24.9696,155.676 61.8029,95.1755 126.5,52C 188.57,14.7047 254.57,5.70467 324.5,25C 410.045,53.2117 464.878,110.712 489,197.5C 505.697,272.016 491.697,340.016 447,401.5C 440.672,409.659 433.839,417.325 426.5,424.5 Z"/></g>
<g><path style="opacity:1" fill="#feddc1" d="M 241.5,109.5 C 292.74,107.683 325.24,131.349 339,180.5C 343.714,225.933 325.547,258.099 284.5,277C 245.153,289.708 211.986,280.541 185,249.5C 166.43,222.948 162.43,194.281 173,163.5C 186.91,134.08 209.744,116.08 241.5,109.5 Z"/></g>
<g><path style="opacity:1" fill="#a5e6ef" d="M 426.5,424.5 C 373.099,476.921 308.766,500.421 233.5,495C 177.718,489.598 129.718,467.765 89.5,429.5C 87.1667,426.167 84.8333,422.833 82.5,419.5C 92.7283,393.55 108.062,371.05 128.5,352C 188.28,299.982 254.946,288.982 328.5,319C 374.874,341.537 407.54,376.703 426.5,424.5 Z"/></g>
<g><path style="opacity:0.941" fill="#a7d2db" d="M 82.5,419.5 C 84.8333,422.833 87.1667,426.167 89.5,429.5C 86.5,427.167 83.8333,424.5 81.5,421.5C 81.3284,420.508 81.6618,419.842 82.5,419.5 Z"/></g>
</svg>
