<?xml version="1.0" encoding="UTF-8"?>
<!DOCTYPE svg PUBLIC "-//W3C//DTD SVG 1.1//EN" "http://www.w3.org/Graphics/SVG/1.1/DTD/svg11.dtd">
<svg xmlns="http://www.w3.org/2000/svg" version="1.1" width="512px" height="512px" style="shape-rendering:geometricPrecision; text-rendering:geometricPrecision; image-rendering:optimizeQuality; fill-rule:evenodd; clip-rule:evenodd" xmlns:xlink="http://www.w3.org/1999/xlink">
<g><path style="opacity:0.996" fill="#edab7d" d="M 237.5,-0.5 C 247.833,-0.5 258.167,-0.5 268.5,-0.5C 332.7,12.8779 367.367,52.3779 372.5,118C 370.076,169.388 345.742,206.055 299.5,228C 254.552,244.619 213.219,238.285 175.5,209C 135.876,171.339 124.71,126.506 142,74.5C 160.252,32.133 192.085,7.13302 237.5,-0.5 Z"/></g>
<g><path style="opacity:1" fill="#47a3de" d="M 374.5,267.5 C 335.524,360.298 266.524,416.131 167.5,435C 133.543,440.582 99.8767,439.416 66.5,431.5C 62.4465,422.622 59.9465,413.289 59,403.5C 56.7759,378.461 57.1092,353.461 60,328.5C 68.1748,295.324 89.0082,275.491 122.5,269C 206.47,263.729 290.47,263.229 374.5,267.5 Z"/></g>
<g><path style="opacity:0.997" fill="#f8973e" d="M 445.5,313.5 C 482.643,328.643 504.643,355.976 511.5,395.5C 511.5,404.833 511.5,414.167 511.5,423.5C 501.833,472.5 472.5,501.833 423.5,511.5C 414.167,511.5 404.833,511.5 395.5,511.5C 374.887,508.193 356.887,499.526 341.5,485.5C 310.611,454.954 301.111,418.62 313,376.5C 332.727,329.374 368.227,306.541 419.5,308C 428.296,309.323 436.962,311.157 445.5,313.5 Z"/></g>
<g><path style="opacity:0.994" fill="#4193d1" d="M 374.5,267.5 C 403.017,268.169 425.184,280.169 441,303.5C 442.786,306.736 444.286,310.07 445.5,313.5C 436.962,311.157 428.296,309.323 419.5,308C 368.227,306.541 332.727,329.374 313,376.5C 301.111,418.62 310.611,454.954 341.5,485.5C 270.281,492.255 199.281,490.421 128.5,480C 100.029,473.683 79.362,457.517 66.5,431.5C 99.8767,439.416 133.543,440.582 167.5,435C 266.524,416.131 335.524,360.298 374.5,267.5 Z"/></g>
<g><path style="opacity:1" fill="#fffefd" d="M 404.5,346.5 C 414.345,345.506 421.845,349.173 427,357.5C 428.431,368.422 428.931,379.422 428.5,390.5C 438.506,390.334 448.506,390.5 458.5,391C 472.336,397.177 475.836,407.01 469,420.5C 466.795,423.04 464.295,425.207 461.5,427C 450.578,428.431 439.578,428.931 428.5,428.5C 428.931,439.578 428.431,450.578 427,461.5C 419.79,472.996 410.29,475.496 398.5,469C 394.896,466.292 392.396,462.792 391,458.5C 390.5,448.506 390.334,438.506 390.5,428.5C 379.422,428.931 368.422,428.431 357.5,427C 346.632,419.696 344.132,410.196 350,398.5C 352.708,394.896 356.208,392.396 360.5,391C 370.494,390.5 380.494,390.334 390.5,390.5C 390.334,380.494 390.5,370.494 391,360.5C 393.687,353.981 398.187,349.314 404.5,346.5 Z"/></g>
</svg>
