<?xml version="1.0" encoding="UTF-8"?>
<svg version="1.1" xmlns="http://www.w3.org/2000/svg" width="512" height="512">
<path d="M0 0 C0.92425781 -0.03738281 1.84851563 -0.07476563 2.80078125 -0.11328125 C10.61667135 1.0395361 16.24047336 8.60938116 21.50390625 13.93359375 C22.44698242 14.88040862 23.39050747 15.82677658 24.3344574 16.77272034 C26.80783922 19.2536989 29.27516159 21.74061763 31.74121094 24.22888184 C34.24247824 26.7505883 36.74938534 29.26667375 39.25585938 31.78320312 C43.7124829 36.25907423 48.16343616 40.74053831 52.61257935 45.22384644 C54.96541859 47.59225801 57.3241253 49.95460665 59.6875 52.3125 C60.11160156 51.40628906 60.53570312 50.50007813 60.97265625 49.56640625 C64.53066795 42.11742753 68.28647039 35.61581926 73.6875 29.3125 C74.12191406 28.735 74.55632812 28.1575 75.00390625 27.5625 C86.67123492 12.51687019 106.37663896 3.50921228 124.6875 0.3125 C142.37441463 -0.80235073 158.27331617 -0.07683235 174.44140625 7.67578125 C180.52495832 9.40033601 186.64397312 5.84581058 192.17578125 3.56640625 C211.72785154 -3.41492252 235.35034419 -1.54738061 254.02075195 7.09985352 C260.87086923 10.43709014 266.939135 14.28268063 272.6875 19.3125 C273.3475 19.83070312 274.0075 20.34890625 274.6875 20.8828125 C290.49655386 33.66591464 299.34437814 53.72400333 302.4375 73.4375 C303.92202248 96.44759851 299.26151771 119.51362262 283.6875 137.3125 C283.3575 138.3025 283.0275 139.2925 282.6875 140.3125 C283.615625 140.35375 284.54375 140.395 285.5 140.4375 C295.77348718 141.95257993 304.96902852 149.67771821 311.4375 157.40234375 C318.37918273 166.99922012 320.28797541 177.40764773 320.19543457 189.02600098 C320.20167453 190.24876944 320.2079145 191.4715379 320.21434355 192.73135996 C320.22744327 196.09047246 320.22285845 199.4486774 320.21039867 202.80773282 C320.20129003 206.4438074 320.2153465 210.0798068 320.22631836 213.71586609 C320.24404659 220.82504665 320.24028914 227.93405769 320.2286678 235.04324472 C320.21961121 240.82423879 320.21841906 246.60518556 320.22276306 252.38618469 C320.22337599 253.21092715 320.22398893 254.03566961 320.22462043 254.88540426 C320.22589941 256.56118009 320.22719627 258.2369559 320.2285108 259.91273171 C320.23989991 275.60344141 320.22682915 291.29405743 320.20530933 306.98475176 C320.18743986 320.4298228 320.19054444 333.87475567 320.20898438 347.31982422 C320.23042064 362.95678209 320.23880143 378.59365798 320.22653532 394.23062849 C320.22526121 395.90002408 320.22400372 397.56941969 320.22276306 399.23881531 C320.22214596 400.06005588 320.22152886 400.88129645 320.22089306 401.7274231 C320.21744841 407.4972827 320.22324933 413.26709003 320.23268127 419.03694153 C320.24393333 426.07449702 320.24079415 433.11187419 320.2195583 440.14940941 C320.20909075 443.73580107 320.20485188 447.3218961 320.21815491 450.90828514 C320.23239106 454.80535523 320.21532179 458.70194621 320.19543457 462.59899902 C320.20435746 463.71925303 320.21328034 464.83950704 320.22247362 465.99370813 C320.08602739 479.83360956 315.16025751 490.37457084 305.7421875 500.37890625 C297.2400684 508.34749156 286.66633297 512.64008459 275.01927662 512.56976891 C274.27528719 512.57327498 273.53129777 512.57678105 272.76476321 512.58039337 C270.27586498 512.58968502 267.78720189 512.58478986 265.29829407 512.57992554 C263.4941405 512.58366293 261.68998855 512.58826481 259.88583916 512.59365618 C254.93091407 512.6058907 249.97605647 512.60562517 245.02111971 512.60326743 C239.67603109 512.60285938 234.33096415 512.61389737 228.98588562 512.62338257 C218.51453778 512.63999631 208.04321246 512.6454923 197.57185254 512.64660732 C189.05953263 512.64755767 180.54722014 512.65166732 172.03490257 512.65800858 C147.89920636 512.67562244 123.76352793 512.68484728 99.62782524 512.68334763 C97.6760349 512.68322776 97.6760349 512.68322776 95.68481445 512.68310547 C93.7306399 512.68298283 93.7306399 512.68298283 91.73698708 512.68285771 C70.62583281 512.68204489 49.51474991 512.70118109 28.40361629 512.7293822 C6.72517375 512.75811254 -14.95323399 512.77192239 -36.63169605 512.77019465 C-48.80178866 512.76953077 -60.97180648 512.775022 -73.14188194 512.79655075 C-83.50443597 512.81476453 -93.8668813 512.81910825 -104.22944441 512.8055319 C-109.51497627 512.79900316 -114.8002996 512.79888185 -120.08581161 512.8162384 C-124.92884461 512.83197813 -129.77150387 512.82909613 -134.6145278 512.81167014 C-136.36216686 512.80860224 -138.10983387 512.81222468 -139.85743996 512.82339029 C-156.17730849 512.92071451 -168.22402618 509.80977781 -180.37890625 498.3671875 C-189.97182182 488.13198169 -192.61703097 476.79573503 -192.57992554 463.20027161 C-192.58445665 461.98177527 -192.58898776 460.76327893 -192.59365618 459.50785846 C-192.6041064 456.13769976 -192.60562946 452.76775492 -192.60326743 449.39759529 C-192.60285846 445.7580392 -192.61390614 442.11851468 -192.62338257 438.47897339 C-192.63997687 431.35244595 -192.64549143 424.2259516 -192.64660732 417.09940646 C-192.64755866 411.30400004 -192.6516732 405.5086045 -192.65800858 399.71320152 C-192.67561762 383.26942 -192.68484811 366.82566455 -192.68334763 350.38187353 C-192.68326772 349.49587235 -192.6831878 348.60987118 -192.68310547 347.69702148 C-192.68302371 346.8099339 -192.68294195 345.92284632 -192.68285771 345.0088773 C-192.68204517 330.63906245 -192.70117568 316.26935251 -192.7293822 301.899568 C-192.75813939 287.13227892 -192.7719209 272.36504096 -192.77019465 257.59772319 C-192.76953167 249.31206531 -192.77498338 241.02651738 -192.79655075 232.74088478 C-192.81480002 225.6849266 -192.81907934 218.62912819 -192.8055319 211.57315657 C-192.79902071 207.9766612 -192.79881738 204.380472 -192.8162384 200.78400612 C-192.83497408 196.87574616 -192.8223661 192.96792859 -192.80697632 189.05964661 C-192.82240701 187.3741497 -192.82240701 187.3741497 -192.83814943 185.65460235 C-192.71741872 171.72609915 -187.71403413 161.48404511 -178.47265625 151.28125 C-171.04797233 144.12341519 -162.10471154 140.29102081 -151.875 139.8125 C-141.08015891 138.76315661 -135.44303249 130.39181807 -128.86431503 122.59650326 C-123.54535036 116.39095372 -117.78549992 110.63715944 -112.00878906 104.86352539 C-110.87943582 103.73117459 -109.75028599 102.59862087 -108.62132263 101.46588135 C-105.57652914 98.41231271 -102.52855509 95.36193868 -99.47969151 92.31243443 C-97.57398204 90.40601174 -95.66898737 88.49887778 -93.76424408 86.59148979 C-87.11732246 79.93534223 -80.46784868 73.2817568 -73.81591797 66.63061523 C-67.61564848 60.43094853 -61.42100105 54.22570298 -55.22891259 48.01786619 C-49.90578928 42.68168737 -44.57883815 37.34935056 -39.24886298 32.02001566 C-36.06799843 28.83940632 -32.88871328 25.65725619 -29.71326447 22.47123909 C-26.73322011 19.48154519 -23.74845507 16.49664781 -20.75993538 13.51542664 C-19.66289871 12.41943914 -18.5675772 11.32173182 -17.47408104 10.22221184 C-15.9846195 8.7250756 -14.48916855 7.23419383 -12.99200439 5.74476624 C-12.15581196 4.90802903 -11.31961952 4.07129183 -10.45808792 3.20919895 C-7.16076508 0.29436674 -4.25465971 0.11180987 0 0 Z " fill="#DC995D" transform="translate(192.3125,-0.3125)"/>
<path d="M0 0 C6.08355207 1.72455476 12.20256687 -1.82997067 17.734375 -4.109375 C37.28644529 -11.09070377 60.90893794 -9.22316186 79.5793457 -0.57592773 C86.42946298 2.76130889 92.49772875 6.60689938 98.24609375 11.63671875 C99.23609375 12.41402344 99.23609375 12.41402344 100.24609375 13.20703125 C116.05514761 25.99013339 124.90297189 46.04822208 127.99609375 65.76171875 C129.34295346 86.63804428 125.53930861 105.73658907 114.24609375 123.63671875 C113.89866056 124.27694725 113.55122738 124.91717575 113.19326591 125.57680511 C111.12450655 128.9249575 109.46290491 131.17869809 105.70714188 132.59240723 C102.49325229 133.19165428 99.33279118 133.5410701 96.07470703 133.81445312 C94.23038291 134.00622021 94.23038291 134.00622021 92.34879971 134.20186138 C88.25728905 134.60091174 84.16604608 134.92996999 80.06640625 135.23046875 C79.36052644 135.28353817 78.65464662 135.33660759 77.92737651 135.39128518 C67.21598957 136.18648471 56.50211473 136.7069705 45.76741648 137.05787325 C44.17274939 137.11034211 42.57816199 137.16529253 40.9836669 137.22275114 C0.52088887 138.67474947 -32.5822726 137.33562956 -63.42468262 108.6993103 C-80.65033374 92.00320823 -95.83111145 73.03886141 -109.50106621 53.3606205 C-110.63172317 51.80484206 -111.88361464 50.33895873 -113.14637756 48.88835144 C-113.67686203 48.14531265 -114.2073465 47.40227386 -114.75390625 46.63671875 C-111.97988668 30.7491521 -97.76233467 16.10239253 -85.24609375 6.99609375 C-60.56078049 -10.16304034 -27.07843475 -12.9841336 0 0 Z " fill="#FBD148" transform="translate(366.75390625,7.36328125)"/>
<path d="M0 0 C0.92425781 -0.03738281 1.84851563 -0.07476563 2.80078125 -0.11328125 C10.57344117 1.03315979 16.1868253 8.5388838 21.43359375 13.828125 C22.36293228 14.75792175 23.29227081 15.68771851 24.24977112 16.64569092 C26.21203148 18.60950959 28.17090725 20.57662085 30.12719727 22.54638672 C32.61433579 25.0504549 35.10794558 27.54795047 37.60394192 30.04318619 C40.0082935 32.44787796 42.40836951 34.85681327 44.80859375 37.265625 C45.69421494 38.15235901 46.57983612 39.03909302 47.49229431 39.95269775 C51.74675896 44.239437 55.86550784 48.58061796 59.81060791 53.1526947 C68.44884133 63.09301168 77.66580152 72.41796098 86.99944115 81.69960594 C89.34251453 84.02974094 91.68229576 86.36313927 94.02131653 88.69734192 C98.96970691 93.63441195 103.92207777 98.56747696 108.875 103.5 C114.65611412 109.25750527 120.43558166 115.01664437 126.21090126 120.77996254 C128.52009939 123.08266373 130.83227635 125.38234544 133.14457703 127.68193054 C134.54469126 129.07841628 135.94466755 130.47504035 137.34448242 131.87182617 C137.99110336 132.51328079 138.6377243 133.15473541 139.30393982 133.81562805 C140.78422205 135.29573082 142.23900478 136.80127491 143.6875 138.3125 C143.6875 138.6425 143.6875 138.9725 143.6875 139.3125 C48.6475 139.3125 -46.3925 139.3125 -144.3125 139.3125 C-140.44306402 134.79815802 -136.76405916 130.68290216 -132.53515625 126.59765625 C-130.72764424 124.73931789 -129.05892377 122.85610686 -127.38006592 120.88523865 C-122.50532164 115.30187051 -117.24826603 110.1002117 -112.00878906 104.86352539 C-110.87943582 103.73117459 -109.75028599 102.59862087 -108.62132263 101.46588135 C-105.57652914 98.41231271 -102.52855509 95.36193868 -99.47969151 92.31243443 C-97.57398204 90.40601174 -95.66898737 88.49887778 -93.76424408 86.59148979 C-87.11732246 79.93534223 -80.46784868 73.2817568 -73.81591797 66.63061523 C-67.61564848 60.43094853 -61.42100105 54.22570298 -55.22891259 48.01786619 C-49.90578928 42.68168737 -44.57883815 37.34935056 -39.24886298 32.02001566 C-36.06799843 28.83940632 -32.88871328 25.65725619 -29.71326447 22.47123909 C-26.73322011 19.48154519 -23.74845507 16.49664781 -20.75993538 13.51542664 C-19.66289871 12.41943914 -18.5675772 11.32173182 -17.47408104 10.22221184 C-15.9846195 8.7250756 -14.48916855 7.23419383 -12.99200439 5.74476624 C-12.15581196 4.90802903 -11.31961952 4.07129183 -10.45808792 3.20919895 C-7.16076508 0.29436674 -4.25465971 0.11180987 0 0 Z " fill="#5EAA5E" transform="translate(192.3125,-0.3125)"/>
<path d="M0 0 C1.26913239 -0.00029205 2.53826477 -0.00058411 3.84585571 -0.00088501 C7.304007 -0.00145575 10.76201782 0.01025314 14.22013664 0.02426291 C17.84226635 0.03681696 21.46439974 0.03794443 25.08654785 0.04031372 C31.93576035 0.04651481 38.78490855 0.06290695 45.63409281 0.0830127 C54.89634209 0.10960827 64.15860912 0.12035543 73.42088699 0.13201714 C88.00004048 0.15078862 102.5790583 0.19064337 117.15820312 0.22705078 C117.15820312 34.21705078 117.15820312 68.20705078 117.15820312 103.22705078 C87.56204215 103.30737812 87.56204215 103.30737812 72.84874916 103.32755852 C64.91981204 103.33860279 56.99091741 103.35258129 49.06201172 103.37792969 C42.78020968 103.39800261 36.49843984 103.41079982 30.21660662 103.41522777 C26.89720779 103.4178119 23.57797327 103.42487518 20.2585907 103.43851089 C-5.60337678 103.54044843 -28.73502619 103.41232415 -48.66992188 84.55126953 C-53.97185451 78.93979292 -58.39148979 73.13781292 -61.84179688 66.22705078 C-62.36257813 65.19451172 -62.88335937 64.16197266 -63.41992188 63.09814453 C-66.40151347 56.45233378 -67.57249558 51.92229178 -65.05664062 44.98095703 C-64.45529297 43.61777344 -64.45529297 43.61777344 -63.84179688 42.22705078 C-63.40996094 41.22544922 -62.978125 40.22384766 -62.53320312 39.19189453 C-59.41829836 32.51468675 -55.69206046 26.76256132 -50.84179688 21.22705078 C-50.30941406 20.61216797 -49.77703125 19.99728516 -49.22851562 19.36376953 C-36.32267043 5.47227507 -18.40879634 -0.11153154 0 0 Z " fill="#D28D54" transform="translate(394.841796875,259.77294921875)"/>
<path d="M0 0 C5.08454239 4.43267798 9.39006392 9.18310854 13.08984375 14.8203125 C14.17265625 16.46 14.17265625 16.46 15.27734375 18.1328125 C21.54249127 29.98154338 22.40823588 46.0450863 19.2109375 59.00390625 C16.72505711 66.49436432 12.98368646 72.67163833 8.08984375 78.8203125 C7.32671875 79.8721875 6.56359375 80.9240625 5.77734375 82.0078125 C-2.35897773 90.52256754 -13.83778091 97.06370536 -25.65013123 98.17085266 C-29.62366549 98.13779684 -31.72196407 96.97350154 -34.6608429 94.19828796 C-35.18534531 93.66387589 -35.70984772 93.12946381 -36.25024414 92.57885742 C-36.82847931 92.02106598 -37.40671448 91.46327454 -38.00247192 90.88858032 C-39.90030444 89.04616588 -41.76712437 87.17570077 -43.6328125 85.30078125 C-44.9456963 84.00345502 -46.25946663 82.70702539 -47.57408142 81.41145325 C-50.32189705 78.69345009 -53.05373968 75.9605075 -55.77612305 73.21704102 C-59.26003736 69.70994941 -62.78727788 66.25042397 -66.32885075 62.80169201 C-69.05315712 60.13643393 -71.74911942 57.44384737 -74.43780327 54.74270058 C-75.72701065 53.45554128 -77.02565483 52.17776016 -78.33384895 50.90990257 C-88.51473412 41.0049405 -88.51473412 41.0049405 -89.48852539 35.62493896 C-89.26487515 32.81712346 -88.80175524 30.48402988 -87.91015625 27.8203125 C-87.59820312 26.70398438 -87.28625 25.58765625 -86.96484375 24.4375 C-84.08267794 17.73789604 -80.77615003 12.25638086 -75.91015625 6.8203125 C-75.31460937 6.13195312 -74.7190625 5.44359375 -74.10546875 4.734375 C-54.76880446 -16.20699172 -22.2204353 -16.64295691 0 0 Z " fill="#F8B837" transform="translate(364.91015625,40.1796875)"/>
<path d="M0 0 C4.13433015 3.68494644 8.03719065 7.57117828 11.875 11.5625 C6.77051178 17.74384869 1.19205058 23.36072878 -4.5 29 C-5.42683594 29.92232422 -6.35367188 30.84464844 -7.30859375 31.79492188 C-9.57845846 34.05308625 -11.85063538 36.30886942 -14.125 38.5625 C-13.52751953 38.53639648 -12.93003906 38.51029297 -12.31445312 38.48339844 C-4.34766486 38.27986735 -4.34766486 38.27986735 -0.625 40.8125 C0.34953125 41.43898438 0.34953125 41.43898438 1.34375 42.078125 C3.23255312 43.90910762 3.58347124 44.96253744 3.875 47.5625 C2.84629822 49.20364761 2.84629822 49.20364761 1.19506836 50.8369751 C0.57549759 51.46197403 -0.04407318 52.08697296 -0.68241882 52.73091125 C-1.37632217 53.40526718 -2.07022552 54.07962311 -2.78515625 54.77441406 C-3.50528397 55.49366562 -4.22541168 56.21291718 -4.96736145 56.95396423 C-7.36258019 59.34056931 -9.77492925 61.70907263 -12.1875 64.078125 C-13.85483721 65.73359524 -15.52100047 67.39024862 -17.18603516 69.04803467 C-21.58510827 73.42229522 -25.99851642 77.78180096 -30.41546631 82.13800049 C-36.6153076 88.25767804 -42.79585 94.39685265 -48.97827148 100.53411865 C-52.27083871 103.8025684 -55.56882889 107.06538896 -58.87133789 110.3237915 C-60.39081513 111.82683594 -61.91026634 113.32990669 -63.4296875 114.83300781 C-64.107397 115.49926682 -64.78510651 116.16552582 -65.48335266 116.85197449 C-70.52376503 121.84645821 -75.44651416 126.97479704 -79.69763088 132.66896343 C-82.23699082 136.04420426 -84.16192938 137.38569395 -88.36300659 138.1569519 C-92.49035028 138.37449114 -96.55479628 138.35096069 -100.68359375 138.24609375 C-102.19814253 138.23302206 -103.7127211 138.2230653 -105.22731018 138.21607971 C-109.1950086 138.18947608 -113.16088528 138.12082608 -117.12786865 138.04315186 C-121.1833024 137.9712726 -125.2390334 137.93951597 -129.29492188 137.90429688 C-137.23911309 137.82944244 -145.18182932 137.710128 -153.125 137.5625 C-152.1694276 136.43991632 -151.21275329 135.31827055 -150.25561523 134.19702148 C-149.72298569 133.57230453 -149.19035614 132.94758759 -148.6415863 132.30393982 C-146.34842959 129.670793 -143.85686533 127.2716268 -141.34765625 124.84765625 C-139.54014424 122.98931789 -137.87142377 121.10610686 -136.19256592 119.13523865 C-131.31782164 113.55187051 -126.06076603 108.3502117 -120.82128906 103.11352539 C-119.69193582 101.98117459 -118.56278599 100.84862087 -117.43382263 99.71588135 C-114.38902914 96.66231271 -111.34105509 93.61193868 -108.29219151 90.56243443 C-106.38648204 88.65601174 -104.48148737 86.74887778 -102.57674408 84.84148979 C-95.92982246 78.18534223 -89.28034868 71.5317568 -82.62841797 64.88061523 C-76.42814848 58.68094853 -70.23350105 52.47570298 -64.04141259 46.26786619 C-58.71828928 40.93168737 -53.39133815 35.59935056 -48.06136298 30.27001566 C-44.88049843 27.08940632 -41.70121328 23.90725619 -38.52576447 20.72123909 C-35.54572011 17.73154519 -32.56095507 14.74664781 -29.57243538 11.76542664 C-28.47539871 10.66943914 -27.3800772 9.57173182 -26.28658104 8.47221184 C-24.7971195 6.9750756 -23.30166855 5.48419383 -21.80450439 3.99476624 C-20.96831196 3.15802903 -20.13211952 2.32129183 -19.27058792 1.45919895 C-14.22524852 -3.00087927 -5.87248497 -2.70134309 0 0 Z " fill="#5EAA5E" transform="translate(201.125,1.4375)"/>
<path d="M0 0 C2.49604756 2.49604756 3.03565309 4.66632702 4.1875 8 C6.62960304 14.48371217 9.69631455 19.60231047 14 25 C14.57234375 25.75925781 15.1446875 26.51851563 15.734375 27.30078125 C26.3045447 40.37797837 41.5316635 46.75907301 57.90454102 48.58294678 C68.89735112 49.60880876 80.00182402 49.3652225 91.03125 49.4140625 C93.72124658 49.43175376 96.41121953 49.45228734 99.10119629 49.4727478 C105.41529776 49.51917075 111.72941597 49.55608892 118.04359865 49.58942068 C125.24340236 49.62790318 132.4431196 49.67724298 139.64284992 49.72740483 C154.42850387 49.83018065 169.21421386 49.91818195 184 50 C184 59.57 184 69.14 184 79 C167.84795966 79.09063213 151.69613962 79.16417365 135.54391479 79.20724869 C128.04252964 79.22778937 120.54131481 79.25574522 113.04003906 79.30175781 C106.49454751 79.34188818 99.94917944 79.36749437 93.40356827 79.37635398 C89.94434551 79.38152494 86.48547571 79.39349581 83.02636719 79.42292023 C56.89491483 79.6363698 36.62164059 76.78611856 16.875 58.25 C10.20250949 51.37813228 5.33278652 42.94914898 2 34 C1.7009375 33.25234375 1.401875 32.5046875 1.09375 31.734375 C-2.06624712 22.42993905 -1.79154804 11.72764574 -1 2 C-0.67 1.34 -0.34 0.68 0 0 Z " fill="#C17B48" transform="translate(328,313)"/>
<path d="M0 0 C13.50926078 10.27058742 21.93555368 22.81897785 24.6875 39.75 C25.90674509 57.21803059 20.49791191 72.03242261 9.1015625 85.27734375 C-1.26524605 95.89577387 -15.0929089 101.70970644 -29.8125 102 C-35.25645114 101.92323453 -40.0666549 101.17260206 -45.3125 99.75 C-43.97801769 96.06709048 -42.30208725 93.1405133 -40.0625 89.9375 C-28.0895811 71.39072375 -25.61491007 48.76487188 -29.89990234 27.37915039 C-32.31108065 16.62065098 -37.24987253 5.34318926 -43.9921875 -3.4375 C-45.3125 -5.25 -45.3125 -5.25 -45.3125 -7.25 C-29.30242017 -10.4208275 -13.82121828 -9.08009593 0 0 Z " fill="#F8B938" transform="translate(441.3125,37.25)"/>
<path d="M0 0 C2.88793985 1.30850636 4.95350175 2.70446481 7.1887207 4.94580078 C7.78646805 5.5404715 8.38421539 6.13514221 9.00007629 6.74783325 C9.63555893 7.3905014 10.27104156 8.03316956 10.92578125 8.6953125 C11.59159714 9.36158661 12.25741302 10.02786072 12.94340515 10.71432495 C14.35193182 12.12587061 15.75802933 13.53984381 17.16186523 14.95605469 C19.28911149 17.10141236 21.42410443 19.23880434 23.56054688 21.375 C24.93276149 22.75213618 26.30452063 24.1297264 27.67578125 25.5078125 C28.30519119 26.13833527 28.93460114 26.76885803 29.58308411 27.41848755 C33.21007217 31.08358414 36.6548268 34.85626317 40.03329468 38.75038147 C48.7303201 48.69848571 57.94588938 58.0732294 67.31194115 67.38710594 C69.65501453 69.71724094 71.99479576 72.05063927 74.33381653 74.38484192 C79.28220691 79.32191195 84.23457777 84.25497696 89.1875 89.1875 C94.96861412 94.94500527 100.74808166 100.70414437 106.52340126 106.46746254 C108.83259939 108.77016373 111.14477635 111.06984544 113.45707703 113.36943054 C114.85719126 114.76591628 116.25716755 116.16254035 117.65698242 117.55932617 C118.30360336 118.20078079 118.9502243 118.84223541 119.61643982 119.50312805 C121.09672205 120.98323082 122.55150478 122.48877491 124 124 C124 124.33 124 124.66 124 125 C110.39060425 127.9267966 93.98992479 130.38965565 81.22750092 123.50421143 C66.82976649 113.92485726 55.20278336 100.15997495 43.64935303 87.45422363 C39.12568867 82.50245958 34.45641219 77.68821767 29.81054688 72.8515625 C23.03834538 65.77140518 16.31922128 58.64734512 9.68725586 51.43554688 C9.00850403 50.69754852 8.3297522 49.95955017 7.63043213 49.19918823 C3.89269222 45.11677493 0.22303675 40.9859252 -3.37889767 36.78302765 C-7.47020316 32.2830583 -12.24835744 27.28421535 -18.578125 26.8046875 C-19.45984375 26.82789062 -20.3415625 26.85109375 -21.25 26.875 C-22.58804688 26.90207031 -22.58804688 26.90207031 -23.953125 26.9296875 C-24.62859375 26.95289062 -25.3040625 26.97609375 -26 27 C-20.89551178 20.81865131 -15.31705058 15.20177122 -9.625 9.5625 C-8.69816406 8.64017578 -7.77132812 7.71785156 -6.81640625 6.76757812 C-4.54654154 4.50941375 -2.27436462 2.25363058 0 0 Z " fill="#90CD90" transform="translate(212,14)"/>
<path d="M0 0 C0.86625 0.721875 1.7325 1.44375 2.625 2.1875 C3.18445313 2.64511719 3.74390625 3.10273438 4.3203125 3.57421875 C11.6345758 10.11272685 15.90069124 19.15135773 16.8984375 28.84375 C17.28154426 39.57073915 14.34695946 48.45790162 7.375 56.6875 C0.34231771 63.8957068 -8.14936416 68.32355247 -18.33813477 68.61889648 C-29.73615725 68.65107611 -39.12296652 66.32329444 -47.625 58.2109375 C-54.54741662 50.20689329 -57.77187182 41.86034885 -57.75 31.375 C-57.74838867 30.57545898 -57.74677734 29.77591797 -57.74511719 28.95214844 C-57.61974609 22.92696116 -56.68172459 18.31465138 -53.375 13.1875 C-52.818125 12.176875 -52.26125 11.16625 -51.6875 10.125 C-38.26957446 -6.91939191 -19.07147161 -10.24208661 0 0 Z " fill="#C0BFBF" transform="translate(415.375,293.8125)"/>
<path d="M0 0 C5.46555548 3.16221424 5.46555548 3.16221424 6.58009338 5.90374374 C6.8125 8.015625 6.8125 8.015625 5.78379822 9.65677261 C5.23889236 10.19577068 4.69398651 10.73476875 4.13256836 11.2901001 C3.51299759 11.91509903 2.89342682 12.54009796 2.25508118 13.18403625 C1.56117783 13.85839218 0.86727448 14.53274811 0.15234375 15.22753906 C-0.56778397 15.94679062 -1.28791168 16.66604218 -2.02986145 17.40708923 C-4.42508019 19.79369431 -6.83742925 22.16219763 -9.25 24.53125 C-10.91733721 26.18672024 -12.58350047 27.84337362 -14.24853516 29.50115967 C-18.64760827 33.87542022 -23.06101642 38.23492596 -27.47796631 42.59112549 C-33.6778076 48.71080304 -39.85835 54.84997765 -46.04077148 60.98724365 C-49.33333871 64.2556934 -52.63132889 67.51851396 -55.93383789 70.7769165 C-57.45331513 72.27996094 -58.97276634 73.78303169 -60.4921875 75.28613281 C-61.169897 75.95239182 -61.84760651 76.61865082 -62.54585266 77.30509949 C-67.60121988 82.31440179 -72.47141915 87.4812469 -76.81221008 93.12982559 C-79.33953799 96.38774287 -81.1473167 97.83119066 -85.26904297 98.56201172 C-88.91369052 98.70455117 -92.48201012 98.62696458 -96.125 98.453125 C-97.38119141 98.42154297 -98.63738281 98.38996094 -99.93164062 98.35742188 C-103.01934881 98.27523953 -106.10219797 98.1603927 -109.1875 98.015625 C-104.26155355 92.06756855 -98.92558865 86.63994361 -93.44140625 81.20703125 C-92.02106758 79.79247979 -90.60073184 78.37792537 -89.18056393 76.96320248 C-86.20701542 74.00270381 -83.22890774 71.04679183 -80.25158691 68.09008789 C-77.79466381 65.64982666 -75.33878438 63.20853569 -72.88548279 60.76463318 C-71.05359267 58.94019948 -69.21945639 57.11801738 -67.38270569 55.29847717 C-63.06238448 50.99512508 -58.91507001 46.62848717 -54.94203186 42.00392151 C-51.58308678 38.19744816 -47.98113322 34.62572662 -44.40234375 31.02734375 C-43.58302872 30.20232864 -42.76371368 29.37731354 -41.91957092 28.52729797 C-40.19899152 26.79733246 -38.4770008 25.06876955 -36.75366211 23.34155273 C-34.12216021 20.70027466 -31.50151621 18.04851751 -28.88085938 15.39648438 C-27.20118016 13.71028047 -25.5208635 12.02471125 -23.83984375 10.33984375 C-23.06156723 9.54922043 -22.28329071 8.75859711 -21.48143005 7.9440155 C-15.47783702 1.96484481 -8.92640446 -4.01688201 0 0 Z " fill="#4D964D" transform="translate(198.1875,40.984375)"/>
<path d="M0 0 C9.27363093 -0.92325972 17.06107276 1.29391371 24.55078125 6.9140625 C32.2885574 14.06662868 37.20681632 23.19280634 38.2734375 33.69140625 C38.5606019 41.809323 36.59173529 47.76521891 33 55 C23.30417396 55.15638429 14.00558043 51.32800609 6.69140625 45.00390625 C4.94790522 43.08043093 3.44599788 41.15406764 2 39 C1.59394531 38.40058594 1.18789063 37.80117188 0.76953125 37.18359375 C-4.46813911 28.73146866 -4.86432533 19.66838332 -4 10 C-3.00432404 6.45885681 -1.71364393 3.25133334 0 0 Z " fill="#D9D9D9" transform="translate(394,289)"/>
<path d="M0 0 C0.54140625 0.22558594 1.0828125 0.45117188 1.640625 0.68359375 C1.12113281 1.3384375 0.60164063 1.99328125 0.06640625 2.66796875 C-11.12528808 17.31440051 -13.64091149 30.68621206 -12.359375 48.68359375 C-11.55070706 53.01805392 -10.25056939 56.71208552 -8.359375 60.68359375 C-7.946875 61.61171875 -7.534375 62.53984375 -7.109375 63.49609375 C-0.22069626 77.58657298 11.62707432 85.85610259 26.09765625 90.921875 C31.16580492 92.43998405 35.71408133 92.81934739 41.015625 92.80859375 C42.28148437 92.81117187 43.54734375 92.81375 44.8515625 92.81640625 C48.55027292 92.68676073 51.99500443 92.27706687 55.640625 91.68359375 C52.37669602 96.54548796 48.78120756 98.51230486 43.640625 100.93359375 C42.9290625 101.28421875 42.2175 101.63484375 41.484375 101.99609375 C35.63873557 104.83166511 30.28543517 106.74211335 23.640625 105.68359375 C21.13168147 103.99004106 19.37758266 102.55842681 17.30053711 100.44213867 C16.72230194 99.88434723 16.14406677 99.32655579 15.54830933 98.75186157 C13.65047681 96.90944713 11.78365688 95.03898202 9.91796875 93.1640625 C8.60508495 91.86673627 7.29131462 90.57030664 5.97669983 89.2747345 C3.2288842 86.55673134 0.49704157 83.82378875 -2.2253418 81.08032227 C-5.70925611 77.57323066 -9.23649663 74.11370522 -12.7780695 70.66497326 C-15.50237587 67.99971518 -18.19833817 65.30712862 -20.88702202 62.60598183 C-22.1762294 61.31882253 -23.47487358 60.04104141 -24.7830677 58.77318382 C-34.96395287 48.86822175 -34.96395287 48.86822175 -35.93774414 43.48822021 C-35.7140939 40.68040471 -35.25097399 38.34731113 -34.359375 35.68359375 C-34.04742187 34.56726563 -33.73546875 33.4509375 -33.4140625 32.30078125 C-30.53189669 25.60117729 -27.22536878 20.11966211 -22.359375 14.68359375 C-21.76382812 13.99523438 -21.16828125 13.306875 -20.5546875 12.59765625 C-15.89294179 7.54904368 -7.31820622 -0.98141507 0 0 Z " fill="#E49D1D" transform="translate(311.359375,32.31640625)"/>
<path d="M0 0 C-0.81791016 0.73089844 -0.81791016 0.73089844 -1.65234375 1.4765625 C-19.89273326 18.62564665 -26.55772677 40.74966343 -29 65 C-32.94330793 63.40965647 -35.58522906 60.67772141 -38.5 57.6875 C-38.97308594 57.21376953 -39.44617188 56.74003906 -39.93359375 56.25195312 C-42.83154119 53.31788168 -45.69069887 50.42201523 -48 47 C-45.21106262 31.02699503 -30.94353962 16.48203432 -18.3984375 7.3125 C-5.38756964 -1.79585655 -5.38756964 -1.79585655 0 0 Z " fill="#F8BA38" transform="translate(300,7)"/>
<path d="M0 0 C1.42892578 0.52400391 1.42892578 0.52400391 2.88671875 1.05859375 C4.15357779 1.51841666 5.4205087 1.97804162 6.6875 2.4375 C7.31333984 2.66759766 7.93917969 2.89769531 8.58398438 3.13476562 C14.8515792 5.39897527 20.23290709 6.16224538 26.875 6.125 C27.89787109 6.13080078 27.89787109 6.13080078 28.94140625 6.13671875 C33.39055248 6.12824419 37.60958055 5.72218388 42 5 C38.18074139 9.24115346 34.3695163 11.7158021 29.25 14.1875 C28.17721802 14.70957031 28.17721802 14.70957031 27.08276367 15.2421875 C15.01942937 20.96483706 2.9297627 21.50637633 -10 18 C-8.47146065 13.72813475 -6.28490519 10.00673137 -3.875 6.1875 C-3.50246094 5.59001953 -3.12992187 4.99253906 -2.74609375 4.37695312 C-1.8342952 2.91573749 -0.91764024 1.45755415 0 0 Z " fill="#E59D1D" transform="translate(406,119)"/>
<path d="M0 0 C4.4297642 0.79102932 5.89210172 1.98974785 8.5 5.625 C9.1646293 9.24353729 8.96543651 10.85601795 7.0625 14 C3.28733249 16.39400866 -0.1533334 16.55016207 -4.5 15.625 C-7.30310861 13.23210241 -8.2589505 11.69633111 -9.0625 8.125 C-7.92371715 3.06374287 -4.9606643 0.88583291 0 0 Z " fill="#E9B681" transform="translate(232.5,475.375)"/>
<path d="M0 0 C2.80310861 2.39289759 3.7589505 3.92866889 4.5625 7.5 C3.71291608 11.27592854 2.07076729 12.7132584 -1 15 C-4.5 15.625 -4.5 15.625 -8 15 C-11.42123173 12.52506641 -12.79477021 11.11736219 -13.5625 6.9375 C-13 4 -13 4 -11.5625 1.625 C-7.78733249 -0.76900866 -4.3466666 -0.92516207 0 0 Z " fill="#E9B681" transform="translate(349,160)"/>
<path d="M0 0 C2.1640625 0.41796875 2.1640625 0.41796875 4.7265625 2.60546875 C6.30563888 5.69496601 6.92580144 7.03246236 6.1640625 10.41796875 C3.53874599 13.99794581 2.06730377 15.25667567 -2.3359375 16.04296875 C-5.8359375 15.41796875 -5.8359375 15.41796875 -8.8359375 13.35546875 C-10.8359375 10.41796875 -10.8359375 10.41796875 -10.8359375 6.79296875 C-8.97745695 0.52059689 -6.16103928 -0.21071958 0 0 Z " fill="#E9B681" transform="translate(234.8359375,159.58203125)"/>
<path d="M0 0 C2.1640625 0.41796875 2.1640625 0.41796875 4.7265625 2.60546875 C6.30563888 5.69496601 6.92580144 7.03246236 6.1640625 10.41796875 C3.53874599 13.99794581 2.06730377 15.25667567 -2.3359375 16.04296875 C-5.8359375 15.41796875 -5.8359375 15.41796875 -8.8359375 13.35546875 C-10.8359375 10.41796875 -10.8359375 10.41796875 -10.8359375 6.79296875 C-8.97745695 0.52059689 -6.16103928 -0.21071958 0 0 Z " fill="#E9B681" transform="translate(122.8359375,159.58203125)"/>
<path d="M0 0 C3.5 0.625 3.5 0.625 6.5 2.6875 C8.5 5.625 8.5 5.625 8.5 9.25 C7.51306327 12.58091147 7.14788018 13.58631321 4.5 15.625 C1.43318996 16.30274807 -1.42069047 16.21974029 -4.5 15.625 C-7.30310861 13.23210241 -8.2589505 11.69633111 -9.0625 8.125 C-7.92371715 3.06374287 -4.9606643 0.88583291 0 0 Z " fill="#E9B681" transform="translate(344.5,475.375)"/>
<path d="M0 0 C3.33091147 0.98693673 4.33631321 1.35211982 6.375 4 C7.05274807 7.06681004 6.96974029 9.92069047 6.375 13 C3.98210241 15.80310861 2.44633111 16.7589505 -1.125 17.5625 C-4.90092854 16.71291608 -6.3382584 15.07076729 -8.625 12 C-9.42285988 7.53198469 -9.14234028 5.75249495 -6.5625 2 C-3.625 0 -3.625 0 0 0 Z " fill="#E9B681" transform="translate(484.625,214)"/>
<path d="M0 0 C2.9375 1.5625 2.9375 1.5625 5 4 C5.63210717 7.93311127 5.60020266 10.02467068 3.5 13.4375 C-0.02126244 15.63828902 -2.95439643 15.80414661 -7 15 C-9.5 13.4375 -9.5 13.4375 -11 11 C-11.56288002 7.05983987 -11.60396028 4.94217804 -9.4375 1.5625 C-6.04295632 -0.61348954 -3.9634351 -0.55627159 0 0 Z " fill="#E9B781" transform="translate(273,476)"/>
<path d="M0 0 C3.42123173 2.47493359 4.79477021 3.88263781 5.5625 8.0625 C5 11 5 11 3.5625 13.375 C-0.10493887 15.70069294 -3.76008978 15.86672198 -8 15 C-9.75 13.71875 -9.75 13.71875 -11 12 C-11.75471698 5.20754717 -11.75471698 5.20754717 -9.4375 1.5 C-6.00863886 -0.61006839 -3.95779649 -0.62491523 0 0 Z " fill="#E9B681" transform="translate(124,476)"/>
<path d="M0 0 C2.9375 1.5625 2.9375 1.5625 5 4 C5.63210717 7.93311127 5.60020266 10.02467068 3.5 13.4375 C-0.02126244 15.63828902 -2.95439643 15.80414661 -7 15 C-9.5 13.4375 -9.5 13.4375 -11 11 C-11.56288002 7.05983987 -11.60396028 4.94217804 -9.4375 1.5625 C-6.04295632 -0.61348954 -3.9634351 -0.55627159 0 0 Z " fill="#E9B781" transform="translate(49,476)"/>
<path d="M0 0 C1.75 1.28125 1.75 1.28125 3 3 C3.75471698 9.79245283 3.75471698 9.79245283 1.4375 13.5 C-1.99136114 15.61006839 -4.04220351 15.62491523 -8 15 C-11.42123173 12.52506641 -12.79477021 11.11736219 -13.5625 6.9375 C-13 4 -13 4 -11.5625 1.625 C-7.89506113 -0.70069294 -4.23991022 -0.86672198 0 0 Z " fill="#E9B681" transform="translate(461,160)"/>
<path d="M0 0 C2.5 1.625 2.5 1.625 4 4 C4.47532236 7.25935332 4.29737834 9.26646676 3.0625 12.3125 C-0.24118364 15.01551389 -3.80981654 15.29497681 -8 15 C-10.5625 13.5625 -10.5625 13.5625 -12 11 C-12.56609405 8.03247539 -12.39389621 6.10193265 -12 3 C-9.09439036 -0.87414619 -4.47304957 -0.81578158 0 0 Z " fill="#E9B781" transform="translate(50,160)"/>
<path d="M0 0 C2.50350748 0.76995534 3.54928558 1.56969792 5.12109375 3.65234375 C5.61234834 7.51220128 5.68130513 9.74200026 3.62109375 13.08984375 C0.09983131 15.29063277 -2.83330268 15.45649036 -6.87890625 14.65234375 C-9.37890625 13.08984375 -9.37890625 13.08984375 -10.87890625 10.65234375 C-11.4357105 6.754714 -11.41485599 4.58443025 -9.44140625 1.15234375 C-6.05008632 -0.83281913 -3.81337708 -0.46943765 0 0 Z " fill="#E9B781" transform="translate(384.87890625,476.34765625)"/>
<path d="M0 0 C3 2.0625 3 2.0625 5 5 C5 8.50730601 4.87437176 10.84838841 2.71875 13.6875 C0.52518305 15.36258749 -0.76297658 15.40237023 -3.5 15.375 C-4.2734375 15.38273437 -5.046875 15.39046875 -5.84375 15.3984375 C-8.53046141 14.90197996 -9.40813918 14.20066025 -11 12 C-11.75471698 5.20754717 -11.75471698 5.20754717 -9.4375 1.5 C-6.00863886 -0.61006839 -3.95779649 -0.62491523 0 0 Z " fill="#E9B681" transform="translate(460,476)"/>
<path d="M0 0 C2.5 1.5625 2.5 1.5625 4 4 C4.5625 7.5 4.5625 7.5 4 11 C1.28148463 14.21279089 -0.40723678 14.90640581 -4.5625 15.5625 C-8 15 -8 15 -10.4375 12.875 C-12.26836859 9.50620179 -12.64250722 7.77472994 -12 4 C-9.04487268 -0.67895159 -5.10946802 -1.01561147 0 0 Z " fill="#E9B782" transform="translate(423,160)"/>
<path d="M0 0 C2.5 1.5625 2.5 1.5625 4 4 C4.5625 7.5 4.5625 7.5 4 11 C1.28148463 14.21279089 -0.40723678 14.90640581 -4.5625 15.5625 C-8 15 -8 15 -10.4375 12.875 C-12.26836859 9.50620179 -12.64250722 7.77472994 -12 4 C-9.04487268 -0.67895159 -5.10946802 -1.01561147 0 0 Z " fill="#E9B781" transform="translate(311,160)"/>
<path d="M0 0 C2.5 1.5625 2.5 1.5625 4 4 C4.5625 7.5 4.5625 7.5 4 11 C1.28148463 14.21279089 -0.40723678 14.90640581 -4.5625 15.5625 C-8 15 -8 15 -10.4375 12.875 C-12.26836859 9.50620179 -12.64250722 7.77472994 -12 4 C-9.04487268 -0.67895159 -5.10946802 -1.01561147 0 0 Z " fill="#E9B782" transform="translate(199,160)"/>
<path d="M0 0 C2.5 1.5625 2.5 1.5625 4 4 C4.5625 7.5 4.5625 7.5 4 11 C1.28148463 14.21279089 -0.40723678 14.90640581 -4.5625 15.5625 C-8 15 -8 15 -10.4375 12.875 C-12.26836859 9.50620179 -12.64250722 7.77472994 -12 4 C-9.04487268 -0.67895159 -5.10946802 -1.01561147 0 0 Z " fill="#E9B781" transform="translate(87,160)"/>
<path d="M0 0 C2 1.125 2 1.125 3 3 C3.49125459 6.85985753 3.56021138 9.08965651 1.5 12.4375 C-2.02126244 14.63828902 -4.95439643 14.80414661 -9 14 C-11.5 12.4375 -11.5 12.4375 -13 10 C-13.5625 6.5 -13.5625 6.5 -13 3 C-9.04915622 -1.93855472 -5.67545997 -1.37309515 0 0 Z " fill="#E9B782" transform="translate(163,477)"/>
<path d="M0 0 C2.1621789 1.57607574 2.88866524 2.49621021 3.46875 5.12109375 C3.52426701 9.23629217 3.54853806 11.30186066 0.9375 14.625 C-2.90996265 16.42593997 -4.95594856 16.19823746 -9 15 C-11.81972931 12.63506574 -11.97850831 11.1719335 -12.4375 7.5 C-12 4 -12 4 -10.5 1.5625 C-6.75107996 -0.78057502 -4.38964238 -0.48773804 0 0 Z " fill="#E9B781" transform="translate(488,458)"/>
<path d="M0 0 C3.32678974 0.98571548 4.34764502 1.34513038 6.375 4 C6.7734375 6.15625 6.7734375 6.15625 6.75 8.5 C6.75773437 9.2734375 6.76546875 10.046875 6.7734375 10.84375 C6.27673068 13.53181041 5.58156639 14.41247034 3.375 16 C0.67151254 16.55595912 -1.9039747 16.43172844 -4.625 16 C-6.79976401 14.45661909 -7.44332637 13.36334727 -8.625 11 C-9.16258841 6.96808695 -8.9325996 5.4380964 -6.5625 2.0625 C-3.625 0 -3.625 0 0 0 Z " fill="#E9B781" transform="translate(484.625,420)"/>
<path d="M0 0 C2.4375 1.5 2.4375 1.5 4 4 C4.80414661 8.04560357 4.63828902 10.97873756 2.4375 14.5 C-0.97532932 16.60020266 -3.06688873 16.63210717 -7 16 C-10.22456813 13.27151928 -10.91290117 11.62057913 -11.5 7.4375 C-11 4 -11 4 -9.4375 1.5625 C-6.05782196 -0.60396028 -3.94016013 -0.56288002 0 0 Z " fill="#E9B782" transform="translate(487,177)"/>
<path d="M0 0 C2.5 1.625 2.5 1.625 4 4 C4.5625 6.9375 4.5625 6.9375 4 10 C1.9375 12.875 1.9375 12.875 -1 15 C-4.95779649 15.62491523 -7.00863886 15.61006839 -10.4375 13.5 C-12.79893062 9.72171101 -12.56153595 7.42209561 -12 3 C-9.09439036 -0.87414619 -4.47304957 -0.81578158 0 0 Z " fill="#E9B782" transform="translate(386,160)"/>
<path d="M0 0 C2.5 1.625 2.5 1.625 4 4 C4.5625 6.9375 4.5625 6.9375 4 10 C1.9375 12.875 1.9375 12.875 -1 15 C-4.95779649 15.62491523 -7.00863886 15.61006839 -10.4375 13.5 C-12.79893062 9.72171101 -12.56153595 7.42209561 -12 3 C-9.09439036 -0.87414619 -4.47304957 -0.81578158 0 0 Z " fill="#E9B782" transform="translate(274,160)"/>
<path d="M0 0 C2.5 1.625 2.5 1.625 4 4 C4.5625 6.9375 4.5625 6.9375 4 10 C1.9375 12.875 1.9375 12.875 -1 15 C-4.95779649 15.62491523 -7.00863886 15.61006839 -10.4375 13.5 C-12.79893062 9.72171101 -12.56153595 7.42209561 -12 3 C-9.09439036 -0.87414619 -4.47304957 -0.81578158 0 0 Z " fill="#E9B782" transform="translate(162,160)"/>
<path d="M0 0 C2.875 1.5 2.875 1.5 5 4 C5.63008105 6.95424795 5.39281877 8.90655222 5 12 C3.42079381 14.15972435 2.50401595 14.88861526 -0.12109375 15.46875 C-4.23629217 15.52426701 -6.30186066 15.54853806 -9.625 12.9375 C-11.42593997 9.09003735 -11.19823746 7.04405144 -10 3 C-7.07633177 -0.35680426 -4.30565927 -0.61509418 0 0 Z " fill="#E9B782" transform="translate(422,476)"/>
<path d="M0 0 C2.875 1.5 2.875 1.5 5 4 C5.63008105 6.95424795 5.39281877 8.90655222 5 12 C3.42079381 14.15972435 2.50401595 14.88861526 -0.12109375 15.46875 C-4.23629217 15.52426701 -6.30186066 15.54853806 -9.625 12.9375 C-11.42593997 9.09003735 -11.19823746 7.04405144 -10 3 C-7.07633177 -0.35680426 -4.30565927 -0.61509418 0 0 Z " fill="#E9B782" transform="translate(310,476)"/>
<path d="M0 0 C2.875 1.5 2.875 1.5 5 4 C5.63008105 6.95424795 5.39281877 8.90655222 5 12 C3.42079381 14.15972435 2.50401595 14.88861526 -0.12109375 15.46875 C-4.23629217 15.52426701 -6.30186066 15.54853806 -9.625 12.9375 C-11.42593997 9.09003735 -11.19823746 7.04405144 -10 3 C-7.07633177 -0.35680426 -4.30565927 -0.61509418 0 0 Z " fill="#E9B782" transform="translate(198,476)"/>
<path d="M0 0 C2.875 1.5 2.875 1.5 5 4 C5.63008105 6.95424795 5.39281877 8.90655222 5 12 C3.42079381 14.15972435 2.50401595 14.88861526 -0.12109375 15.46875 C-4.23629217 15.52426701 -6.30186066 15.54853806 -9.625 12.9375 C-11.42593997 9.09003735 -11.19823746 7.04405144 -10 3 C-7.07633177 -0.35680426 -4.30565927 -0.61509418 0 0 Z " fill="#E9B782" transform="translate(86,476)"/>
<path d="M0 0 C2.4375 1.5625 2.4375 1.5625 4 4 C4.5625 7.4375 4.5625 7.4375 4 11 C1.52506641 14.42123173 0.11736219 15.79477021 -4.0625 16.5625 C-7 16 -7 16 -9.375 14.5 C-11.65700312 10.98922596 -11.81004807 8.07529338 -11 4 C-8.16250305 -0.53999512 -5.10870514 -0.72981502 0 0 Z " fill="#E9B782" transform="translate(32,411)"/>
<path d="M0 0 C2.4375 1.5625 2.4375 1.5625 4 4 C4.5625 7.4375 4.5625 7.4375 4 11 C1.52506641 14.42123173 0.11736219 15.79477021 -4.0625 16.5625 C-7 16 -7 16 -9.375 14.5 C-11.65700312 10.98922596 -11.81004807 8.07529338 -11 4 C-8.16250305 -0.53999512 -5.10870514 -0.72981502 0 0 Z " fill="#E9B782" transform="translate(32,187)"/>
<path d="M0 0 C1.87109375 0.3125 1.87109375 0.3125 3.80859375 1.375 C5.46026056 4.38686301 5.75323484 6.89459158 5.87109375 10.3125 C4.87109375 13.1875 4.87109375 13.1875 2.87109375 15.3125 C-1.21500478 16.59886435 -3.19537168 16.76933606 -7.06640625 14.875 C-9.5610521 11.77559152 -9.76205901 10.09674695 -9.47265625 6.21875 C-8.42179978 0.3912732 -5.38329878 -0.3160836 0 0 Z " fill="#E9B781" transform="translate(30.12890625,373.6875)"/>
<path d="M0 0 C2.4375 1.5625 2.4375 1.5625 4 4 C4.5625 7.4375 4.5625 7.4375 4 11 C1.52506641 14.42123173 0.11736219 15.79477021 -4.0625 16.5625 C-7 16 -7 16 -9.375 14.5 C-11.65700312 10.98922596 -11.81004807 8.07529338 -11 4 C-8.16250305 -0.53999512 -5.10870514 -0.72981502 0 0 Z " fill="#E9B782" transform="translate(32,299)"/>
<path d="M0 0 C1.875 1.0625 1.875 1.0625 3 3 C3.98586223 6.80261145 4.29822018 9.14261699 3 12.875 C1 15 1 15 -2.375 16.0625 C-6 16 -6 16 -8.9375 14.5625 C-11.42152942 11.47628163 -11.68849662 9.77721542 -11.4140625 5.90625 C-11 4 -11 4 -9.4375 1.5 C-6.08965651 -0.56021138 -3.85985753 -0.49125459 0 0 Z " fill="#E9B782" transform="translate(32,262)"/>
<path d="M0 0 C2.562964 2.23225897 2.93752331 3.58051369 3.4375 6.9375 C2.88008526 10.83940315 1.97118368 12.40973731 -1 15 C-4.93311127 15.63210717 -7.02467068 15.60020266 -10.4375 13.5 C-12.33148168 10.46962931 -12.64334247 8.44169066 -12.4453125 4.91015625 C-12 3 -12 3 -9.9375 0.4375 C-6.08838451 -1.44610971 -4.07579849 -1.207644 0 0 Z " fill="#E9B782" transform="translate(33,449)"/>
<path d="M0 0 C2.562964 2.23225897 2.93752331 3.58051369 3.4375 6.9375 C2.88008526 10.83940315 1.97118368 12.40973731 -1 15 C-4.93311127 15.63210717 -7.02467068 15.60020266 -10.4375 13.5 C-12.33148168 10.46962931 -12.64334247 8.44169066 -12.4453125 4.91015625 C-12 3 -12 3 -9.9375 0.4375 C-6.08838451 -1.44610971 -4.07579849 -1.207644 0 0 Z " fill="#E9B782" transform="translate(33,337)"/>
<path d="M0 0 C2.562964 2.23225897 2.93752331 3.58051369 3.4375 6.9375 C2.88008526 10.83940315 1.97118368 12.40973731 -1 15 C-4.93311127 15.63210717 -7.02467068 15.60020266 -10.4375 13.5 C-12.33148168 10.46962931 -12.64334247 8.44169066 -12.4453125 4.91015625 C-12 3 -12 3 -9.9375 0.4375 C-6.08838451 -1.44610971 -4.07579849 -1.207644 0 0 Z " fill="#E9B782" transform="translate(33,225)"/>
<path d="M0 0 C-1.65 1.65 -3.3 3.3 -5 5 C-7.475 4.01 -7.475 4.01 -10 3 C-6.84439813 -0.15560187 -4.30999015 -1.43666338 0 0 Z " fill="#F9BF39" transform="translate(380,7)"/>
</svg>
